<?xml version="1.0" encoding="UTF-8"?>
<svg enable-background="new 0 0 456.448 456.448" version="1.1" viewBox="0 0 456.45 456.45" xml:space="preserve" xmlns="http://www.w3.org/2000/svg">

	
		<path d="m276.83 183.08h-97.215c-8.284 0-15-6.716-15-15v-104.47c0-35.073 28.534-63.607 63.607-63.607s63.607 28.534 63.607 63.607v104.47c1e-3 8.284-6.715 15-14.999 15zm-82.215-30h67.215v-89.474c0-18.531-15.076-33.607-33.607-33.607s-33.607 15.076-33.607 33.607v89.474h-1e-3z" fill="#EEBF00"/>
	
	<path d="m228.22 0v30c18.531 0 33.607 15.076 33.607 33.607v89.474h-33.608v30h48.608c8.284 0 15-6.716 15-15v-104.47c1e-3 -35.073-28.533-63.607-63.607-63.607z" fill="#DDB200"/>
	<path d="m228.22 327.72c-35.492 0-64.367 28.875-64.367 64.367 0 35.491 28.875 64.366 64.367 64.366s64.367-28.875 64.367-64.366c1e-3 -35.492-28.874-64.367-64.367-64.367z" fill="#EEBF00"/>
	<path d="m228.22 327.72v128.73c35.492 0 64.367-28.875 64.367-64.366 1e-3 -35.492-28.874-64.367-64.367-64.367z" fill="#DDB200"/>
	<path d="m398.24 336.88c-27.365-40.198-41.83-87.151-41.83-135.78v-2.473c0-70.683-57.505-128.19-128.19-128.19s-128.19 57.505-128.19 128.19v2.473c0 48.63-14.465 95.583-41.831 135.78-7.828 11.501-8.65 26.283-2.146 38.579 6.505 12.297 19.188 19.936 33.099 19.936h278.13c13.911 0 26.595-7.64 33.099-19.936 6.506-12.296 5.685-27.078-2.144-38.58z" fill="#FFD422"/>
	<path d="m398.24 336.88c-27.365-40.198-41.83-87.151-41.83-135.78v-2.473c0-70.683-57.505-128.19-128.19-128.19v324.96h139.06c13.911 0 26.595-7.64 33.099-19.936 6.505-12.296 5.684-27.078-2.145-38.58z" fill="#EEBF00"/>

</svg>
