<?xml version="1.0" encoding="iso-8859-1"?>
<!-- Generator: Adobe Illustrator 19.0.0, SVG Export Plug-In . SVG Version: 6.00 Build 0)  -->
<svg version="1.1" id="Layer_1" xmlns="http://www.w3.org/2000/svg" xmlns:xlink="http://www.w3.org/1999/xlink" x="0px" y="0px"
	 viewBox="0 0 456.448 456.448" style="enable-background:new 0 0 456.448 456.448;" xml:space="preserve">
<g id="XMLID_1454_">
	<g id="XMLID_495_">
		<path id="XMLID_504_" style="fill:#EEBF00;" d="M276.832,183.081h-97.215c-8.284,0-15-6.716-15-15V63.607
			C164.617,28.534,193.151,0,228.224,0s63.607,28.534,63.607,63.607v104.474C291.832,176.365,285.116,183.081,276.832,183.081z
			 M194.617,153.081h67.215V63.607c0-18.531-15.076-33.607-33.607-33.607s-33.607,15.076-33.607,33.607v89.474H194.617z"/>
	</g>
	<path id="XMLID_507_" style="fill:#DDB200;" d="M228.224,0L228.224,0v30l0,0c18.531,0,33.607,15.076,33.607,33.607v89.474h-33.608
		v30h48.608c8.284,0,15-6.716,15-15V63.607C291.832,28.534,263.298,0,228.224,0z"/>
	<path id="XMLID_508_" style="fill:#EEBF00;" d="M228.224,327.715c-35.492,0-64.367,28.875-64.367,64.367
		c0,35.491,28.875,64.366,64.367,64.366s64.367-28.875,64.367-64.366C292.592,356.59,263.717,327.715,228.224,327.715z"/>
	<path id="XMLID_509_" style="fill:#DDB200;" d="M228.224,327.715L228.224,327.715v128.733l0,0
		c35.492,0,64.367-28.875,64.367-64.366C292.592,356.59,263.717,327.715,228.224,327.715z"/>
	<path id="XMLID_510_" style="fill:#FFD422;" d="M398.242,336.882c-27.365-40.198-41.83-87.151-41.83-135.781v-2.473
		c0-70.683-57.505-128.188-128.188-128.188s-128.188,57.505-128.188,128.188v2.473c0,48.63-14.465,95.583-41.831,135.782
		c-7.828,11.501-8.65,26.283-2.146,38.579c6.505,12.297,19.188,19.936,33.099,19.936h278.129c13.911,0,26.595-7.64,33.099-19.936
		C406.892,363.166,406.071,348.384,398.242,336.882z"/>
	<path id="XMLID_511_" style="fill:#EEBF00;" d="M398.242,336.882c-27.365-40.198-41.83-87.151-41.83-135.781v-2.473
		c0-70.683-57.505-128.188-128.188-128.188v324.958h139.064c13.911,0,26.595-7.64,33.099-19.936
		C406.892,363.166,406.071,348.384,398.242,336.882z"/>
</g>
<g>
</g>
<g>
</g>
<g>
</g>
<g>
</g>
<g>
</g>
<g>
</g>
<g>
</g>
<g>
</g>
<g>
</g>
<g>
</g>
<g>
</g>
<g>
</g>
<g>
</g>
<g>
</g>
<g>
</g>
</svg>
