<?xml version="1.0" encoding="UTF-8"?>
<svg enable-background="new 0 0 360 360" version="1.1" viewBox="0 0 360 360" xml:space="preserve" xmlns="http://www.w3.org/2000/svg">

	<path d="m30 235c0-22.094 17.908-40 40-40v-30c-38.659 0-70 31.338-70 70s31.341 70 70 70v-30c-22.092 0-40-17.908-40-40z" fill="#616064"/>
	<path d="m76.893 195.6 12.653-27.817c-6.206-1.803-12.759-2.787-19.546-2.787v30c2.352 0 4.652 0.215 6.893 0.604z" fill="#565659"/>
	<path d="M70,275v30c36.961,0,67.209-28.649,69.799-64.952l-30.124-0.022   C107.201,259.742,90.388,275,70,275z" fill="#565659"/>
	<path d="m115.94 182.21-12.649 27.809 32.109 0.025c-4.133-10.826-10.876-20.356-19.46-27.834z" fill="#565659"/>
	<path d="m30 235c0 22.092 17.908 40 40 40 20.388 0 37.201-15.258 39.675-34.975l-29.687-0.023-13.643-21.211 10.547-23.188c-2.24-0.388-4.54-0.603-6.892-0.603-22.092 0-40 17.906-40 40z" fill="#fff"/>
	<path d="m250 235c0-13.078 6.277-24.688 15.981-31.986l-7.242-30.644c-22.963 11.484-38.739 35.207-38.739 62.63 0 38.662 31.341 70 70 70v-30c-22.091 0-40-17.908-40-40z" fill="#616064"/>
	<path d="m290 165c-0.661 0-1.315 0.031-1.973 0.05l1.973 8.275 5.25 22.028c19.607 2.573 34.75 19.335 34.75 39.647 0 22.092-17.909 40-40 40v30c38.659 0 70-31.338 70-70s-31.341-70-70-70z" fill="#565659"/>
	<path d="M274.82,240.413l-8.839-37.399C256.277,210.313,250,221.922,250,235   c0,22.092,17.909,40,40,40s40-17.908,40-40c0-20.313-15.143-37.074-34.75-39.646l10.738,45.06H274.82z" fill="#fff"/>
	<polygon points="274.82 240.41 305.99 240.41 295.25 195.35 290 173.32 288.03 165.05 268.95 85 300 85 300 55 231 55 247.56 125.08 180 125.08 180 155.08 254.65 155.08 258.74 172.37 265.98 203.01" fill="#BF3C1A"/>
	<path d="m160 125.08h-51.028l-32.079 70.524-10.547 23.188 13.643 21.211 59.811 0.045 14.213 0.011c-2.547-4.408-4.012-9.521-4.012-14.979 0-5.474 1.474-10.602 4.035-15.02l-50.741-0.04 26.701-58.703 25.601 56.323c5.443-7.602 14.342-12.561 24.404-12.561 0.98 0 1.949 0.051 2.905 0.143l-18.247-40.143h15.341v-30h-20z" fill="#FF5023"/>
	<path d="m155.6 207.64c-0.558 0.779-1.078 1.586-1.561 2.419-2.562 4.418-4.035 9.546-4.035 15.02 0 5.458 1.465 10.571 4.012 14.979 5.186 8.977 14.878 15.021 25.988 15.021v-60c-10.062-1e-3 -18.961 4.959-24.404 12.561z" fill="#DEDDE0"/>
	<path d="m180 255.08c16.568 0 30-13.432 30-30 0-15.588-11.891-28.396-27.095-29.857-0.956-0.092-1.925-0.143-2.905-0.143v60z" fill="#CDCDD0"/>
	<polygon points="160 95.079 80 95.079 80 125.08 108.97 125.08 160 125.08" fill="#565659"/>

</svg>
