<?xml version="1.0" encoding="iso-8859-1"?>
<!-- Generator: Adobe Illustrator 19.0.0, SVG Export Plug-In . SVG Version: 6.00 Build 0)  -->
<svg version="1.1" id="Capa_1" xmlns="http://www.w3.org/2000/svg" xmlns:xlink="http://www.w3.org/1999/xlink" x="0px" y="0px"
	 viewBox="0 0 360 360" style="enable-background:new 0 0 360 360;" xml:space="preserve">
<g id="XMLID_11_">
	<path id="XMLID_1837_" style="fill:#616064;" d="M30,235c0-22.094,17.908-40,40-40v-30c-38.659,0-70,31.338-70,70s31.341,70,70,70
		v-30C47.908,275,30,257.092,30,235z"/>
	<path id="XMLID_1838_" style="fill:#565659;" d="M76.893,195.604l12.653-27.817C83.34,165.984,76.787,165,70,165v30
		C72.352,195,74.652,195.215,76.893,195.604z"/>
	<path id="XMLID_1839_" style="fill:#565659;" d="M70,275v30c36.961,0,67.209-28.649,69.799-64.952l-30.124-0.022
		C107.201,259.742,90.388,275,70,275z"/>
	<path id="XMLID_1840_" style="fill:#565659;" d="M115.943,182.211l-12.649,27.809l32.109,0.025
		C131.27,199.219,124.527,189.689,115.943,182.211z"/>
	<path id="XMLID_1841_" style="fill:#FFFFFF;" d="M30,235c0,22.092,17.908,40,40,40c20.388,0,37.201-15.258,39.675-34.975
		l-29.687-0.023l-13.643-21.211l10.547-23.188C74.652,195.215,72.352,195,70,195C47.908,195,30,212.906,30,235z"/>
	<path id="XMLID_1842_" style="fill:#616064;" d="M250,235c0-13.078,6.277-24.688,15.981-31.986l-7.242-30.644
		C235.776,183.854,220,207.577,220,235c0,38.662,31.341,70,70,70v-30C267.909,275,250,257.092,250,235z"/>
	<path id="XMLID_1843_" style="fill:#565659;" d="M290,165c-0.661,0-1.315,0.031-1.973,0.05l1.973,8.275l5.25,22.028
		C314.857,197.926,330,214.688,330,235c0,22.092-17.909,40-40,40v30c38.659,0,70-31.338,70-70S328.659,165,290,165z"/>
	<path id="XMLID_1844_" style="fill:#FFFFFF;" d="M274.82,240.413l-8.839-37.399C256.277,210.313,250,221.922,250,235
		c0,22.092,17.909,40,40,40s40-17.908,40-40c0-20.313-15.143-37.074-34.75-39.646l10.738,45.06H274.82z"/>
	<polygon id="XMLID_1845_" style="fill:#BF3C1A;" points="274.82,240.413 305.988,240.413 295.25,195.354 290,173.325 
		288.027,165.05 268.95,85 300,85 300,55 231,55 247.563,125.079 180,125.079 180,155.079 254.652,155.079 258.739,172.37 
		265.981,203.014 	"/>
	<path id="XMLID_1846_" style="fill:#FF5023;" d="M160,125.079h-51.028l-19.426,42.707l-12.653,27.817l-10.547,23.188l13.643,21.211
		l29.687,0.023l30.124,0.022l14.213,0.011c-2.547-4.408-4.012-9.521-4.012-14.979c0-5.474,1.474-10.602,4.035-15.02l-18.632-0.015
		l-32.109-0.025l12.649-27.809l14.052-30.894l25.601,56.323c5.443-7.602,14.342-12.561,24.404-12.561
		c0.98,0,1.949,0.051,2.905,0.143l-18.247-40.143H180v-30H160z"/>
	<path id="XMLID_1847_" style="fill:#DEDDE0;" d="M155.596,207.641c-0.558,0.779-1.078,1.586-1.561,2.419
		c-2.562,4.418-4.035,9.546-4.035,15.02c0,5.458,1.465,10.571,4.012,14.979c5.186,8.977,14.878,15.021,25.988,15.021v-60
		C169.938,195.079,161.039,200.039,155.596,207.641z"/>
	<path id="XMLID_1848_" style="fill:#CDCDD0;" d="M180,255.079c16.568,0,30-13.432,30-30c0-15.588-11.891-28.396-27.095-29.857
		c-0.956-0.092-1.925-0.143-2.905-0.143V255.079z"/>
	<polygon id="XMLID_1849_" style="fill:#565659;" points="160,95.079 80,95.079 80,125.079 108.972,125.079 160,125.079 	"/>
</g>
<g>
</g>
<g>
</g>
<g>
</g>
<g>
</g>
<g>
</g>
<g>
</g>
<g>
</g>
<g>
</g>
<g>
</g>
<g>
</g>
<g>
</g>
<g>
</g>
<g>
</g>
<g>
</g>
<g>
</g>
</svg>
