<?xml version="1.0" encoding="UTF-8"?>
<svg enable-background="new 0 0 512 512" version="1.1" viewBox="0 0 512 512" xml:space="preserve" xmlns="http://www.w3.org/2000/svg">
<g fill="#fff">
	<path d="m137.46 322.94c16.526 0 29.957 13.443 29.957 29.957 0 16.515-13.432 29.957-29.957 29.957-16.515 0-29.957-13.443-29.957-29.957-1e-3 -16.515 13.442-29.957 29.957-29.957z"/>
	<path d="m374.54 322.94c16.515 0 29.957 13.443 29.957 29.957 0 16.515-13.443 29.957-29.957 29.957-16.526 0-29.957-13.443-29.957-29.957 0-16.515 13.432-29.957 29.957-29.957z"/>
	<path d="m208.37 118.25v83.064h-155.32l65.46-69.545c6.177-6.569 22.256-13.519 31.276-13.519h58.585z"/>
</g>
<path d="m335.66 129.06 33.596 72.257h-160.89v-83.063h110.26c5.36 0 14.75 5.958 17.027 10.806z" fill="#C5E2E2"/>
<path d="m457.11 233.99c0-5.164 0.839-10.12 2.386-14.772 0-0.011-38.204-12.746-38.204-12.746-8.53-2.832-18.628-11.82-22.463-19.946l-33.596-71.397c-7.647-16.264-28.618-29.565-46.592-29.565h-168.85c-17.974 0-42.757 10.708-55.078 23.803l-75.34 80.046c-6.155 6.547-11.199 19.249-11.199 28.236v102.56c0 17.974 14.706 32.681 32.681 32.681h23.073c0-40.611 32.921-73.532 73.532-73.532s73.532 32.921 73.532 73.532h90.025c0-40.611 32.921-73.532 73.532-73.532s73.532 32.921 73.532 73.532h27.288s28.465-14.706 28.465-32.681v-39.5c-25.807 1e-3 -46.723-20.915-46.723-46.722zm-404.06-32.68 65.46-69.545c6.177-6.569 22.256-13.519 31.276-13.519h168.85c5.36 0 14.75 5.959 17.027 10.806l33.596 72.257h-316.21z" fill="#ED6951"/>
<g fill="#AECE71">
	<path d="m137.46 279.37c40.611 0 73.532 32.921 73.532 73.532s-32.921 73.532-73.532 73.532-73.532-32.921-73.532-73.532 32.92-73.532 73.532-73.532zm29.957 73.532c0-16.515-13.432-29.957-29.957-29.957-16.515 0-29.957 13.443-29.957 29.957 0 16.515 13.443 29.957 29.957 29.957 16.525 1e-3 29.957-13.442 29.957-29.957z"/>
	<path d="m374.54 279.37c40.611 0 73.532 32.921 73.532 73.532s-32.921 73.532-73.532 73.532-73.532-32.921-73.532-73.532 32.921-73.532 73.532-73.532zm29.958 73.532c0-16.515-13.443-29.957-29.957-29.957-16.526 0-29.957 13.443-29.957 29.957 0 16.515 13.432 29.957 29.957 29.957 16.514 1e-3 29.957-13.442 29.957-29.957z"/>
</g>
<path d="m459.5 219.22c24.38 8.127 44.326 35.796 44.326 61.494-25.807 0-46.723-20.916-46.723-46.723 0-5.163 0.839-10.12 2.397-14.771z" fill="#EEC278"/>
<g fill="#700019">
	<path d="m137.46 391.03c21.024 0 38.128-17.104 38.128-38.128s-17.104-38.128-38.128-38.128-38.128 17.104-38.128 38.128 17.104 38.128 38.128 38.128zm0-59.915c12.013 0 21.787 9.774 21.787 21.787s-9.774 21.787-21.787 21.787-21.787-9.774-21.787-21.787 9.772-21.787 21.787-21.787z"/>
	<path d="m374.54 314.77c-21.024 0-38.128 17.104-38.128 38.128s17.104 38.128 38.128 38.128 38.128-17.104 38.128-38.128-17.104-38.128-38.128-38.128zm0 59.914c-12.013 0-21.787-9.774-21.787-21.787s9.774-21.787 21.787-21.787 21.787 9.774 21.787 21.787-9.772 21.787-21.787 21.787z"/>
	<path d="m149.79 126.42h25.904c4.513 0 8.17-3.658 8.17-8.17s-3.657-8.17-8.17-8.17h-25.904c-11.354 0-29.447 7.817-37.231 16.087l-65.458 69.55c-2.234 2.374-2.842 5.848-1.55 8.84 1.293 2.992 4.241 4.929 7.5 4.929h316.21c2.791 0 5.387-1.424 6.888-3.777 1.5-2.352 1.697-5.308 0.521-7.838l-33.611-72.295c-3.611-7.676-15.935-15.496-24.418-15.496h-110.27c-4.513 0-8.17 3.658-8.17 8.17l-1e-3 74.896h-128.24l52.496-55.78c4.622-4.911 18.591-10.946 25.332-10.946zm66.755 0h102.07c2.4 0.112 8.543 4.01 9.64 6.08l28.196 60.646h-139.91l1e-3 -66.726z"/>
	<path d="m512 280.72c0-29.011-22.392-60.077-49.913-69.251-0.019-7e-3 -38.213-12.738-38.213-12.738-6.377-2.125-14.789-9.599-17.651-15.68l-33.596-71.391c-9.041-19.212-32.755-34.262-53.989-34.262h-168.85c-20.305 0-47.112 11.582-61.028 26.369l-75.338 80.048c-7.526 7.997-13.421 22.86-13.421 33.841v102.56c0 22.526 18.325 40.851 40.851 40.851h15.316c4.112 41.228 38.999 73.532 81.293 73.532s77.18-32.304 81.293-73.532h49.576c4.513 0 8.17-3.658 8.17-8.17s-3.657-8.17-8.17-8.17h-49.576c-4.112-41.228-38.999-73.532-81.293-73.532s-77.18 32.304-81.293 73.532h-15.316c-13.515 0-24.511-10.995-24.511-24.511v-102.56c0-6.856 4.28-17.648 8.979-22.64l75.339-80.05c10.829-11.507 33.328-21.227 49.129-21.227h168.85c14.905 0 32.857 11.393 39.203 24.879l33.596 71.391c4.816 10.235 16.539 20.649 27.268 24.225l31.045 10.348c-0.536 3.095-0.815 6.241-0.815 9.414 0 27.493 20.317 50.326 46.725 54.284v31.94c0 13.516-9.104 24.511-20.296 24.511h-19.531c-4.112-41.228-38.999-73.532-81.293-73.532-45.051 0-81.702 36.652-81.702 81.702s36.652 81.702 81.702 81.702c42.293 0 77.18-32.304 81.293-73.532h19.531c20.201 0 36.636-18.325 36.636-40.851v-39.5zm-374.54 6.819c36.04 0 65.362 29.321 65.362 65.362s-29.321 65.362-65.362 65.362-65.362-29.321-65.362-65.362 29.322-65.362 65.362-65.362zm237.08 130.72c-36.04 0-65.362-29.321-65.362-65.362s29.321-65.362 65.362-65.362 65.362 29.321 65.362 65.362-29.322 65.362-65.362 65.362zm90.735-184.27c0-1.056 0.044-2.107 0.127-3.152 14.336 8.309 25.913 24.369 29.265 40.596-16.848-4.122-29.392-19.342-29.392-37.444z"/>
</g>

</svg>
