<?xml version="1.0" encoding="UTF-8"?>
<svg viewBox="0 0 162.39 125.75" xmlns="http://www.w3.org/2000/svg">
<defs>
<style>.a{fill:#e72e7a;}.b{fill:#309fab;}.c{fill:#b1d0cf;}.d{fill:#fff;}.e{fill:#fbb80f;}.f{fill:#d46041;}.g{filter:url(#b);}.h{filter:url(#c);}.i{filter:url(#d);}</style>
<filter id="d" x="1.698" y="39.437" width="135.75" height="77.234" filterUnits="userSpaceOnUse">
<feOffset dy="3" input="SourceAlpha"/>
<feGaussianBlur result="b" stdDeviation="3"/>
<feFlood flood-opacity=".161"/>
<feComposite in2="b" operator="in"/>
<feComposite in="SourceGraphic"/>
</filter>
<filter id="c" x="104.28" y="72.529" width="58.108" height="53.221" filterUnits="userSpaceOnUse">
<feOffset dy="3" input="SourceAlpha"/>
<feGaussianBlur result="d" stdDeviation="3"/>
<feFlood flood-opacity=".161"/>
<feComposite in2="d" operator="in"/>
<feComposite in="SourceGraphic"/>
</filter>
<filter id="b" x="0" y="67.207" width="64.169" height="58.543" filterUnits="userSpaceOnUse">
<feOffset dy="3" input="SourceAlpha"/>
<feGaussianBlur result="f" stdDeviation="3"/>
<feFlood flood-opacity=".161"/>
<feComposite in2="f" operator="in"/>
<feComposite in="SourceGraphic"/>
</filter>
</defs>
<g transform="translate(8.822)">
<path class="a" transform="translate(-474.15 -387)" d="m529.59 453.53h-34.218l-0.363-9.239a2.621 2.621 0 0 1 1.023-2.141 3.451 3.451 0 0 1 2.518-0.708l19.913 2.141c6.146 0.014 11.121 4.392 11.126 9.79z"/>
<path class="b" transform="translate(-461.61 -341.66)" d="m501.79 375.41h-23.865a2.283 2.283 0 0 0-2.417 2.122v20.958a2.283 2.283 0 0 0 2.417 2.122h23.866a2.283 2.283 0 0 0 2.417-2.122v-20.957a2.283 2.283 0 0 0-2.417-2.122z"/>
<path class="c" transform="translate(-471.92 -357.67)" d="m506.73 407.1-11.268 1.927a2.575 2.575 0 0 1-3.011-1.782l-0.866-3.906a2.289 2.289 0 0 1 2.03-2.644l11.268-1.927a2.575 2.575 0 0 1 3.011 1.782l0.866 3.906a2.289 2.289 0 0 1-2.03 2.644z"/>
<path class="d" transform="translate(-478.45 -363.61)" d="M511.011,408.425l-8.6,1.471a.605.605,0,0,1-.709-.419.538.538,0,0,1,.478-.622l8.6-1.471a.605.605,0,0,1,.709.419A.538.538,0,0,1,511.011,408.425Z"/>
<path class="d" transform="translate(-482.93 -368.39)" d="M513.815,415.381l-4.448.761a.605.605,0,0,1-.708-.419.538.538,0,0,1,.478-.622l4.448-.761a.605.605,0,0,1,.709.419A.538.538,0,0,1,513.815,415.381Z"/>
<path class="a" transform="translate(-461.61 -341.66)" d="m504.21 377.54v2.786h-28.7v-2.786a2.283 2.283 0 0 1 2.417-2.122h23.866a2.283 2.283 0 0 1 2.417 2.122z"/>
<path class="e" transform="translate(-545.2 -327.27)" d="m645.11 366.81a3.566 3.566 0 0 0-2.179-2.107 4.312 4.312 0 0 0-3.238 0.114l-32.834-10.344-1.446 7.2 32.729 7.9a4.145 4.145 0 0 0 4.884 1.333 3.26 3.26 0 0 0 2.084-4.096z"/>
<path class="a" transform="translate(-529.2 -321.52)" d="M596.7,350.034l-3.1,7.113a1.633,1.633,0,0,1-1.021.879,1.931,1.931,0,0,1-1.425-.1l-7.535-3.724a4.049,4.049,0,0,1-2.731-5.416,5,5,0,0,1,6.167-2.4l8.414,1.639a1.709,1.709,0,0,1,1.14.758A1.344,1.344,0,0,1,596.7,350.034Z"/>
<path class="a" transform="translate(-600.28 -368.79)" d="m702.78 414.91-11.765 4.7 1.545 5.107a70.088 70.088 0 0 1 2.332 30.259l8.6 1.578 7.13-15.967-2.5-18.158z"/>
<path class="b" transform="translate(-637.3 -420.65)" d="m762.89 490.41c-7.73 0-14.03 4.935-14.335 11.114h28.67c-0.306-6.179-6.605-11.114-14.335-11.114z"/>
<g class="i" transform="translate(-8.82)">
<path class="b" transform="translate(-431.07 -367.28)" d="M559.462,438.107c-.4-27.895-18.493-25.328-18.493-25.328s.338,8.683.5,8.953c11.528,19.154-7.5,41.609-31.716,37.478q-.685-.117-1.316-.237c-6.369-1.168-10.608-6.48-9.684-12.136,2.386-16.823-9.48-16.526-9.48-16.526h-17.35l-9.01-7.121a2.887,2.887,0,0,0-2.381-.523A2.53,2.53,0,0,0,458.7,424.1l-1.159,2.763s-17.113,1.565-15.687,16.28h5.291a8.248,8.248,0,0,0,.057,1.252l39.484-.282c2.314-.017,4.357,1.63,4.367,3.663a3.474,3.474,0,0,1-1.271,2.655,4.526,4.526,0,0,1-3.059,1.038l-6.366-.186c-1.961,7.67,2.852,12.836,8.155,16.084a32.611,32.611,0,0,0,16.976,4.579h17.294c22.46,0,26.382-16.593,26.382-16.593C560.934,450.974,559.462,438.107,559.462,438.107Z"/>
</g>
<g class="h" transform="translate(-8.82)">
<path class="b" transform="translate(113.28 78.53)" d="M20.054,0C31.13,0,40.108,7.885,40.108,17.611S31.13,35.221,20.054,35.221,0,27.337,0,17.611,8.978,0,20.054,0Z"/>
</g>
<ellipse class="d" transform="translate(119.6 91.823)" cx="4.915" cy="4.316" rx="4.915" ry="4.316"/>
<g class="g" transform="translate(-8.82)">
<path class="b" transform="translate(9 73.21)" d="M23.084,0C35.834,0,46.169,9.076,46.169,20.272S35.834,40.543,23.084,40.543,0,31.468,0,20.272,10.335,0,23.084,0Z"/>
</g>
<ellipse class="d" transform="translate(17.605 88.51)" cx="5.658" cy="4.969" rx="5.658" ry="4.969"/>
<path class="b" transform="translate(-592.15 -338.33)" d="M682.92,390.537l-4.233-10.1a4.144,4.144,0,0,1,2.883-5.482l12.136-3.923c4.434-1.434,9.352.56,10.985,4.454a6.663,6.663,0,0,1,.528,2.6,7.266,7.266,0,0,1-3.2,5.864,8.868,8.868,0,0,1-2.4,1.186Z"/>
<path class="a" transform="translate(-620.22 -338.68)" d="m733.11 378.43a7.074 7.074 0 0 1-3.137 5.742 10.477 10.477 0 0 1-6.923-5.036 8.358 8.358 0 0 1-0.1-7.894 9.273 9.273 0 0 1 7.038 1.46 7.059 7.059 0 0 1 3.122 5.728z"/>
<path class="a" transform="translate(0 67.258)" d="M4.991,0A5.165,5.165,0,0,1,9.982,5.322a5.165,5.165,0,0,1-4.991,5.322A5.165,5.165,0,0,1,0,5.322,5.165,5.165,0,0,1,4.991,0Z"/>
<path class="e" transform="translate(-379.1 -178.74)" d="m450.07 270.16h4.371l2.079-9.955h-6.451z"/>
<path class="f" transform="translate(-562.59 -465.42)" d="m632.44 555.59h8.608c3.03 0 5.486 2.157 5.485 4.817v0.156h-14.093z"/>
<path class="a" transform="translate(-520.46 -379.68)" d="M596.5,467.013c-.051,0-.1,0-.153-.006l-6.049-.387a1.647,1.647,0,0,1-1.208-.65,1.262,1.262,0,0,1-.15-1.237l8.1-15.971a.975.975,0,0,0-.07-.876,1.214,1.214,0,0,0-.788-.551c-3.807-.874-13.573-3.2-22.028-5.923-3.622-1.166-5.9-2.852-6.781-5.01a6.34,6.34,0,0,1,.628-5.548l.057-.085,7.956.635,8.625.644,18.9,8.9c3.284,1.56,4.653,5.073,3.144,8.072l-8.714,17.159A1.626,1.626,0,0,1,596.5,467.013Z"/>
<path class="c" transform="translate(48.178 4.746)" d="M8.756,0c4.836,0,8.756,3.443,8.756,7.689s-3.92,7.689-8.756,7.689S0,11.936,0,7.689,3.92,0,8.756,0Z"/>
<path class="e" transform="translate(-374.6 -180.8)" d="m443.07 273.16h4.371l2.08-9.955h-6.451z"/>
<path class="f" transform="translate(-558.09 -467.48)" d="m625.44 558.59h8.608c3.03 0 5.486 2.157 5.485 4.817v0.156h-14.093z"/>
<path class="a" transform="translate(-515.95 -381.74)" d="M589.5,470.013q-.076,0-.153-.006l-6.049-.387a1.647,1.647,0,0,1-1.208-.65,1.262,1.262,0,0,1-.15-1.237l8.1-15.971a.976.976,0,0,0-.07-.876,1.214,1.214,0,0,0-.788-.551c-3.807-.874-13.573-3.2-22.028-5.923-3.622-1.166-5.9-2.852-6.78-5.01a6.34,6.34,0,0,1,.628-5.548l.057-.085,7.956.635,8.625.644,18.9,8.9c3.284,1.56,4.653,5.073,3.144,8.072l-8.714,17.159A1.627,1.627,0,0,1,589.5,470.013Z"/>
<path class="a" transform="translate(-518.08 -315.13)" d="m577.72 339.61-9.269-2.818s-5.819 3.926-3.023 13.665a21.377 21.377 0 0 1-1.212 15.128 14.812 14.812 0 0 1-0.934 1.732s10.339 10.958 19.965 2.818l-3.743-15.81s5.881-10.489-1.784-14.715z"/>
<path class="e" transform="translate(-515.96 -267.58)" d="M573.98,287.972c-1.246-1.638-2.23-3.91-.858-5.468,1.354-1.539,4.026-1.312,6.1-1.993a5.951,5.951,0,0,0,4.042-6.6c-.523-2.669-2.963-4.882-5.87-5.788a14.35,14.35,0,0,0-9.032.432,13.037,13.037,0,0,0-7.771,6.912,8.462,8.462,0,0,0,2.028,9.339c2.8,2.592,7.2,3.282,11.274,3.241"/>
<path class="e" transform="translate(-453.43 -272.46)" d="M503.307,278.876c-1.57,1.123-3.966.624-5.652-.361s-3.054-2.388-4.877-3.161c-3.216-1.362-7.1-.457-10.233,1.052s-5.9,3.593-9.209,4.776-7.524,1.242-10.027-.993a7.473,7.473,0,0,0,2.918,8.9,10.216,10.216,0,0,0,10.527.606c3.622-1.937,5.623-6,9.685-7.069,2.248-.592,4.662-.115,6.934.4s4.641,1.074,6.934.635,4.438-2.249,4.146-4.294Z"/>
<path class="e" transform="translate(-543.66 -335.88)" d="m643.13 375.11a3.729 3.729 0 0 0-2.458-1.855 4.276 4.276 0 0 0-3.2 0.464l-34.036-6.708-0.423 7.3 33.59 4.3a4.218 4.218 0 0 0 5.034 0.794 3.172 3.172 0 0 0 1.493-4.295z"/>
<path class="a" transform="translate(-526.29 -331.42)" d="M592.046,363.221l-2.078,7.395a1.561,1.561,0,0,1-.889.983,1.934,1.934,0,0,1-1.429.051l-8-2.88c-2.555-.561-4.109-2.834-3.471-5.078a4.847,4.847,0,0,1,5.783-3.048l8.581.715a1.778,1.778,0,0,1,1.238.629A1.361,1.361,0,0,1,592.046,363.221Z"/>
<path class="c" transform="translate(93.051 40.647)" d="M2.5,0a2.358,2.358,0,0,1,2.5,2.192A2.358,2.358,0,0,1,2.5,4.383,2.358,2.358,0,0,1,0,2.192,2.358,2.358,0,0,1,2.5,0Z"/>
</g>
</svg>
