<?xml version="1.0" encoding="UTF-8"?>
<svg enable-background="new 0 0 330 330" version="1.1" viewBox="0 0 330 330" xml:space="preserve" xmlns="http://www.w3.org/2000/svg">

	<circle cx="160" cy="170" r="160" fill="#0052B4"/>
	<path d="m160 10c88.365 0 160 71.634 160 160s-71.635 160-160 160" fill="#006DF0"/>
	<circle cx="160" cy="170" r="120" fill="#FFDA44"/>
	<circle cx="160" cy="170" r="80" fill="#0052B4"/>
	<path d="m160 90c44.183 0 80 35.817 80 80s-35.817 80-80 80" fill="#006DF0"/>
	<circle cx="160" cy="170" r="40" fill="#FFDA44"/>
	
		<path d="m241.61 67.175-88.388 88.389c-5.857 5.857-5.857 15.355 0 21.213s15.355 5.858 21.214 0l51.738-51.736 28.619-28.62 8.032-8.031-21.215-21.215z" fill="#fff"/>
		<polygon points="241.61 67.175 238.08 91.924 280.5 49.497 287.57 0 249.92 37.649 245.15 42.427" fill="#FF5023"/>
		<polygon points="238.08 91.924 262.82 88.389 287.57 84.853 292.35 80.075 330 42.427 280.5 49.497" fill="#FF9811"/>
	
</svg>
