<?xml version="1.0" encoding="UTF-8"?>
<svg viewBox="0 0 287.1 291.33" xmlns="http://www.w3.org/2000/svg">
<defs>
<style>.a{fill:#fbb80f;}.b{fill:#309fab;}.c{fill:#e72e7a;}.d{fill:#b1d0cf;}.e{fill:#fff;}.f{fill:#d46041;}.g{filter:url(#s);}.h{filter:url(#t);}.i{filter:url(#u);}.j{filter:url(#v);}.k{filter:url(#w);}.l{filter:url(#x);}.m{filter:url(#b);}.n{filter:url(#d);}.o{filter:url(#f);}.p{filter:url(#h);}.q{filter:url(#j);}.r{filter:url(#l);}.s{filter:url(#m);}.t{filter:url(#n);}.u{filter:url(#o);}.v{filter:url(#p);}.w{filter:url(#q);}.x{filter:url(#r);}.y{filter:url(#y);}</style>
<filter id="y" x="221.17" y="0" width="65.914" height="45.308" filterUnits="userSpaceOnUse">
<feOffset dy="3" input="SourceAlpha"/>
<feGaussianBlur result="b" stdDeviation="3"/>
<feFlood flood-opacity=".161"/>
<feComposite in2="b" operator="in"/>
<feComposite in="SourceGraphic"/>
</filter>
<filter id="r" x="82.235" y=".386" width="62.671" height="79.964" filterUnits="userSpaceOnUse">
<feOffset dy="3" input="SourceAlpha"/>
<feGaussianBlur result="d" stdDeviation="3"/>
<feFlood flood-opacity=".161"/>
<feComposite in2="d" operator="in"/>
<feComposite in="SourceGraphic"/>
</filter>
<filter id="q" x="139.17" y="12.577" width="31.359" height="67.934" filterUnits="userSpaceOnUse">
<feOffset dy="3" input="SourceAlpha"/>
<feGaussianBlur result="f" stdDeviation="3"/>
<feFlood flood-opacity=".161"/>
<feComposite in2="f" operator="in"/>
<feComposite in="SourceGraphic"/>
</filter>
<filter id="p" x="0" y="71.618" width="29.353" height="70.742" filterUnits="userSpaceOnUse">
<feOffset dy="3" input="SourceAlpha"/>
<feGaussianBlur result="h" stdDeviation="3"/>
<feFlood flood-opacity=".161"/>
<feComposite in2="h" operator="in"/>
<feComposite in="SourceGraphic"/>
</filter>
<filter id="o" x="48.525" y="71.625" width="51.028" height="26.298" filterUnits="userSpaceOnUse">
<feOffset dy="3" input="SourceAlpha"/>
<feGaussianBlur result="j" stdDeviation="3"/>
<feFlood flood-opacity=".161"/>
<feComposite in2="j" operator="in"/>
<feComposite in="SourceGraphic"/>
</filter>
<filter id="n" x="91.802" y="71.629" width="56.193" height="70.788" filterUnits="userSpaceOnUse">
<feOffset dy="3" input="SourceAlpha"/>
<feGaussianBlur result="l" stdDeviation="3"/>
<feFlood flood-opacity=".161"/>
<feComposite in2="l" operator="in"/>
<feComposite in="SourceGraphic"/>
</filter>
<filter id="m" x="190.62" y="94.255" width="51.411" height="48.107" filterUnits="userSpaceOnUse">
<feOffset dy="3" input="SourceAlpha"/>
<feGaussianBlur result="n" stdDeviation="3"/>
<feFlood flood-opacity=".161"/>
<feComposite in2="n" operator="in"/>
<feComposite in="SourceGraphic"/>
</filter>
<filter id="l" x=".023" y=".407" width="62.621" height="79.959" filterUnits="userSpaceOnUse">
<feOffset dy="3" input="SourceAlpha"/>
<feGaussianBlur result="p" stdDeviation="3"/>
<feFlood flood-opacity=".161"/>
<feComposite in2="p" operator="in"/>
<feComposite in="SourceGraphic"/>
</filter>
<filter id="j" x="57.226" y="12.787" width="30.714" height="67.562" filterUnits="userSpaceOnUse">
<feOffset dy="3" input="SourceAlpha"/>
<feGaussianBlur result="r" stdDeviation="3"/>
<feFlood flood-opacity=".161"/>
<feComposite in2="r" operator="in"/>
<feComposite in="SourceGraphic"/>
</filter>
<filter id="h" x="221.58" y="30.488" width="65.517" height="50.076" filterUnits="userSpaceOnUse">
<feOffset dy="3" input="SourceAlpha"/>
<feGaussianBlur result="t" stdDeviation="3"/>
<feFlood flood-opacity=".161"/>
<feComposite in2="t" operator="in"/>
<feComposite in="SourceGraphic"/>
</filter>
<filter id="f" x="140.25" y="71.678" width="57.967" height="70.517" filterUnits="userSpaceOnUse">
<feOffset dy="3" input="SourceAlpha"/>
<feGaussianBlur result="v" stdDeviation="3"/>
<feFlood flood-opacity=".161"/>
<feComposite in2="v" operator="in"/>
<feComposite in="SourceGraphic"/>
</filter>
<filter id="d" x="48.294" y="94.254" width="51.253" height="48.107" filterUnits="userSpaceOnUse">
<feOffset dy="3" input="SourceAlpha"/>
<feGaussianBlur result="x" stdDeviation="3"/>
<feFlood flood-opacity=".161"/>
<feComposite in2="x" operator="in"/>
<feComposite in="SourceGraphic"/>
</filter>
<filter id="b" x="164.54" y=".224" width="62.911" height="80.142" filterUnits="userSpaceOnUse">
<feOffset dy="3" input="SourceAlpha"/>
<feGaussianBlur result="z" stdDeviation="3"/>
<feFlood flood-opacity=".161"/>
<feComposite in2="z" operator="in"/>
<feComposite in="SourceGraphic"/>
</filter>
<filter id="x" x="26.696" y="71.626" width="29.658" height="70.955" filterUnits="userSpaceOnUse">
<feOffset dy="3" input="SourceAlpha"/>
<feGaussianBlur result="ab" stdDeviation="3"/>
<feFlood flood-opacity=".161"/>
<feComposite in2="ab" operator="in"/>
<feComposite in="SourceGraphic"/>
</filter>
<filter id="w" x="228.58" y="71.628" width="58.042" height="70.788" filterUnits="userSpaceOnUse">
<feOffset dy="3" input="SourceAlpha"/>
<feGaussianBlur result="ad" stdDeviation="3"/>
<feFlood flood-opacity=".161"/>
<feComposite in2="ad" operator="in"/>
<feComposite in="SourceGraphic"/>
</filter>
<filter id="v" x="190.86" y="71.789" width="51.076" height="25.755" filterUnits="userSpaceOnUse">
<feOffset dy="3" input="SourceAlpha"/>
<feGaussianBlur result="af" stdDeviation="3"/>
<feFlood flood-opacity=".161"/>
<feComposite in2="af" operator="in"/>
<feComposite in="SourceGraphic"/>
</filter>
<filter id="u" x="64.143" y="205.02" width="135.75" height="77.234" filterUnits="userSpaceOnUse">
<feOffset dy="3" input="SourceAlpha"/>
<feGaussianBlur result="ah" stdDeviation="3"/>
<feFlood flood-opacity=".161"/>
<feComposite in2="ah" operator="in"/>
<feComposite in="SourceGraphic"/>
</filter>
<filter id="t" x="166.73" y="238.11" width="58.108" height="53.221" filterUnits="userSpaceOnUse">
<feOffset dy="3" input="SourceAlpha"/>
<feGaussianBlur result="aj" stdDeviation="3"/>
<feFlood flood-opacity=".161"/>
<feComposite in2="aj" operator="in"/>
<feComposite in="SourceGraphic"/>
</filter>
<filter id="s" x="62.445" y="232.79" width="64.169" height="58.543" filterUnits="userSpaceOnUse">
<feOffset dy="3" input="SourceAlpha"/>
<feGaussianBlur result="al" stdDeviation="3"/>
<feFlood flood-opacity=".161"/>
<feComposite in2="al" operator="in"/>
<feComposite in="SourceGraphic"/>
</filter>
</defs>
<g transform="translate(9 6)">
<g class="y" transform="translate(-9 -6)">
<path class="a" transform="translate(-2933.8 -99.91)" d="M3187.053,105.937c.447-.05.9-.011,1.357-.024.545-.029,1.076.092,1.624.055a29.15,29.15,0,0,1,5.116.749,28.173,28.173,0,0,1,6.463,2.32,22.589,22.589,0,0,1,3.171,1.917,10.3,10.3,0,0,1,.94.7,17.889,17.889,0,0,1,3.719,3.942,18.46,18.46,0,0,1,1.817,3.541,5.145,5.145,0,0,1,.3,1.6,3.216,3.216,0,0,1,.071.884c.077.4.124.8.172,1.2a4.353,4.353,0,0,1,.054,1.058,4.078,4.078,0,0,1-1.909,2.979,7.094,7.094,0,0,1-1.652.915,8.4,8.4,0,0,1-2.29.765,9.1,9.1,0,0,1-1.943.094,5.941,5.941,0,0,1-4.891-2.65c-.634-1.222-.48-2.544-.813-3.807a7.811,7.811,0,0,0-1.694-3.188,9.118,9.118,0,0,0-3.089-2.3,11.769,11.769,0,0,0-3.647-.973,13.857,13.857,0,0,0-2.854-.085,12.45,12.45,0,0,0-4.409.982,11.41,11.41,0,0,0-3.265,2.125,5.958,5.958,0,0,0-1.656,2.555,4.553,4.553,0,0,0-.139,1.6q0,2.169,0,4.339a5.261,5.261,0,0,1-1.327,3.834,7.716,7.716,0,0,1-3.565,1.911,7.417,7.417,0,0,1-2.88.173,8.8,8.8,0,0,1-2.2-.627,5.764,5.764,0,0,1-3.591-3.925,6.858,6.858,0,0,0-.082-1.368c-.012-.842,0-1.684,0-2.526a2.143,2.143,0,0,1,.057-.728c.064-.37-.032-.747.051-1.116.206-1.187.4-2.377.721-3.553a10.77,10.77,0,0,1,1.587-3.373,23.9,23.9,0,0,1,4.012-4.229,25.179,25.179,0,0,1,5.713-3.347,27.1,27.1,0,0,1,9.735-2.353C3186.232,105.932,3186.651,106.007,3187.053,105.937Z"/>
</g>
<g class="x" transform="translate(-9 -6)">
<path class="a" transform="translate(-1271.7 -106.55)" d="M1368.745,112.962c.68-.051,1.367-.008,2.05-.022h15.816c.758.071,1.526.082,2.28.187a28,28,0,0,1,9.074,2.547,19.977,19.977,0,0,1,3.553,2.084,17.8,17.8,0,0,1,5.038,5.75,8.4,8.4,0,0,1,.887,2.336c.086.327.067.662.148.99q0,16.727,0,33.453a2.885,2.885,0,0,0-.079.659,14.967,14.967,0,0,1-1.088,3.452,10.117,10.117,0,0,1-1.672,2.655,18.379,18.379,0,0,1-2.637,2.571c-.5.414-1.075.773-1.6,1.168a23.884,23.884,0,0,1-2.673,1.5,26.544,26.544,0,0,1-9.384,2.544c-.312-.009-.611.057-.92.061q-11.457,0-22.914,0a4.489,4.489,0,0,1-1.206-.073.955.955,0,0,1-.393-.331c-.05-.186.005-.378-.054-.562a2.6,2.6,0,0,1-.045-.737q0-27.106,0-54.212a7.723,7.723,0,0,1,.071-1.594,3.876,3.876,0,0,1,1.377-2.757,3.4,3.4,0,0,1,.677-.508,7.856,7.856,0,0,1,3.693-1.161m9.8,9.448c-.351.064-.718,0-1.068.061a2.89,2.89,0,0,0-1.1.319,2.38,2.38,0,0,0-.1.474q0,20.543,0,41.087a1,1,0,0,0,.214.837,4.273,4.273,0,0,0,1.409.258c2.674.008,5.348,0,8.022,0,.455-.045.915-.062,1.368-.123a11.037,11.037,0,0,0,3.227-1.053,8.3,8.3,0,0,0,2.671-2.053,6.7,6.7,0,0,0,1-1.811,5.178,5.178,0,0,0,.292-1.715v-27.9a3.738,3.738,0,0,0,.079-.546,3.983,3.983,0,0,0-.059-1,5.779,5.779,0,0,0-1.936-4.278c-.26-.27-.606-.486-.881-.746-.38-.2-.7-.461-1.092-.65a9.958,9.958,0,0,0-2.31-.883,9.482,9.482,0,0,0-2.124-.247,8.775,8.775,0,0,0-1.323-.048c-.285,0-.558.073-.843.058-1.027-.009-2.053.01-3.079-.009a9.265,9.265,0,0,0-1.4-.047A8.409,8.409,0,0,0,1378.541,122.411Z"/>
</g>
<g class="w" transform="translate(-9 -6)">
<path class="a" transform="translate(-1952.8 -316.32)" d="M2106.922,334.93a8.47,8.47,0,0,1,1.853.047,7.637,7.637,0,0,1,2.8.864,8.4,8.4,0,0,1,.881.526,4.622,4.622,0,0,1,1.672,2.105,11.2,11.2,0,0,1,.16,2.744,2.786,2.786,0,0,1-.078.712q-.006,21.448,0,42.9-6.592,0-13.186,0c-.005-2.252,0-4.5,0-6.756,0-.148-.078-.289-.075-.436q0-10.328,0-20.656c-.022-.2.086-.4.081-.6q0-4.285,0-8.571a4.262,4.262,0,0,0-.073-1.155c-.009-2.2,0-4.394,0-6.59a3.188,3.188,0,0,1,.064-.94,3.63,3.63,0,0,1,.408-1.415,3.893,3.893,0,0,1,1.244-1.367A7.967,7.967,0,0,1,2106.922,334.93Z"/>
</g>
<path class="a" transform="translate(-296.9 -377.17)" d="M302.5,392.961c.552-.047,1.112-.012,1.668-.021a7.429,7.429,0,0,1,2.709.651,12.147,12.147,0,0,1,1.668,1.01,2.839,2.839,0,0,1,1.408,2.294,5.485,5.485,0,0,1-.279,2.438,3.757,3.757,0,0,1-1.186,1.352,3.1,3.1,0,0,1-.675.454,7.52,7.52,0,0,1-3.339,1.082c-.665,0-1.331.008-2,0a7.547,7.547,0,0,1-2.754-.841,9.929,9.929,0,0,1-1.361-.9,7.549,7.549,0,0,1-.91-.944,3.008,3.008,0,0,1-.538-1.869,2.965,2.965,0,0,1,.489-1.9,6.675,6.675,0,0,1,4.436-2.717C302.049,392.991,302.276,392.994,302.5,392.961Z"/>
<g class="v" transform="translate(-9 -6)">
<path class="a" transform="translate(-287.9 -1332.2)" d="M301.871,1409.83a6.886,6.886,0,0,1,4.127.974,4.014,4.014,0,0,1,2.06,2.6c.095.337.12.679.185,1.019q0,21.807,0,43.613a4.721,4.721,0,0,1-1.979,3.809,1.193,1.193,0,0,1-.61.389,19.3,19.3,0,0,1-2.2.3c-.617.009-1.234,0-1.851,0a5.127,5.127,0,0,1-2.766-.832,4.069,4.069,0,0,1-.833-.616,2.879,2.879,0,0,1-.974-1.615c-.1-.265-.008-.542-.1-.807a2.346,2.346,0,0,1,.044-1.019q0-21.093,0-42.187a3.464,3.464,0,0,1-.056-1.192,4.2,4.2,0,0,0,.066-.942,3.146,3.146,0,0,1,1.017-1.747,7.655,7.655,0,0,1,3.128-1.618A5.4,5.4,0,0,1,301.871,1409.83Z"/>
</g>
<g class="u" transform="translate(-9 -6)">
<path class="a" transform="translate(-868.41 -1332.3)" d="M930.52,1409.96c.68-.048,1.369-.007,2.053-.02h20.288a9.254,9.254,0,0,1,1.538.057,6.538,6.538,0,0,1,3.977,2.114,2.228,2.228,0,0,1,.579,1.893,2.515,2.515,0,0,1-.461,1.759,6.38,6.38,0,0,1-1.687,1.435,7.844,7.844,0,0,1-1.687.722,11.217,11.217,0,0,1-2.567.148H934.039a6.731,6.731,0,0,0-1.168.047c-.405.063-.821.062-1.227.116a6.3,6.3,0,0,1-1.937-.32,5.593,5.593,0,0,1-3.608-2.54c-.114-.186-.065-.391-.1-.585a3.9,3.9,0,0,1-.056-1,3.048,3.048,0,0,1,.2-1.284,3.524,3.524,0,0,1,1.439-1.448A7.384,7.384,0,0,1,930.52,1409.96Z"/>
</g>
<g class="t" transform="translate(-9 -6)">
<path class="a" transform="translate(-1386.1 -1332.4)" d="M1487.823,1411.945a6.537,6.537,0,0,1,4.362-1.945h15.433c.476.047.958.063,1.431.132.978.162,1.943.359,2.9.569a16.924,16.924,0,0,1,1.81.47c.676.25,1.38.464,2.027.753a20.323,20.323,0,0,1,3.188,1.685c.618.457,1.29.879,1.85,1.374a14.933,14.933,0,0,1,1.857,1.864c.348.39.6.817.9,1.225a6.965,6.965,0,0,1,.839,1.6,8.075,8.075,0,0,1,.7,1.916c.007,3.679,0,7.359,0,11.039a1.75,1.75,0,0,1-.056.619,13.209,13.209,0,0,1-4.321,6.536,18.837,18.837,0,0,1-1.624,1.206,9.655,9.655,0,0,0-1.078.714c-.19.124-.407.271-.382.471a3.206,3.206,0,0,1,.074.547c.139.556.389,1.094.541,1.648.193.606.439,1.2.617,1.813,1.817,5.2,3.9,10.345,5.7,15.546a4.805,4.805,0,0,1,.3,1c-3.8.008-7.6,0-11.4,0-2.05-5.04-3.748-10.147-5.656-15.214-.356-.973-.755-1.938-1.105-2.911q-4.152,0-8.3,0-.008,6.288,0,12.577a2.546,2.546,0,0,1-.056.783,5.845,5.845,0,0,1-.793,2.787,4.569,4.569,0,0,1-2.312,1.7,5.6,5.6,0,0,1-1.47.269c-.364-.009-.714.075-1.075.062a8.861,8.861,0,0,1-3.845-.781,2.184,2.184,0,0,1-.65-.472,3.282,3.282,0,0,1-1.136-1.717q-.007-11.095,0-22.19c-.036-.349.123-.687.081-1.036a3.236,3.236,0,0,1,1.386-.229q8.138,0,16.277,0c.9-.019,1.807.048,2.7-.054a4.781,4.781,0,0,0,1.085-.054c2.594-.656,4.614-2.354,5.091-4.285a3.477,3.477,0,0,0,.075-1.045c0-2.6.005-5.2,0-7.8-.373-2.217-2.74-4.174-5.736-4.812a7.564,7.564,0,0,0-1.513-.188,4.01,4.01,0,0,0-.848,0q-2.583.011-5.166,0a11.67,11.67,0,0,0-1.621-.052c-.695,0-1.39,0-2.084,0-.39-.017-.765.084-1.155.058a24.24,24.24,0,0,0-2.471.051c-.435.005-.87.008-1.3,0a7.415,7.415,0,0,1-3.764-1.6,3.453,3.453,0,0,1-.964-1.344,2.368,2.368,0,0,1-.218-.834c.012-.29-.021-.58.019-.868A3.73,3.73,0,0,1,1487.823,1411.945Z"/>
</g>
<path class="a" transform="translate(-2146.3 -1726.7)" d="M2305.7,1820.921a7.162,7.162,0,0,1,1.508.031c.444-.028.873.079,1.317.056a2.22,2.22,0,0,1,1.093.318,9.163,9.163,0,0,1,1.084.6,6.9,6.9,0,0,1,.97.9,3.025,3.025,0,0,1,.554.977c.166.364,0,.754.121,1.124a1.547,1.547,0,0,1-.078.833,3.581,3.581,0,0,1-1.124,1.617,5.608,5.608,0,0,1-2.4,1.257,6.469,6.469,0,0,1-1.766.225,8.761,8.761,0,0,1-1.255-.04,6.19,6.19,0,0,1-3.776-1.706,4.337,4.337,0,0,1-1.034-1.791,3.286,3.286,0,0,1,1.412-3.018,6.494,6.494,0,0,1,1.524-1A5.466,5.466,0,0,1,2305.7,1820.921Z"/>
<g class="s" transform="translate(-9 -6)">
<path class="a" transform="translate(-2568.3 -1721.7)" d="M2772.385,1821.995a13.665,13.665,0,0,1,1.92-.06q8.447,0,16.894,0a6.288,6.288,0,0,1,2.638.539,4.238,4.238,0,0,1,2.476,2.523,3.649,3.649,0,0,1,.054.949,3.4,3.4,0,0,1-2.143,3.033,6.73,6.73,0,0,1-2.794.758c-.261-.007-.51.06-.768.055q-4.978,0-9.957,0a8.038,8.038,0,0,1-1.071.055,2.154,2.154,0,0,0-.339,1.028,2.561,2.561,0,0,0-.054.784c0,.9,0,1.795,0,2.692-.025.277.118.544.081.823a10.273,10.273,0,0,1-.078,1.866c0,1.649,0,3.3,0,4.947-.011.183.089.36.08.545,0,.6-.005,1.207,0,1.811.44-.023.868.08,1.309.06q8.177,0,16.355,0a6.475,6.475,0,0,1,.82.019,3.032,3.032,0,0,1,1.486.757,6.542,6.542,0,0,1,1.542,1.7,2.651,2.651,0,0,1,.465,1.525,4.636,4.636,0,0,1-2.059,2.82,5.617,5.617,0,0,1-2.561.811q-13.888,0-27.777,0a1.225,1.225,0,0,1-.63-.155.935.935,0,0,1-.292-.5q0-11.838,0-23.676a1.933,1.933,0,0,1-.056-.809,3.176,3.176,0,0,0,.061-.836,4.36,4.36,0,0,1,.792-2.016A5.279,5.279,0,0,1,2772.385,1821.995Z"/>
</g>
<g transform="translate(.023 .028)">
<path class="b" transform="translate(-1958.3 -106.42)" d="M2103,106.479c3.392-.423,6.941,1.362,7.633,3.747a5.993,5.993,0,0,1,.13,1.44,3.634,3.634,0,0,1-1.549,2.855,8.718,8.718,0,0,1-6.483,1.659,7.211,7.211,0,0,1-5.242-3.463,2.571,2.571,0,0,1-.249-2.116,5.105,5.105,0,0,1,.592-1.167A7.32,7.32,0,0,1,2103,106.479Z"/>
<g class="r" transform="translate(-9.02 -6.03)">
<path class="b" transform="translate(-288.18 -106.91)" d="M297.709,116.2c.933-1.78,3.607-2.988,6.262-2.879q7.445.01,14.89,0c.952,0,1.9.008,2.857.024a27.976,27.976,0,0,1,11.358,3.176,19.309,19.309,0,0,1,4.665,3.431,14.114,14.114,0,0,1,3.679,5.786,6.384,6.384,0,0,1,.275,2.166c.047,1.245-.006,2.491.035,3.737-.032,2.178-.008,4.356-.015,6.535-.008.6.015,1.208-.011,1.813a9.062,9.062,0,0,1-1.122,3.272,14.88,14.88,0,0,1-5.187,5.643,17.4,17.4,0,0,0-2.052,1.45.916.916,0,0,0-.387.729,4.91,4.91,0,0,0,.411,1.428c1.861,4.792,3.566,9.613,5.36,14.417.343.98.817,1.934,1.155,2.916.636,1.746,1.186,3.509,1.939,5.232a19.38,19.38,0,0,1-2.435.169c-1.956.026-3.912-.018-5.868-.008-1.234.005-2.469-.014-3.7.014-.457,0-.914.009-1.37-.008-1.286-3.071-2.2-6.217-3.568-9.27-.188-.45-.44-.887-.594-1.343q-1.455-3.96-2.921-7.918c-.358-.935-.669-1.88-1.053-2.809q-4.947-.035-9.9,0,0,8.147,0,16.293a4.8,4.8,0,0,1-.133,1.417,4.033,4.033,0,0,1-1.995,2.477,7.457,7.457,0,0,1-2.907,1.065,9.813,9.813,0,0,1-5.36-.66,5.2,5.2,0,0,1-2.205-1.731,3.435,3.435,0,0,1-.592-1.8V148.121a29.31,29.31,0,0,1,.036-2.968c.028-.143.013-.315.189-.415a2.579,2.579,0,0,1,1.356-.243c1.749.007,3.5-.013,5.246.015h13.731a19.167,19.167,0,0,0,3.85-.294,10.792,10.792,0,0,0,4.1-1.577,6.211,6.211,0,0,0,3.034-4.625c.03-1.207.037-2.415,0-3.622,0-1.136,0-2.273,0-3.409a8,8,0,0,0-.892-4.719,6.118,6.118,0,0,0-1.541-1.538,10.085,10.085,0,0,0-4.369-2,17.29,17.29,0,0,0-3.035-.133c-4.345-.041-8.691.016-13.037,0a23.54,23.54,0,0,1-2.988-.088,8.114,8.114,0,0,1-4.527-2.044,2.912,2.912,0,0,1-.75-1.066,4.627,4.627,0,0,1-.141-2.308A2.36,2.36,0,0,1,297.709,116.2Z"/>
</g>
<g class="q" transform="translate(-9.02 -6.03)">
<path class="b" transform="translate(-972.49 -319.92)" d="M1042.568,338.974a9.448,9.448,0,0,1,2.8-.262c3-.009,5.753,1.789,6.044,3.907.034.512,0,1.025.015,1.539,0,1.593.008,3.186-.019,4.779.008,2.856-.019,5.713.02,8.569q0,9.392,0,18.785c-.008,1.336.019,2.673-.02,4.009q0,2.445,0,4.889c-.043,1.024,0,2.048-.024,3.073-.872.007-1.746.009-2.618-.01-1.209,0-2.418,0-3.626,0-2.129.033-4.258-.01-6.387,0-.037-1.659-.005-3.32-.016-4.98.015-1.209-.031-2.417-.018-3.625V344.432c.005-.714-.011-1.429.007-2.143a3.327,3.327,0,0,1,1.717-2.245A7.272,7.272,0,0,1,1042.568,338.974Z"/>
</g>
<path class="b" transform="translate(-1467.5 -562.84)" d="m1572.1 589.37c2.564-6e-3 5.136 1.048 6.266 2.706a3.681 3.681 0 0 1 0.431 2 5.731 5.731 0 0 1-0.092 1.414 4.567 4.567 0 0 1-2.615 2.646 9.12 9.12 0 0 1-5.828 0.644 10.417 10.417 0 0 1-1.906-0.676 5.128 5.128 0 0 1-3.034-3.752 3.848 3.848 0 0 1 1.145-2.683 7.893 7.893 0 0 1 5.633-2.299z"/>
<g class="p" transform="translate(-9.02 -6.03)">
<path class="b" transform="translate(-2938.7 -624.5)" d="M3193.2,661.274a4.456,4.456,0,0,1,1.516-.285c1.193-.044,2.365.174,3.556.174h12.651c1.594.063,3.2-.368,4.776-.068a1.547,1.547,0,0,1,.906.4,1.7,1.7,0,0,1,.2.971c.012,1.263-.034,2.525-.017,3.789,0,3.132.007,6.264-.005,9.4a34.023,34.023,0,0,1-.573,4.2,10.516,10.516,0,0,1-1.043,2.33,21.056,21.056,0,0,1-10.013,8.469,32.6,32.6,0,0,1-7.757,2.17c-.375.058-.746.13-1.125.16-1.951.12-3.91.069-5.864.031a16.672,16.672,0,0,1-2.158-.229,27.031,27.031,0,0,1-11.224-4.1c-.5-.361-1.039-.688-1.516-1.061a16.283,16.283,0,0,1-6.2-8.971,3.442,3.442,0,0,1,1.2-2.84,8.892,8.892,0,0,1,5.1-2.189,7.654,7.654,0,0,1,3.568.512,5.832,5.832,0,0,1,2.7,1.917c.751,1.039,1.181,2.175,1.875,3.232a7.942,7.942,0,0,0,1.7,1.859,12.3,12.3,0,0,0,7.879,2.261,13.308,13.308,0,0,0,6.931-2.223,6.471,6.471,0,0,0,2.016-1.968,6.971,6.971,0,0,0,1.044-3.09c.064-.561.032-1.124.04-1.687,0-.861,0-1.721,0-2.581-.008-.418.048-.835.009-1.253-3.467-.141-6.946.084-10.407-.153-.077-2.168.17-4.338-.012-6.5a6.437,6.437,0,0,1-.062-1.867A1.966,1.966,0,0,1,3193.2,661.274Z"/>
</g>
<path class="b" transform="translate(-2263.6 -1018.7)" d="m2433.9 1071.8a7.912 7.912 0 0 1 6.814 2.57 3.3 3.3 0 0 1 0.694 2.771c-0.411 1.989-2.741 3.678-5.51 4.044a8.533 8.533 0 0 1-4.054-0.451 6.692 6.692 0 0 1-3.073-2.2 3.121 3.121 0 0 1-0.594-2.959c0.65-1.9 2.935-3.548 5.723-3.775z"/>
<g class="o" transform="translate(-9.02 -6.03)">
<path class="b" transform="translate(-1965.7 -1333.2)" d="M2134.453,1410.923a7.4,7.4,0,0,1,1.454.015,27.724,27.724,0,0,1,8.44,1.627,30.612,30.612,0,0,1,4.071,1.826,11.99,11.99,0,0,1,1.519,1.005c.354.316.711.634,1.023.973.487.568,1.021,1.116,1.47,1.7a12.639,12.639,0,0,1,1.827,2.873,6.78,6.78,0,0,1,.6,1.931,6.462,6.462,0,0,0,.086.765q0,12.964,0,25.927a9.25,9.25,0,0,1-.069,1.7,7.785,7.785,0,0,1-1.3,3.806,14.375,14.375,0,0,1-2.077,2.641,15.767,15.767,0,0,1-3.288,2.656,15.155,15.155,0,0,1-3.094,1.587,25.763,25.763,0,0,1-6.451,1.448q-3.281,0-6.56,0a9.67,9.67,0,0,1-1.325-.043,20.008,20.008,0,0,1-4.642-1.091,18.989,18.989,0,0,1-6.995-4.083,12.07,12.07,0,0,1-1.114-1.13,9.353,9.353,0,0,1-1.027-1.357,12.99,12.99,0,0,1-2.026-6.08q0-12.2,0-24.392a13.7,13.7,0,0,1,.973-4.138,11.714,11.714,0,0,1,1.983-3.148,14.511,14.511,0,0,1,2.119-2.062c.39-.254.667-.585,1.088-.817a6.1,6.1,0,0,0,.686-.446,23.517,23.517,0,0,1,3.948-1.969,21.7,21.7,0,0,1,4.743-1.29,39.556,39.556,0,0,1,3.934-.441m-.463,8.018a13.362,13.362,0,0,0-1.584.247,10.392,10.392,0,0,0-3.6,1.612,9.669,9.669,0,0,0-1.429,1.343,5.622,5.622,0,0,0-1.366,3.09v24.227a5.719,5.719,0,0,0,1.634,3.393,8.185,8.185,0,0,0,1.47,1.261,12.835,12.835,0,0,0,5.7,1.818,7.568,7.568,0,0,0,2.778-.48c.5-.163,1.07-.189,1.562-.372a13.021,13.021,0,0,0,1.454-.722c.306-.144.555-.339.848-.495a5.358,5.358,0,0,0,2.685-4.461q0-12.25,0-24.5a5.114,5.114,0,0,0-.341-1.348,6.473,6.473,0,0,0-2.3-2.7,7.537,7.537,0,0,0-1.369-.838,10.34,10.34,0,0,0-4.938-1.1C2134.792,1418.925,2134.387,1418.9,2133.99,1418.941Z"/>
</g>
<path class="b" transform="translate(-2580.2 -1533.9)" d="M2775.646,1616.931a11.371,11.371,0,0,1,1.49-.006,9.127,9.127,0,0,1,1.152.11,5.621,5.621,0,0,1,1.942.871,5.174,5.174,0,0,1,1.486,1.468,2.55,2.55,0,0,1,.049,2.848,4.705,4.705,0,0,1-1.273,1.4,5.855,5.855,0,0,1-3.339,1.029c-.339-.017-.665.064-1,.058a6.935,6.935,0,0,1-2.794-.648,3.882,3.882,0,0,1-2.3-2.651,3.17,3.17,0,0,1,.983-2.922,6.047,6.047,0,0,1,2.049-1.288A5.911,5.911,0,0,1,2775.646,1616.931Z"/>
<path class="b" transform="translate(-455.69 -1727.7)" d="M472.9,1821.927c.989-.051,1.986,0,2.979-.023a4.074,4.074,0,0,1,2.062.51,7.191,7.191,0,0,1,2,1.651,2.519,2.519,0,0,1,.33,1.135,4.943,4.943,0,0,1-.059,1.217c-.051.269.052.553-.1.812a4.189,4.189,0,0,1-.9,1.006,8.734,8.734,0,0,1-1.5.966,7.166,7.166,0,0,1-2.3.613,11.926,11.926,0,0,1-2.048-.077,6.227,6.227,0,0,1-3.592-1.945,5.421,5.421,0,0,1-.765-1.435,2.487,2.487,0,0,1-.076-.882,1.089,1.089,0,0,1,.207-.677c.137-.207.208-.43.337-.639a5.222,5.222,0,0,1,1.483-1.415A4.493,4.493,0,0,1,472.9,1821.927Z"/>
<g class="n" transform="translate(-9.02 -6.03)">
<path class="b" transform="translate(-865.64 -1721.7)" d="M925.729,1822.432a5.6,5.6,0,0,1,2.455-.506q8.409,0,16.817,0a16.8,16.8,0,0,1,2.152.06,5.274,5.274,0,0,1,2.574,1.023,3.391,3.391,0,0,1,1.386,1.6,2.6,2.6,0,0,1,.216.945,4,4,0,0,1-.076,1.1,4.237,4.237,0,0,1-2.989,2.707,10.98,10.98,0,0,1-1.947.373,15.622,15.622,0,0,1-1.856.049c-3.393,0-6.785,0-10.178,0-.025.509.022,1.019-.019,1.528a4.066,4.066,0,0,0-.062,1.051q0,5.383,0,10.768c-.01.2.076.4.079.6s0,.394,0,.593a8.234,8.234,0,0,0,1.538.068h15.891a4.457,4.457,0,0,1,1.074.059,4.55,4.55,0,0,1,1.572.695,4,4,0,0,1,.529.336,5.751,5.751,0,0,1,1.141,1.825,7.457,7.457,0,0,1,.158.821,3.38,3.38,0,0,1-.678,1.934,5.407,5.407,0,0,1-1.514,1.284,5.819,5.819,0,0,1-2.358.682H925.483a9.666,9.666,0,0,1-1.744-.075c-.214-.045-.524-.053-.6-.236a2.583,2.583,0,0,1-.205-.84q0-11.865,0-23.73a6.393,6.393,0,0,1,.13-1.279,4.366,4.366,0,0,1,1.4-2.633A6.209,6.209,0,0,1,925.729,1822.432Z"/>
</g>
<path class="b" transform="translate(-3207.6 -1932.8)" d="M3455.445,2038.943c.345-.04.7-.016,1.05-.022a6.865,6.865,0,0,1,3.194.749,3.984,3.984,0,0,1,2.331,2.68,5.606,5.606,0,0,1,.031.857,3.331,3.331,0,0,1-1.755,2.761,6.786,6.786,0,0,1-3.185,1.081c-.515.01-1.031,0-1.544,0a4.312,4.312,0,0,1-1.011-.157,6.615,6.615,0,0,1-2.17-.983,6.786,6.786,0,0,1-1.236-1.207,1.2,1.2,0,0,1-.158-.606,5.15,5.15,0,0,1-.049-1.113,5.246,5.246,0,0,1,.049-1.114,1.072,1.072,0,0,1,.184-.587,7.971,7.971,0,0,1,1.762-1.437A6.846,6.846,0,0,1,3455.445,2038.943Z"/>
</g>
<g transform="translate(26.696 .166)">
<path class="c" transform="translate(-1007.4 -108.93)" d="M1043.659,108.952a4.434,4.434,0,0,1,1.069.015,8.074,8.074,0,0,1,4.8,1.807,4.092,4.092,0,0,1,1.426,3.319,3.989,3.989,0,0,1-1.826,2.872,6.091,6.091,0,0,1-1.844.939,8.341,8.341,0,0,1-2.415.531,11.687,11.687,0,0,1-1.625-.053,7.4,7.4,0,0,1-4.527-2.161,2.8,2.8,0,0,1-.795-2.016,5.376,5.376,0,0,1,.258-2.288,4.874,4.874,0,0,1,1.352-1.51A7.878,7.878,0,0,1,1043.659,108.952Z"/>
<g class="m" transform="translate(-35.7 -6.17)">
<path class="c" transform="translate(-2256.4 -103.76)" d="M2461.454,109.99q6.631-.006,13.262,0c.01,1.19,0,2.38.005,3.569a9.726,9.726,0,0,1,.075,1.811v54.487a11.593,11.593,0,0,1-.073,1.976c-.009.091-.011.182-.011.274q-6.361.007-12.721,0c-.661,0-1.323-.012-1.982.019a16,16,0,0,1-2-.093c-.307-.024-.439-.243-.594-.4a6.017,6.017,0,0,1-.685-1.491c-.513-1.506-1.141-2.989-1.732-4.479-.509-1.231-.949-2.476-1.414-3.716-1.379-3.666-2.848-7.315-4.26-10.974-.536-1.367-1.016-2.745-1.552-4.112-.994-2.536-2.008-5.068-2.969-7.611a13.043,13.043,0,0,1-.754-2.593,2.538,2.538,0,0,0-.126-.689c-.2,0-.39,0-.583,0-.11.677-.226,1.353-.323,2.03a2.853,2.853,0,0,1-.059.785c-.076.234.057.463.057.7q0,7.829,0,15.658a3.977,3.977,0,0,1-1.584,2.5,4.391,4.391,0,0,1-.833.561,8.287,8.287,0,0,1-3.8,1.088,5.311,5.311,0,0,1-1.109-.03,9.648,9.648,0,0,1-2.191-.526,8.035,8.035,0,0,1-2.039-1.02,3.325,3.325,0,0,1-1.373-1.878,10.22,10.22,0,0,1-.184-1.075,6.761,6.761,0,0,1,.07-1.542,2.663,2.663,0,0,1-.04-1.073,3.169,3.169,0,0,0,.045-.792q0-16.4,0-32.791a2.44,2.44,0,0,0-.072-.716,5.332,5.332,0,0,1,.057-1.324,4.6,4.6,0,0,1,.913-2.539,8.829,8.829,0,0,1,1.9-1.836,11.3,11.3,0,0,1,6.229-1.995,2.972,2.972,0,0,1,.949-.011,12.624,12.624,0,0,1,5.4,1.268,7.374,7.374,0,0,1,2.864,2.465,13.7,13.7,0,0,1,1.612,3.413c2.774,7.3,5.676,14.565,8.494,21.852.468,1.28,1.028,2.544,1.4,3.842a8.87,8.87,0,0,0,.739,1.834,4.135,4.135,0,0,0,.916,1.123c.016-1.253,0-2.507.006-3.76,0-.184.08-.361.078-.545,0-3.608,0-7.216,0-10.824a8.088,8.088,0,0,1-.075-1.646q0-5.768,0-11.536a8.729,8.729,0,0,0,.075-1.7C2461.454,113.943,2461.447,111.967,2461.454,109.99Z"/>
</g>
<path class="c" transform="translate(-2970.4 -630.6)" d="M3171.019,660.949c.474-.043.956-.017,1.434-.018a8.388,8.388,0,0,1,2.679.672,9.383,9.383,0,0,1,1.309.717,6.165,6.165,0,0,1,1.39,1.373,3.214,3.214,0,0,1,.455,3.31,4.337,4.337,0,0,1-1.263,1.681,4.686,4.686,0,0,1-.718.533,8.536,8.536,0,0,1-4.695,1.32,9,9,0,0,1-4.226-1.274,5.137,5.137,0,0,1-2.414-3.5,4.72,4.72,0,0,1,1.76-3.142,6.8,6.8,0,0,1,1.763-1.053A9.731,9.731,0,0,1,3171.019,660.949Z"/>
<g class="l" transform="translate(-35.7 -6.17)">
<path class="c" transform="translate(-607.26 -1332.3)" d="M643.04,1410.177a1.3,1.3,0,0,1,.763-.234c3.442.007,6.885-.006,10.326.007.252.077.488.278.478.488q0,25.651,0,51.3c-.008.316.08.672-.227.938a.891.891,0,0,1-.7.217q-3.859,0-7.717,0a14.013,14.013,0,0,1-3.005-.284q-.012-23.943,0-47.886a3.554,3.554,0,0,1,.032-.746,3.1,3.1,0,0,0,.045-.792C643.039,1412.183,643.029,1411.18,643.04,1410.177Z"/>
</g>
<g class="k" transform="translate(-35.7 -6.17)">
<path class="c" transform="translate(-3022.4 -1332.4)" d="M3274.208,1410.662a26.982,26.982,0,0,1,4.362-.684c1.028.005,2.057-.007,3.086.005.453.064.922.03,1.372.118a39.356,39.356,0,0,1,5.214,1.122,19.182,19.182,0,0,1,2.369.895,22.705,22.705,0,0,1,3.526,1.939,16.926,16.926,0,0,1,4.415,4.381,3.6,3.6,0,0,1,.768,1.812c-.026.3.11.588.012.881a1.966,1.966,0,0,1-.531,1.494,5.722,5.722,0,0,1-2.306,1.324,3.635,3.635,0,0,1-1.179.264c-.483.068-.975.035-1.46.057a5.225,5.225,0,0,1-1.409,0,4.9,4.9,0,0,1-1.635-.324,7.307,7.307,0,0,1-1.306-.828,5.925,5.925,0,0,1-1-.936c-.478-.52-.9-1.069-1.439-1.557a7.624,7.624,0,0,1-.618-.494,9.05,9.05,0,0,0-.917-.61,8.086,8.086,0,0,0-3.49-1.248c-.97-.021-1.948.035-2.913-.038-.417.061-.849,0-1.261.083a9.059,9.059,0,0,0-2.47.824,11.389,11.389,0,0,0-1.666,1.011,9.416,9.416,0,0,0-.978.9,3.22,3.22,0,0,0-1.125,2.053c.029.3-.107.583-.079.88.015.38-.029.761.024,1.139.122.359-.035.74.164,1.09a7.454,7.454,0,0,0,1.905,2.049,4.349,4.349,0,0,0,.926.659,22.631,22.631,0,0,0,3.107,1.687c2.561,1.231,5.269,2.3,7.919,3.424a53.119,53.119,0,0,1,7.342,3.671c.213.16.479.278.7.437q.808.578,1.62,1.154a12.33,12.33,0,0,1,1.358,1.12,15.256,15.256,0,0,1,1.838,2.1,13.493,13.493,0,0,1,1.23,2.255,2.1,2.1,0,0,1,.262.857,2.6,2.6,0,0,0,.069.827c.015.969,0,1.939.006,2.909a9.339,9.339,0,0,1-.077,1.755,4.081,4.081,0,0,1-.479,1.858,15.293,15.293,0,0,1-4.785,5.656,17.983,17.983,0,0,1-1.767,1.1,26.515,26.515,0,0,1-6.151,2.485,15.6,15.6,0,0,1-2.1.426,7.179,7.179,0,0,0-.861.047c-.638.052-1.287-.035-1.918.061-.744.023-1.488,0-2.231.011-.312.008-.611-.067-.92-.058-.645,0-1.288,0-1.932,0a10,10,0,0,1-2.151-.281,24.65,24.65,0,0,1-6.927-2.483,14.679,14.679,0,0,1-2.8-1.9,19.339,19.339,0,0,1-2.609-2.7,11.41,11.41,0,0,1-1.847-3.408,3.3,3.3,0,0,1-.174-.922c0-.2-.091-.4-.076-.6,0-.586-.005-1.172,0-1.757.95-.007,1.9,0,2.851,0a13.373,13.373,0,0,0,1.7-.051q1.577-.012,3.158,0a13.332,13.332,0,0,0,1.7.051c.535,0,1.071,0,1.608,0a2.69,2.69,0,0,1,.144.618,5.188,5.188,0,0,0,.843,2.035,5.279,5.279,0,0,0,1.475,1.367,6.111,6.111,0,0,0,.6.451c.341.2.61.449.98.62a10.01,10.01,0,0,0,3.536,1.052c.411.07.835.044,1.249.1a5.747,5.747,0,0,0,.67-.037,7.269,7.269,0,0,0,1.559-.211,11.978,11.978,0,0,0,1.889-.469,8.655,8.655,0,0,0,3.526-2.378,4.658,4.658,0,0,0,1.181-2.287,2.674,2.674,0,0,0,.046-1.154,4.647,4.647,0,0,0-.5-1.737,6.888,6.888,0,0,0-1.48-1.691,8.332,8.332,0,0,0-1.218-.891,28.94,28.94,0,0,0-3.757-1.993c-4.917-2.214-10.173-4.086-14.656-6.757a15.478,15.478,0,0,1-1.5-.964,14.13,14.13,0,0,1-4.851-5.389,10.3,10.3,0,0,1-.994-3.576q0-1.074,0-2.146a9.368,9.368,0,0,1,1.172-3.671,15.1,15.1,0,0,1,2.411-3.335c.4-.375.782-.757,1.216-1.111a17.389,17.389,0,0,1,1.432-1.068,13.478,13.478,0,0,1,1.442-.9,19.854,19.854,0,0,1,2.237-1.1c.66-.3,1.382-.516,2.074-.774A21.263,21.263,0,0,1,3274.208,1410.662Z"/>
</g>
<g class="j" transform="translate(-35.7 -6.17)">
<path class="c" transform="translate(-2571.1 -1335.1)" d="M2775.86,1412.939c.783-.05,1.573-.008,2.36-.021h19.825a8.591,8.591,0,0,1,1.976.132,5.637,5.637,0,0,1,3.453,2.1,3.028,3.028,0,0,1,.568,1.707,3.26,3.26,0,0,1-.295,1.108,4.771,4.771,0,0,1-2.77,2.367,6.1,6.1,0,0,1-1.694.332q-11.534,0-23.068,0a5.745,5.745,0,0,1-4.109-1.47,3.8,3.8,0,0,1-1.039-1.675,2.9,2.9,0,0,1-.087-.8,5.6,5.6,0,0,1,.193-.961,4.673,4.673,0,0,1,2.984-2.49A5.825,5.825,0,0,1,2775.86,1412.939Z"/>
</g>
<path class="c" transform="translate(-901.31 -1531.3)" d="M927.877,1613.953c.5-.042,1.007-.018,1.51-.018a5.99,5.99,0,0,1,2.252.593,5.726,5.726,0,0,1,2.168,1.7,2.256,2.256,0,0,1,.445,1.333,4.519,4.519,0,0,1-.145,1.656,4.24,4.24,0,0,1-1.534,1.709,6.622,6.622,0,0,1-4.032,1.14,5.986,5.986,0,0,1-2.116-.308,5.882,5.882,0,0,1-1.878-.97,3.859,3.859,0,0,1-1.22-1.327,2.99,2.99,0,0,1-.42-1.239,3.809,3.809,0,0,1,2.022-3.287A6.023,6.023,0,0,1,927.877,1613.953Z"/>
<path class="c" transform="translate(-1422.7 -1563.3)" d="M1492.854,1647.891a6.084,6.084,0,0,1,1.7.065,11.628,11.628,0,0,1,1.753.511,4.76,4.76,0,0,1,2.909,2.874,1.392,1.392,0,0,1,.028.933,4.062,4.062,0,0,1-1.531,2.483,5.109,5.109,0,0,1-1.008.656,3.441,3.441,0,0,1-1.721.481c-.74.086-1.491.04-2.237.053a5.656,5.656,0,0,1-1.826-.294,7.023,7.023,0,0,1-1.81-1.017,3.361,3.361,0,0,1-1.183-2.017,7.087,7.087,0,0,1,.038-1.508,2.612,2.612,0,0,1,1.251-1.8A8.547,8.547,0,0,1,1492.854,1647.891Z"/>
</g>
<g transform="translate(62.266 159.58)">
<path class="c" transform="translate(-474.15 -387)" d="m529.59 453.53h-34.218l-0.363-9.239a2.621 2.621 0 0 1 1.023-2.141 3.451 3.451 0 0 1 2.518-0.708l19.913 2.141c6.146 0.014 11.121 4.392 11.126 9.79z"/>
<path class="b" transform="translate(-461.61 -341.66)" d="m501.79 375.41h-23.865a2.283 2.283 0 0 0-2.417 2.122v20.958a2.283 2.283 0 0 0 2.417 2.122h23.866a2.283 2.283 0 0 0 2.417-2.122v-20.957a2.283 2.283 0 0 0-2.417-2.122z"/>
<path class="d" transform="translate(-471.92 -357.67)" d="m506.73 407.1-11.268 1.927a2.575 2.575 0 0 1-3.011-1.782l-0.866-3.906a2.289 2.289 0 0 1 2.03-2.644l11.268-1.927a2.575 2.575 0 0 1 3.011 1.782l0.866 3.906a2.289 2.289 0 0 1-2.03 2.644z"/>
<path class="e" transform="translate(-478.45 -363.61)" d="M511.011,408.425l-8.6,1.471a.605.605,0,0,1-.709-.419.538.538,0,0,1,.478-.622l8.6-1.471a.605.605,0,0,1,.709.419A.538.538,0,0,1,511.011,408.425Z"/>
<path class="e" transform="translate(-482.93 -368.39)" d="M513.815,415.381l-4.448.761a.605.605,0,0,1-.708-.419.538.538,0,0,1,.478-.622l4.448-.761a.605.605,0,0,1,.709.419A.538.538,0,0,1,513.815,415.381Z"/>
<path class="c" transform="translate(-461.61 -341.66)" d="m504.21 377.54v2.786h-28.7v-2.786a2.283 2.283 0 0 1 2.417-2.122h23.866a2.283 2.283 0 0 1 2.417 2.122z"/>
<path class="a" transform="translate(-545.2 -327.27)" d="m645.11 366.81a3.566 3.566 0 0 0-2.179-2.107 4.312 4.312 0 0 0-3.238 0.114l-32.834-10.344-1.446 7.2 32.729 7.9a4.145 4.145 0 0 0 4.884 1.333 3.26 3.26 0 0 0 2.084-4.096z"/>
<path class="c" transform="translate(-529.2 -321.52)" d="M596.7,350.034l-3.1,7.113a1.633,1.633,0,0,1-1.021.879,1.931,1.931,0,0,1-1.425-.1l-7.535-3.724a4.049,4.049,0,0,1-2.731-5.416,5,5,0,0,1,6.167-2.4l8.414,1.639a1.709,1.709,0,0,1,1.14.758A1.344,1.344,0,0,1,596.7,350.034Z"/>
<path class="c" transform="translate(-600.28 -368.79)" d="m702.78 414.91-11.765 4.7 1.545 5.107a70.088 70.088 0 0 1 2.332 30.259l8.6 1.578 7.13-15.967-2.5-18.158z"/>
<path class="b" transform="translate(-637.3 -420.65)" d="m762.89 490.41c-7.73 0-14.03 4.935-14.335 11.114h28.67c-0.306-6.179-6.605-11.114-14.335-11.114z"/>
<g class="i" transform="translate(-71.27 -165.58)">
<path class="b" transform="translate(-368.63 -201.7)" d="M559.462,438.107c-.4-27.895-18.493-25.328-18.493-25.328s.338,8.683.5,8.953c11.528,19.154-7.5,41.609-31.716,37.478q-.685-.117-1.316-.237c-6.369-1.168-10.608-6.48-9.684-12.136,2.386-16.823-9.48-16.526-9.48-16.526h-17.35l-9.01-7.121a2.887,2.887,0,0,0-2.381-.523A2.53,2.53,0,0,0,458.7,424.1l-1.159,2.763s-17.113,1.565-15.687,16.28h5.291a8.248,8.248,0,0,0,.057,1.252l39.484-.282c2.314-.017,4.357,1.63,4.367,3.663a3.474,3.474,0,0,1-1.271,2.655,4.526,4.526,0,0,1-3.059,1.038l-6.366-.186c-1.961,7.67,2.852,12.836,8.155,16.084a32.611,32.611,0,0,0,16.976,4.579h17.294c22.46,0,26.382-16.593,26.382-16.593C560.934,450.974,559.462,438.107,559.462,438.107Z"/>
</g>
<g class="h" transform="translate(-71.27 -165.58)">
<path class="b" transform="translate(175.73 244.11)" d="M20.054,0C31.13,0,40.108,7.885,40.108,17.611S31.13,35.221,20.054,35.221,0,27.337,0,17.611,8.978,0,20.054,0Z"/>
</g>
<ellipse class="e" transform="translate(119.6 91.823)" cx="4.915" cy="4.316" rx="4.915" ry="4.316"/>
<g class="g" transform="translate(-71.27 -165.58)">
<path class="b" transform="translate(71.44 238.79)" d="M23.084,0C35.834,0,46.169,9.076,46.169,20.272S35.834,40.543,23.084,40.543,0,31.468,0,20.272,10.335,0,23.084,0Z"/>
</g>
<ellipse class="e" transform="translate(17.605 88.51)" cx="5.658" cy="4.969" rx="5.658" ry="4.969"/>
<path class="b" transform="translate(-592.15 -338.33)" d="M682.92,390.537l-4.233-10.1a4.144,4.144,0,0,1,2.883-5.482l12.136-3.923c4.434-1.434,9.352.56,10.985,4.454a6.663,6.663,0,0,1,.528,2.6,7.266,7.266,0,0,1-3.2,5.864,8.868,8.868,0,0,1-2.4,1.186Z"/>
<path class="c" transform="translate(-620.22 -338.68)" d="m733.11 378.43a7.074 7.074 0 0 1-3.137 5.742 10.477 10.477 0 0 1-6.923-5.036 8.358 8.358 0 0 1-0.1-7.894 9.273 9.273 0 0 1 7.038 1.46 7.059 7.059 0 0 1 3.122 5.728z"/>
<path class="c" transform="translate(0 67.258)" d="M4.991,0A5.165,5.165,0,0,1,9.982,5.322a5.165,5.165,0,0,1-4.991,5.322A5.165,5.165,0,0,1,0,5.322,5.165,5.165,0,0,1,4.991,0Z"/>
<path class="a" transform="translate(-379.1 -178.74)" d="m450.07 270.16h4.371l2.079-9.955h-6.451z"/>
<path class="f" transform="translate(-562.59 -465.42)" d="m632.44 555.59h8.608c3.03 0 5.486 2.157 5.485 4.817v0.156h-14.093z"/>
<path class="c" transform="translate(-520.46 -379.68)" d="M596.5,467.013c-.051,0-.1,0-.153-.006l-6.049-.387a1.647,1.647,0,0,1-1.208-.65,1.262,1.262,0,0,1-.15-1.237l8.1-15.971a.975.975,0,0,0-.07-.876,1.214,1.214,0,0,0-.788-.551c-3.807-.874-13.573-3.2-22.028-5.923-3.622-1.166-5.9-2.852-6.781-5.01a6.34,6.34,0,0,1,.628-5.548l.057-.085,7.956.635,8.625.644,18.9,8.9c3.284,1.56,4.653,5.073,3.144,8.072l-8.714,17.159A1.626,1.626,0,0,1,596.5,467.013Z"/>
<path class="d" transform="translate(48.178 4.746)" d="M8.756,0c4.836,0,8.756,3.443,8.756,7.689s-3.92,7.689-8.756,7.689S0,11.936,0,7.689,3.92,0,8.756,0Z"/>
<path class="a" transform="translate(-374.6 -180.8)" d="m443.07 273.16h4.371l2.08-9.955h-6.451z"/>
<path class="f" transform="translate(-558.09 -467.48)" d="m625.44 558.59h8.608c3.03 0 5.486 2.157 5.485 4.817v0.156h-14.093z"/>
<path class="c" transform="translate(-515.95 -381.74)" d="M589.5,470.013q-.076,0-.153-.006l-6.049-.387a1.647,1.647,0,0,1-1.208-.65,1.262,1.262,0,0,1-.15-1.237l8.1-15.971a.976.976,0,0,0-.07-.876,1.214,1.214,0,0,0-.788-.551c-3.807-.874-13.573-3.2-22.028-5.923-3.622-1.166-5.9-2.852-6.78-5.01a6.34,6.34,0,0,1,.628-5.548l.057-.085,7.956.635,8.625.644,18.9,8.9c3.284,1.56,4.653,5.073,3.144,8.072l-8.714,17.159A1.627,1.627,0,0,1,589.5,470.013Z"/>
<path class="c" transform="translate(-518.08 -315.13)" d="m577.72 339.61-9.269-2.818s-5.819 3.926-3.023 13.665a21.377 21.377 0 0 1-1.212 15.128 14.812 14.812 0 0 1-0.934 1.732s10.339 10.958 19.965 2.818l-3.743-15.81s5.881-10.489-1.784-14.715z"/>
<path class="a" transform="translate(-515.96 -267.58)" d="M573.98,287.972c-1.246-1.638-2.23-3.91-.858-5.468,1.354-1.539,4.026-1.312,6.1-1.993a5.951,5.951,0,0,0,4.042-6.6c-.523-2.669-2.963-4.882-5.87-5.788a14.35,14.35,0,0,0-9.032.432,13.037,13.037,0,0,0-7.771,6.912,8.462,8.462,0,0,0,2.028,9.339c2.8,2.592,7.2,3.282,11.274,3.241"/>
<path class="a" transform="translate(-453.43 -272.46)" d="M503.307,278.876c-1.57,1.123-3.966.624-5.652-.361s-3.054-2.388-4.877-3.161c-3.216-1.362-7.1-.457-10.233,1.052s-5.9,3.593-9.209,4.776-7.524,1.242-10.027-.993a7.473,7.473,0,0,0,2.918,8.9,10.216,10.216,0,0,0,10.527.606c3.622-1.937,5.623-6,9.685-7.069,2.248-.592,4.662-.115,6.934.4s4.641,1.074,6.934.635,4.438-2.249,4.146-4.294Z"/>
<path class="a" transform="translate(-543.66 -335.88)" d="m643.13 375.11a3.729 3.729 0 0 0-2.458-1.855 4.276 4.276 0 0 0-3.2 0.464l-34.036-6.708-0.423 7.3 33.59 4.3a4.218 4.218 0 0 0 5.034 0.794 3.172 3.172 0 0 0 1.493-4.295z"/>
<path class="c" transform="translate(-526.29 -331.42)" d="M592.046,363.221l-2.078,7.395a1.561,1.561,0,0,1-.889.983,1.934,1.934,0,0,1-1.429.051l-8-2.88c-2.555-.561-4.109-2.834-3.471-5.078a4.847,4.847,0,0,1,5.783-3.048l8.581.715a1.778,1.778,0,0,1,1.238.629A1.361,1.361,0,0,1,592.046,363.221Z"/>
<path class="d" transform="translate(93.051 40.647)" d="M2.5,0a2.358,2.358,0,0,1,2.5,2.192A2.358,2.358,0,0,1,2.5,4.383,2.358,2.358,0,0,1,0,2.192,2.358,2.358,0,0,1,2.5,0Z"/>
</g>
</g>
</svg>
