<?xml version="1.0" encoding="iso-8859-1"?>
<!-- Generator: Adobe Illustrator 19.0.0, SVG Export Plug-In . SVG Version: 6.00 Build 0)  -->
<svg version="1.1" id="Layer_1" xmlns="http://www.w3.org/2000/svg" xmlns:xlink="http://www.w3.org/1999/xlink" x="0px" y="0px"
	 viewBox="0 0 512.001 512.001" style="enable-background:new 0 0 512.001 512.001;" xml:space="preserve">
<path style="fill:#AFBBD0;" d="M220.69,61.794H26.483C11.857,61.794,0,73.65,0,88.276v335.448c0,14.626,11.857,26.483,26.483,26.483
	H220.69V256.001V61.794z M61.793,414.897H35.31c-4.875,0-8.828-3.953-8.828-8.828c0-4.875,3.953-8.828,8.828-8.828h26.483
	c4.875,0,8.828,3.953,8.828,8.828C70.621,410.945,66.668,414.897,61.793,414.897z M61.793,379.587H35.31
	c-4.875,0-8.828-3.953-8.828-8.828s3.953-8.828,8.828-8.828h26.483c4.875,0,8.828,3.953,8.828,8.828S66.668,379.587,61.793,379.587z
	 M26.483,335.449c0-4.875,3.953-8.828,8.828-8.828h123.586c4.875,0,8.828,3.953,8.828,8.828s-3.953,8.828-8.828,8.828H35.31
	C30.435,344.276,26.483,340.324,26.483,335.449z M185.379,414.897H97.103c-4.875,0-8.828-3.953-8.828-8.828
	c0-4.875,3.953-8.828,8.828-8.828h88.276c4.875,0,8.828,3.953,8.828,8.828C194.207,410.945,190.254,414.897,185.379,414.897z
	 M185.379,379.587H97.103c-4.875,0-8.828-3.953-8.828-8.828s3.953-8.828,8.828-8.828h88.276c4.875,0,8.828,3.953,8.828,8.828
	S190.254,379.587,185.379,379.587z M185.379,308.966H35.31c-4.875,0-8.828-3.953-8.828-8.828s3.953-8.828,8.828-8.828h150.069
	c4.875,0,8.828,3.953,8.828,8.828S190.254,308.966,185.379,308.966z M194.207,256.001c0,4.875-3.953,8.828-8.828,8.828h-26.026
	H61.336H35.31c-4.875,0-8.828-3.953-8.828-8.828V97.104c0-4.875,3.953-8.828,8.828-8.828h150.069c4.875,0,8.828,3.953,8.828,8.828
	V256.001z"/>
<path style="fill:#FFDC69;" d="M185.379,88.276H35.31c-4.875,0-8.828,3.953-8.828,8.828v158.897c0,4.875,3.953,8.828,8.828,8.828
	h26.026v-27.77c0-10.031,5.667-19.201,14.639-23.687l3.473-1.737h-0.265c-14.479,0-26.218-11.738-26.218-26.218v-0.036l0,0
	c9.75,0,17.655-7.905,17.655-17.655v-13.241c0-21.939,17.785-39.724,39.724-39.724l0,0c21.939,0,39.724,17.785,39.724,39.724v13.241
	c0,9.75,7.904,17.655,17.655,17.655v0.036c0,14.479-11.738,26.218-26.218,26.218h-0.265l3.473,1.737
	c8.972,4.486,14.639,13.655,14.639,23.687v27.77h26.026c4.875,0,8.828-3.953,8.828-8.828V97.104
	C194.207,92.229,190.254,88.276,185.379,88.276z"/>
<path style="fill:#FFB855;" d="M144.714,213.371l-3.473-1.737h0.265c14.479,0,26.218-11.738,26.218-26.218v-0.036
	c-9.751,0-17.655-7.905-17.655-17.655v-13.241c0-21.939-17.785-39.724-39.724-39.724l0,0c-21.939,0-39.724,17.785-39.724,39.724
	v13.241c0,9.75-7.904,17.655-17.655,17.655l0,0v0.036c0,14.479,11.738,26.218,26.218,26.218h0.265l-3.473,1.737
	c-8.972,4.486-14.639,13.655-14.639,23.687v27.77h98.017v-27.77C159.353,227.026,153.686,217.857,144.714,213.371z"/>
<path style="fill:#FFDC69;" d="M485.517,61.794H220.69v194.207H512V88.276C512,73.65,500.143,61.794,485.517,61.794z
	 M432.552,220.69H256c-4.875,0-8.828-3.953-8.828-8.828s3.953-8.828,8.828-8.828h176.552c4.875,0,8.828,3.953,8.828,8.828
	S437.427,220.69,432.552,220.69z M432.552,185.38H256c-4.875,0-8.828-3.953-8.828-8.828s3.953-8.828,8.828-8.828h176.552
	c4.875,0,8.828,3.953,8.828,8.828S437.427,185.38,432.552,185.38z M432.552,150.07H256c-4.875,0-8.828-3.953-8.828-8.828
	c0-4.875,3.953-8.828,8.828-8.828h176.552c4.875,0,8.828,3.953,8.828,8.828C441.379,146.117,437.427,150.07,432.552,150.07z
	 M467.862,114.759H256c-4.875,0-8.828-3.953-8.828-8.828c0-4.875,3.953-8.828,8.828-8.828h211.862c4.875,0,8.828,3.953,8.828,8.828
	C476.69,110.807,472.737,114.759,467.862,114.759z"/>
<path style="fill:#DEE3ED;" d="M220.69,450.207h264.828c2.285,0,4.503-0.289,6.618-0.834c2.115-0.544,4.129-1.343,6.005-2.362
	c0.75-0.407,1.479-0.851,2.184-1.326c2.818-1.903,5.249-4.335,7.154-7.153c0.476-0.704,0.919-1.433,1.326-2.184
	c1.02-1.876,1.818-3.89,2.362-6.005s0.834-4.333,0.834-6.618V256.001H220.69V450.207z M317.793,291.311h150.069
	c4.875,0,8.828,3.953,8.828,8.828s-3.953,8.828-8.828,8.828H317.793c-4.875,0-8.828-3.953-8.828-8.828
	S312.918,291.311,317.793,291.311z M317.793,326.621h97.103c4.875,0,8.828,3.953,8.828,8.828s-3.953,8.828-8.828,8.828h-97.103
	c-4.875,0-8.828-3.953-8.828-8.828S312.918,326.621,317.793,326.621z M317.793,361.932h150.069c4.875,0,8.828,3.953,8.828,8.828
	s-3.953,8.828-8.828,8.828H317.793c-4.875,0-8.828-3.953-8.828-8.828S312.918,361.932,317.793,361.932z M317.793,397.242h97.103
	c4.875,0,8.828,3.953,8.828,8.828c0,4.875-3.953,8.828-8.828,8.828h-97.103c-4.875,0-8.828-3.953-8.828-8.828
	C308.966,401.194,312.918,397.242,317.793,397.242z M256,291.311h26.483c4.875,0,8.828,3.953,8.828,8.828s-3.953,8.828-8.828,8.828
	H256c-4.875,0-8.828-3.953-8.828-8.828S251.125,291.311,256,291.311z M256,326.621h26.483c4.875,0,8.828,3.953,8.828,8.828
	s-3.953,8.828-8.828,8.828H256c-4.875,0-8.828-3.953-8.828-8.828S251.125,326.621,256,326.621z M256,361.932h26.483
	c4.875,0,8.828,3.953,8.828,8.828s-3.953,8.828-8.828,8.828H256c-4.875,0-8.828-3.953-8.828-8.828S251.125,361.932,256,361.932z
	 M256,397.242h26.483c4.875,0,8.828,3.953,8.828,8.828c0,4.875-3.953,8.828-8.828,8.828H256c-4.875,0-8.828-3.953-8.828-8.828
	C247.172,401.194,251.125,397.242,256,397.242z"/>
<path style="fill:#FFB855;" d="M185.379,291.311H35.31c-4.875,0-8.828,3.953-8.828,8.828s3.953,8.828,8.828,8.828h150.069
	c4.875,0,8.828-3.953,8.828-8.828S190.254,291.311,185.379,291.311z"/>
<path style="fill:#FFDC69;" d="M35.31,344.276h123.586c4.875,0,8.828-3.953,8.828-8.828s-3.953-8.828-8.828-8.828H35.31
	c-4.875,0-8.828,3.953-8.828,8.828S30.435,344.276,35.31,344.276z"/>
<g>
	<path style="fill:#DEE3ED;" d="M61.793,361.932H35.31c-4.875,0-8.828,3.953-8.828,8.828s3.953,8.828,8.828,8.828h26.483
		c4.875,0,8.828-3.953,8.828-8.828S66.668,361.932,61.793,361.932z"/>
	<path style="fill:#DEE3ED;" d="M61.793,397.242H35.31c-4.875,0-8.828,3.953-8.828,8.828c0,4.875,3.953,8.828,8.828,8.828h26.483
		c4.875,0,8.828-3.953,8.828-8.828C70.621,401.194,66.668,397.242,61.793,397.242z"/>
	<path style="fill:#DEE3ED;" d="M185.379,361.932H97.103c-4.875,0-8.828,3.953-8.828,8.828s3.953,8.828,8.828,8.828h88.276
		c4.875,0,8.828-3.953,8.828-8.828S190.254,361.932,185.379,361.932z"/>
</g>
<g>
	<path style="fill:#FFB855;" d="M467.862,97.104H256c-4.875,0-8.828,3.953-8.828,8.828c0,4.875,3.953,8.828,8.828,8.828h211.862
		c4.875,0,8.828-3.953,8.828-8.828C476.69,101.057,472.737,97.104,467.862,97.104z"/>
	<path style="fill:#FFB855;" d="M432.552,132.414H256c-4.875,0-8.828,3.953-8.828,8.828c0,4.875,3.953,8.828,8.828,8.828h176.552
		c4.875,0,8.828-3.953,8.828-8.828C441.379,136.367,437.427,132.414,432.552,132.414z"/>
</g>
<g>
	<path style="fill:#FF9650;" d="M432.552,167.725H256c-4.875,0-8.828,3.953-8.828,8.828s3.953,8.828,8.828,8.828h176.552
		c4.875,0,8.828-3.953,8.828-8.828S437.427,167.725,432.552,167.725z"/>
	<path style="fill:#FF9650;" d="M432.552,203.035H256c-4.875,0-8.828,3.953-8.828,8.828s3.953,8.828,8.828,8.828h176.552
		c4.875,0,8.828-3.953,8.828-8.828S437.427,203.035,432.552,203.035z"/>
</g>
<g>
	<path style="fill:#AFBBD0;" d="M256,379.587h26.483c4.875,0,8.828-3.953,8.828-8.828s-3.953-8.828-8.828-8.828H256
		c-4.875,0-8.828,3.953-8.828,8.828S251.125,379.587,256,379.587z"/>
	<path style="fill:#AFBBD0;" d="M256,414.897h26.483c4.875,0,8.828-3.953,8.828-8.828c0-4.875-3.953-8.828-8.828-8.828H256
		c-4.875,0-8.828,3.953-8.828,8.828C247.172,410.945,251.125,414.897,256,414.897z"/>
	<path style="fill:#AFBBD0;" d="M256,308.966h26.483c4.875,0,8.828-3.953,8.828-8.828s-3.953-8.828-8.828-8.828H256
		c-4.875,0-8.828,3.953-8.828,8.828S251.125,308.966,256,308.966z"/>
	<path style="fill:#AFBBD0;" d="M256,344.276h26.483c4.875,0,8.828-3.953,8.828-8.828s-3.953-8.828-8.828-8.828H256
		c-4.875,0-8.828,3.953-8.828,8.828S251.125,344.276,256,344.276z"/>
	<path style="fill:#AFBBD0;" d="M317.793,379.587h150.069c4.875,0,8.828-3.953,8.828-8.828s-3.953-8.828-8.828-8.828H317.793
		c-4.875,0-8.828,3.953-8.828,8.828S312.918,379.587,317.793,379.587z"/>
	<path style="fill:#AFBBD0;" d="M317.793,414.897h97.103c4.875,0,8.828-3.953,8.828-8.828c0-4.875-3.953-8.828-8.828-8.828h-97.103
		c-4.875,0-8.828,3.953-8.828,8.828C308.966,410.945,312.918,414.897,317.793,414.897z"/>
	<path style="fill:#AFBBD0;" d="M317.793,308.966h150.069c4.875,0,8.828-3.953,8.828-8.828s-3.953-8.828-8.828-8.828H317.793
		c-4.875,0-8.828,3.953-8.828,8.828S312.918,308.966,317.793,308.966z"/>
	<path style="fill:#AFBBD0;" d="M317.793,344.276h97.103c4.875,0,8.828-3.953,8.828-8.828s-3.953-8.828-8.828-8.828h-97.103
		c-4.875,0-8.828,3.953-8.828,8.828S312.918,344.276,317.793,344.276z"/>
</g>
<path style="fill:#DEE3ED;" d="M185.379,397.242H97.103c-4.875,0-8.828,3.953-8.828,8.828c0,4.875,3.953,8.828,8.828,8.828h88.276
	c4.875,0,8.828-3.953,8.828-8.828C194.207,401.194,190.254,397.242,185.379,397.242z"/>
<g>
</g>
<g>
</g>
<g>
</g>
<g>
</g>
<g>
</g>
<g>
</g>
<g>
</g>
<g>
</g>
<g>
</g>
<g>
</g>
<g>
</g>
<g>
</g>
<g>
</g>
<g>
</g>
<g>
</g>
</svg>
