<?xml version="1.0" encoding="UTF-8"?>
<svg enable-background="new 0 0 512.001 512.001" version="1.1" viewBox="0 0 512 512" xml:space="preserve" xmlns="http://www.w3.org/2000/svg">
<path d="m220.69 61.794h-194.21c-14.626 0-26.483 11.856-26.483 26.482v335.45c0 14.626 11.857 26.483 26.483 26.483h194.21v-388.41zm-158.9 353.1h-26.483c-4.875 0-8.828-3.953-8.828-8.828s3.953-8.828 8.828-8.828h26.483c4.875 0 8.828 3.953 8.828 8.828 0 4.876-3.953 8.828-8.828 8.828zm0-35.31h-26.483c-4.875 0-8.828-3.953-8.828-8.828s3.953-8.828 8.828-8.828h26.483c4.875 0 8.828 3.953 8.828 8.828s-3.953 8.828-8.828 8.828zm-35.31-44.138c0-4.875 3.953-8.828 8.828-8.828h123.59c4.875 0 8.828 3.953 8.828 8.828s-3.953 8.828-8.828 8.828h-123.59c-4.875-1e-3 -8.827-3.953-8.827-8.828zm158.9 79.448h-88.276c-4.875 0-8.828-3.953-8.828-8.828s3.953-8.828 8.828-8.828h88.276c4.875 0 8.828 3.953 8.828 8.828 0 4.876-3.953 8.828-8.828 8.828zm0-35.31h-88.276c-4.875 0-8.828-3.953-8.828-8.828s3.953-8.828 8.828-8.828h88.276c4.875 0 8.828 3.953 8.828 8.828s-3.953 8.828-8.828 8.828zm0-70.621h-150.07c-4.875 0-8.828-3.953-8.828-8.828s3.953-8.828 8.828-8.828h150.07c4.875 0 8.828 3.953 8.828 8.828s-3.953 8.828-8.828 8.828zm8.828-52.965c0 4.875-3.953 8.828-8.828 8.828h-150.07c-4.875 0-8.828-3.953-8.828-8.828v-158.9c0-4.875 3.953-8.828 8.828-8.828h150.07c4.875 0 8.828 3.953 8.828 8.828v158.9z" fill="#AFBBD0"/>
<path d="m185.38 88.276h-150.07c-4.875 0-8.828 3.953-8.828 8.828v158.9c0 4.875 3.953 8.828 8.828 8.828h26.026v-27.77c0-10.031 5.667-19.201 14.639-23.687l3.473-1.737h-0.265c-14.479 0-26.218-11.738-26.218-26.218v-0.036c9.75 0 17.655-7.905 17.655-17.655v-13.241c0-21.939 17.785-39.724 39.724-39.724s39.724 17.785 39.724 39.724v13.241c0 9.75 7.904 17.655 17.655 17.655v0.036c0 14.479-11.738 26.218-26.218 26.218h-0.265l3.473 1.737c8.972 4.486 14.639 13.655 14.639 23.687v27.77h26.026c4.875 0 8.828-3.953 8.828-8.828v-158.9c1e-3 -4.875-3.952-8.828-8.827-8.828z" fill="#FFDC69"/>
<path d="m144.71 213.37-3.473-1.737h0.265c14.479 0 26.218-11.738 26.218-26.218v-0.036c-9.751 0-17.655-7.905-17.655-17.655v-13.241c0-21.939-17.785-39.724-39.724-39.724s-39.724 17.785-39.724 39.724v13.241c0 9.75-7.904 17.655-17.655 17.655v0.036c0 14.479 11.738 26.218 26.218 26.218h0.265l-3.473 1.737c-8.972 4.486-14.639 13.655-14.639 23.687v27.77h98.017v-27.77c-1e-3 -10.032-5.668-19.201-14.64-23.687z" fill="#FFB855"/>
<path d="m485.52 61.794h-264.83v194.21h291.31v-167.72c0-14.626-11.857-26.482-26.483-26.482zm-52.965 158.9h-176.55c-4.875 0-8.828-3.953-8.828-8.828s3.953-8.828 8.828-8.828h176.55c4.875 0 8.828 3.953 8.828 8.828s-3.953 8.828-8.828 8.828zm0-35.31h-176.55c-4.875 0-8.828-3.953-8.828-8.828s3.953-8.828 8.828-8.828h176.55c4.875 0 8.828 3.953 8.828 8.828s-3.953 8.828-8.828 8.828zm0-35.31h-176.55c-4.875 0-8.828-3.953-8.828-8.828s3.953-8.828 8.828-8.828h176.55c4.875 0 8.828 3.953 8.828 8.828-1e-3 4.875-3.953 8.828-8.828 8.828zm35.31-35.311h-211.86c-4.875 0-8.828-3.953-8.828-8.828s3.953-8.828 8.828-8.828h211.86c4.875 0 8.828 3.953 8.828 8.828 0 4.876-3.953 8.828-8.828 8.828z" fill="#FFDC69"/>
<path d="m220.69 450.21h264.83c2.285 0 4.503-0.289 6.618-0.834 2.115-0.544 4.129-1.343 6.005-2.362 0.75-0.407 1.479-0.851 2.184-1.326 2.818-1.903 5.249-4.335 7.154-7.153 0.476-0.704 0.919-1.433 1.326-2.184 1.02-1.876 1.818-3.89 2.362-6.005s0.834-4.333 0.834-6.618v-167.72h-291.31v194.21zm97.103-158.9h150.07c4.875 0 8.828 3.953 8.828 8.828s-3.953 8.828-8.828 8.828h-150.07c-4.875 0-8.828-3.953-8.828-8.828s3.953-8.828 8.828-8.828zm0 35.31h97.103c4.875 0 8.828 3.953 8.828 8.828s-3.953 8.828-8.828 8.828h-97.103c-4.875 0-8.828-3.953-8.828-8.828s3.953-8.828 8.828-8.828zm0 35.311h150.07c4.875 0 8.828 3.953 8.828 8.828s-3.953 8.828-8.828 8.828h-150.07c-4.875 0-8.828-3.953-8.828-8.828s3.953-8.828 8.828-8.828zm0 35.31h97.103c4.875 0 8.828 3.953 8.828 8.828s-3.953 8.828-8.828 8.828h-97.103c-4.875 0-8.828-3.953-8.828-8.828 1e-3 -4.876 3.953-8.828 8.828-8.828zm-61.793-105.93h26.483c4.875 0 8.828 3.953 8.828 8.828s-3.953 8.828-8.828 8.828h-26.483c-4.875 0-8.828-3.953-8.828-8.828s3.953-8.828 8.828-8.828zm0 35.31h26.483c4.875 0 8.828 3.953 8.828 8.828s-3.953 8.828-8.828 8.828h-26.483c-4.875 0-8.828-3.953-8.828-8.828s3.953-8.828 8.828-8.828zm0 35.311h26.483c4.875 0 8.828 3.953 8.828 8.828s-3.953 8.828-8.828 8.828h-26.483c-4.875 0-8.828-3.953-8.828-8.828s3.953-8.828 8.828-8.828zm0 35.31h26.483c4.875 0 8.828 3.953 8.828 8.828s-3.953 8.828-8.828 8.828h-26.483c-4.875 0-8.828-3.953-8.828-8.828 0-4.876 3.953-8.828 8.828-8.828z" fill="#DEE3ED"/>
<path d="m185.38 291.31h-150.07c-4.875 0-8.828 3.953-8.828 8.828s3.953 8.828 8.828 8.828h150.07c4.875 0 8.828-3.953 8.828-8.828s-3.953-8.828-8.828-8.828z" fill="#FFB855"/>
<path d="m35.31 344.28h123.59c4.875 0 8.828-3.953 8.828-8.828s-3.953-8.828-8.828-8.828h-123.59c-4.875 0-8.828 3.953-8.828 8.828s3.953 8.828 8.828 8.828z" fill="#FFDC69"/>
<g fill="#DEE3ED">
	<path d="m61.793 361.93h-26.483c-4.875 0-8.828 3.953-8.828 8.828s3.953 8.828 8.828 8.828h26.483c4.875 0 8.828-3.953 8.828-8.828s-3.953-8.828-8.828-8.828z"/>
	<path d="m61.793 397.24h-26.483c-4.875 0-8.828 3.953-8.828 8.828s3.953 8.828 8.828 8.828h26.483c4.875 0 8.828-3.953 8.828-8.828 0-4.876-3.953-8.828-8.828-8.828z"/>
	<path d="m185.38 361.93h-88.276c-4.875 0-8.828 3.953-8.828 8.828s3.953 8.828 8.828 8.828h88.276c4.875 0 8.828-3.953 8.828-8.828s-3.953-8.828-8.828-8.828z"/>
</g>
<g fill="#FFB855">
	<path d="m467.86 97.104h-211.86c-4.875 0-8.828 3.953-8.828 8.828s3.953 8.828 8.828 8.828h211.86c4.875 0 8.828-3.953 8.828-8.828s-3.953-8.828-8.828-8.828z"/>
	<path d="m432.55 132.41h-176.55c-4.875 0-8.828 3.953-8.828 8.828s3.953 8.828 8.828 8.828h176.55c4.875 0 8.828-3.953 8.828-8.828-1e-3 -4.875-3.953-8.828-8.828-8.828z"/>
</g>
<g fill="#FF9650">
	<path d="m432.55 167.72h-176.55c-4.875 0-8.828 3.953-8.828 8.828s3.953 8.828 8.828 8.828h176.55c4.875 0 8.828-3.953 8.828-8.828s-3.953-8.828-8.828-8.828z"/>
	<path d="m432.55 203.04h-176.55c-4.875 0-8.828 3.953-8.828 8.828s3.953 8.828 8.828 8.828h176.55c4.875 0 8.828-3.953 8.828-8.828s-3.953-8.828-8.828-8.828z"/>
</g>
<g fill="#AFBBD0">
	<path d="m256 379.59h26.483c4.875 0 8.828-3.953 8.828-8.828s-3.953-8.828-8.828-8.828h-26.483c-4.875 0-8.828 3.953-8.828 8.828s3.953 8.828 8.828 8.828z"/>
	<path d="m256 414.9h26.483c4.875 0 8.828-3.953 8.828-8.828s-3.953-8.828-8.828-8.828h-26.483c-4.875 0-8.828 3.953-8.828 8.828 0 4.876 3.953 8.828 8.828 8.828z"/>
	<path d="m256 308.97h26.483c4.875 0 8.828-3.953 8.828-8.828s-3.953-8.828-8.828-8.828h-26.483c-4.875 0-8.828 3.953-8.828 8.828s3.953 8.828 8.828 8.828z"/>
	<path d="m256 344.28h26.483c4.875 0 8.828-3.953 8.828-8.828s-3.953-8.828-8.828-8.828h-26.483c-4.875 0-8.828 3.953-8.828 8.828s3.953 8.828 8.828 8.828z"/>
	<path d="m317.79 379.59h150.07c4.875 0 8.828-3.953 8.828-8.828s-3.953-8.828-8.828-8.828h-150.07c-4.875 0-8.828 3.953-8.828 8.828s3.953 8.828 8.828 8.828z"/>
	<path d="m317.79 414.9h97.103c4.875 0 8.828-3.953 8.828-8.828s-3.953-8.828-8.828-8.828h-97.103c-4.875 0-8.828 3.953-8.828 8.828 1e-3 4.876 3.953 8.828 8.828 8.828z"/>
	<path d="m317.79 308.97h150.07c4.875 0 8.828-3.953 8.828-8.828s-3.953-8.828-8.828-8.828h-150.07c-4.875 0-8.828 3.953-8.828 8.828s3.953 8.828 8.828 8.828z"/>
	<path d="m317.79 344.28h97.103c4.875 0 8.828-3.953 8.828-8.828s-3.953-8.828-8.828-8.828h-97.103c-4.875 0-8.828 3.953-8.828 8.828s3.953 8.828 8.828 8.828z"/>
</g>
<path d="m185.38 397.24h-88.276c-4.875 0-8.828 3.953-8.828 8.828s3.953 8.828 8.828 8.828h88.276c4.875 0 8.828-3.953 8.828-8.828 0-4.876-3.953-8.828-8.828-8.828z" fill="#DEE3ED"/>

</svg>
