<?xml version="1.0" encoding="UTF-8"?>
<svg enable-background="new 0 0 512 512" version="1.1" viewBox="0 0 512 512" xml:space="preserve" xmlns="http://www.w3.org/2000/svg">
<g transform="translate(1 1)">
	<path d="m442.73 314.73c-33.28 0-59.733-26.453-59.733-59.733s26.453-59.733 59.733-59.733 59.734 26.453 59.734 59.733-26.454 59.733-59.734 59.733" fill="#ccc"/>
	<path d="m429.93 314.73c-25.6 0-46.933-26.453-46.933-59.733s21.333-59.733 46.933-59.733 46.934 26.453 46.934 59.733-21.334 59.733-46.934 59.733" fill="#E2E3E5"/>
	<path d="m442.73 314.73c2.56 0 5.12 0 6.827-0.853-23.04-3.413-40.96-28.16-40.96-58.88s17.92-55.467 40.96-58.88c-1.707-0.853-4.267-0.853-6.827-0.853-33.28 0-59.733 26.453-59.733 59.733s26.453 59.733 59.733 59.733" fill="#fff"/>
	<path d="m280.6 314.73c-33.28 0-59.733-26.453-59.733-59.733s26.453-59.733 59.733-59.733 59.733 26.453 59.733 59.733-26.453 59.733-59.733 59.733" fill="#E2E3E5"/>
	<path d="m255 314.73c-33.28 0-59.733-26.453-59.733-59.733s26.453-59.733 59.733-59.733 59.733 26.453 59.733 59.733-26.453 59.733-59.733 59.733" fill="#ccc"/>
	<path d="m242.2 314.73c-25.6 0-46.933-26.453-46.933-59.733s21.333-59.733 46.933-59.733 46.933 26.453 46.933 59.733-21.333 59.733-46.933 59.733" fill="#E2E3E5"/>
	<path d="m255 314.73c2.56 0 5.12 0 6.827-0.853-23.04-3.413-40.96-28.16-40.96-58.88s17.92-55.467 40.96-58.88c-1.707-0.853-4.267-0.853-6.827-0.853-33.28 0-59.733 26.453-59.733 59.733s26.453 59.733 59.733 59.733" fill="#fff"/>
	<path d="m92.867 314.73c-33.28 0-59.733-26.453-59.733-59.733s26.453-59.733 59.733-59.733 59.733 26.453 59.733 59.733-26.453 59.733-59.733 59.733" fill="#E2E3E5"/>
	<path d="M67.267,314.733c-33.28,0-59.733-26.453-59.733-59.733s26.453-59.733,59.733-59.733   S127,221.72,127,255S100.547,314.733,67.267,314.733" fill="#ccc"/>
	<path d="m54.467 314.73c-25.6 0-46.933-26.453-46.933-59.733s21.333-59.733 46.933-59.733 46.933 26.453 46.933 59.733-21.333 59.733-46.933 59.733" fill="#E2E3E5"/>
	<path d="m67.267 314.73c2.56 0 5.12 0 6.827-0.853-23.04-3.413-40.96-28.16-40.96-58.88s17.92-55.467 40.96-58.88c-1.707-0.853-4.267-0.853-6.827-0.853-33.28 0-59.733 26.453-59.733 59.733s26.453 59.733 59.733 59.733" fill="#fff"/>
	<g fill="#B6B6B6">
		<path d="m67.267 323.27c-37.547 0-68.267-30.72-68.267-68.267s30.72-68.267 68.267-68.267 68.267 30.72 68.267 68.267-30.721 68.267-68.267 68.267zm0-119.47c-28.16 0-51.2 23.04-51.2 51.2s23.04 51.2 51.2 51.2 51.2-23.04 51.2-51.2-23.04-51.2-51.2-51.2z"/>
		<path d="m442.73 323.27c-37.547 0-68.267-30.72-68.267-68.267s30.72-68.267 68.267-68.267 68.267 30.72 68.267 68.267-30.72 68.267-68.267 68.267zm0-119.47c-28.16 0-51.2 23.04-51.2 51.2s23.04 51.2 51.2 51.2 51.2-23.04 51.2-51.2-23.04-51.2-51.2-51.2z"/>
		<path d="m255 323.27c-37.547 0-68.267-30.72-68.267-68.267s30.72-68.267 68.267-68.267 68.267 30.72 68.267 68.267-30.72 68.267-68.267 68.267zm0-119.47c-28.16 0-51.2 23.04-51.2 51.2s23.04 51.2 51.2 51.2 51.2-23.04 51.2-51.2-23.04-51.2-51.2-51.2z"/>
	</g>
</g>

</svg>
