<?xml version="1.0" encoding="iso-8859-1"?>
<!-- Generator: Adobe Illustrator 19.0.0, SVG Export Plug-In . SVG Version: 6.00 Build 0)  -->
<svg version="1.1" id="Layer_1" xmlns="http://www.w3.org/2000/svg" xmlns:xlink="http://www.w3.org/1999/xlink" x="0px" y="0px"
	 viewBox="0 0 512 512" style="enable-background:new 0 0 512 512;" xml:space="preserve">
<g transform="translate(1 1)">
	<path style="fill:#CCCCCC;" d="M442.733,314.733C409.453,314.733,383,288.28,383,255s26.453-59.733,59.733-59.733
		S502.467,221.72,502.467,255S476.013,314.733,442.733,314.733"/>
	<path style="fill:#E2E3E5;" d="M429.933,314.733C404.333,314.733,383,288.28,383,255s21.333-59.733,46.933-59.733
		S476.867,221.72,476.867,255S455.533,314.733,429.933,314.733"/>
	<path style="fill:#FFFFFF;" d="M442.733,314.733c2.56,0,5.12,0,6.827-0.853c-23.04-3.413-40.96-28.16-40.96-58.88
		s17.92-55.467,40.96-58.88c-1.707-0.853-4.267-0.853-6.827-0.853C409.453,195.267,383,221.72,383,255
		S409.453,314.733,442.733,314.733"/>
	<path style="fill:#E2E3E5;" d="M280.6,314.733c-33.28,0-59.733-26.453-59.733-59.733s26.453-59.733,59.733-59.733
		c33.28,0,59.733,26.453,59.733,59.733S313.88,314.733,280.6,314.733"/>
	<path style="fill:#CCCCCC;" d="M255,314.733c-33.28,0-59.733-26.453-59.733-59.733S221.72,195.267,255,195.267
		S314.733,221.72,314.733,255S288.28,314.733,255,314.733"/>
	<path style="fill:#E2E3E5;" d="M242.2,314.733c-25.6,0-46.933-26.453-46.933-59.733s21.333-59.733,46.933-59.733
		S289.133,221.72,289.133,255S267.8,314.733,242.2,314.733"/>
	<path style="fill:#FFFFFF;" d="M255,314.733c2.56,0,5.12,0,6.827-0.853c-23.04-3.413-40.96-28.16-40.96-58.88
		s17.92-55.467,40.96-58.88c-1.707-0.853-4.267-0.853-6.827-0.853c-33.28,0-59.733,26.453-59.733,59.733S221.72,314.733,255,314.733
		"/>
	<path style="fill:#E2E3E5;" d="M92.867,314.733c-33.28,0-59.733-26.453-59.733-59.733s26.453-59.733,59.733-59.733
		S152.6,221.72,152.6,255S126.147,314.733,92.867,314.733"/>
	<path style="fill:#CCCCCC;" d="M67.267,314.733c-33.28,0-59.733-26.453-59.733-59.733s26.453-59.733,59.733-59.733
		S127,221.72,127,255S100.547,314.733,67.267,314.733"/>
	<path style="fill:#E2E3E5;" d="M54.467,314.733c-25.6,0-46.933-26.453-46.933-59.733s21.333-59.733,46.933-59.733
		S101.4,221.72,101.4,255S80.067,314.733,54.467,314.733"/>
	<path style="fill:#FFFFFF;" d="M67.267,314.733c2.56,0,5.12,0,6.827-0.853c-23.04-3.413-40.96-28.16-40.96-58.88
		s17.92-55.467,40.96-58.88c-1.707-0.853-4.267-0.853-6.827-0.853c-33.28,0-59.733,26.453-59.733,59.733
		S33.987,314.733,67.267,314.733"/>
	<g>
		<path style="fill:#B6B6B6;" d="M67.267,323.267C29.72,323.267-1,292.547-1,255s30.72-68.267,68.267-68.267
			s68.267,30.72,68.267,68.267S104.813,323.267,67.267,323.267z M67.267,203.8c-28.16,0-51.2,23.04-51.2,51.2s23.04,51.2,51.2,51.2
			s51.2-23.04,51.2-51.2S95.427,203.8,67.267,203.8z"/>
		<path style="fill:#B6B6B6;" d="M442.733,323.267c-37.547,0-68.267-30.72-68.267-68.267s30.72-68.267,68.267-68.267
			S511,217.453,511,255S480.28,323.267,442.733,323.267z M442.733,203.8c-28.16,0-51.2,23.04-51.2,51.2s23.04,51.2,51.2,51.2
			c28.16,0,51.2-23.04,51.2-51.2S470.893,203.8,442.733,203.8z"/>
		<path style="fill:#B6B6B6;" d="M255,323.267c-37.547,0-68.267-30.72-68.267-68.267s30.72-68.267,68.267-68.267
			s68.267,30.72,68.267,68.267S292.547,323.267,255,323.267z M255,203.8c-28.16,0-51.2,23.04-51.2,51.2s23.04,51.2,51.2,51.2
			s51.2-23.04,51.2-51.2S283.16,203.8,255,203.8z"/>
	</g>
</g>
<g>
</g>
<g>
</g>
<g>
</g>
<g>
</g>
<g>
</g>
<g>
</g>
<g>
</g>
<g>
</g>
<g>
</g>
<g>
</g>
<g>
</g>
<g>
</g>
<g>
</g>
<g>
</g>
<g>
</g>
</svg>
