<?xml version="1.0" encoding="UTF-8" ?>
<!DOCTYPE svg PUBLIC "-//W3C//DTD SVG 1.1//EN" "http://www.w3.org/Graphics/SVG/1.1/DTD/svg11.dtd">
<svg width="4042pt" height="2463pt" viewBox="0 0 4042 2463" version="1.1" xmlns="http://www.w3.org/2000/svg">
<g id="#000000ff">
</g>
<g id="#fbb80fff">
<path fill="#fbb80f" opacity="1.00" d=" M 3463.41 106.42 C 3469.21 105.51 3475.13 106.22 3481.00 105.99 C 3488.07 105.47 3494.95 107.66 3502.05 106.99 C 3524.54 108.99 3546.98 113.21 3568.37 120.62 C 3598.34 130.06 3626.50 144.76 3652.15 162.85 C 3666.74 173.38 3680.80 184.72 3693.25 197.75 C 3697.29 202.03 3701.91 205.81 3705.44 210.57 C 3724.81 232.03 3741.03 256.33 3753.65 282.33 C 3762.64 303.36 3771.91 324.46 3777.20 346.79 C 3779.32 356.36 3781.26 366.05 3781.14 375.88 C 3782.46 381.16 3781.80 386.60 3782.06 391.98 C 3783.06 399.20 3783.66 406.47 3784.29 413.75 C 3785.59 420.08 3784.81 426.60 3784.99 433.02 C 3783.19 453.10 3775.63 473.61 3760.25 487.25 C 3754.19 494.07 3746.62 499.24 3738.84 503.90 C 3729.73 510.01 3719.93 515.40 3709.15 517.83 C 3700.94 520.08 3692.37 519.81 3683.97 519.54 C 3655.94 517.22 3630.33 497.65 3620.56 471.30 C 3612.34 449.06 3614.34 424.98 3610.02 401.99 C 3605.95 381.64 3599.34 361.48 3588.06 343.94 C 3578.14 327.15 3564.17 312.85 3548.02 301.99 C 3534.01 292.22 3517.34 287.36 3500.74 284.27 C 3488.50 282.68 3476.04 280.73 3463.74 282.72 C 3443.62 283.84 3423.80 290.11 3406.59 300.59 C 3390.30 310.77 3375.73 323.82 3364.27 339.27 C 3354.10 353.13 3346.24 368.87 3342.80 385.78 C 3340.17 395.32 3341.15 405.24 3341.00 415.00 C 3340.99 441.33 3341.00 467.67 3341.00 494.00 C 3341.55 518.13 3337.23 543.32 3323.80 563.81 C 3312.80 580.13 3295.81 591.67 3277.59 598.60 C 3265.65 602.62 3252.68 604.58 3240.25 601.75 C 3230.24 599.42 3220.34 595.92 3211.67 590.34 C 3186.50 575.12 3169.02 547.98 3165.12 518.88 C 3164.55 510.59 3165.81 502.17 3164.06 493.98 C 3163.90 478.65 3164.05 463.32 3164.00 448.00 C 3164.02 443.57 3163.64 439.08 3164.74 434.74 C 3165.57 428.00 3164.33 421.14 3165.40 414.42 C 3168.07 392.81 3170.65 371.15 3174.75 349.74 C 3178.87 328.48 3185.62 307.71 3195.32 288.33 C 3209.08 260.45 3227.70 235.33 3247.33 211.34 C 3267.78 186.42 3294.76 168.11 3321.39 150.40 C 3358.79 125.44 3403.00 111.66 3447.58 107.56 C 3452.77 106.33 3458.20 107.69 3463.41 106.42 Z" />
<path fill="#fbb80f" opacity="1.00" d=" M 1438.42 113.40 C 1447.23 112.48 1456.14 113.26 1465.00 113.00 C 1533.34 113.01 1601.69 112.99 1670.03 113.01 C 1679.85 114.31 1689.81 114.51 1699.58 116.42 C 1741.61 122.82 1782.02 138.97 1817.20 162.80 C 1833.92 173.67 1849.49 186.31 1863.26 200.74 C 1891.87 230.67 1913.64 266.86 1928.57 305.42 C 1933.84 319.14 1938.02 333.36 1940.07 347.95 C 1941.18 353.91 1940.94 360.00 1941.99 365.97 C 1942.00 568.99 1942.00 772.01 1941.99 975.03 C 1941.61 979.02 1940.69 982.96 1940.97 987.02 C 1938.73 1008.43 1932.91 1029.27 1926.87 1049.87 C 1922.22 1066.99 1914.03 1082.90 1905.20 1098.20 C 1895.39 1114.88 1883.81 1130.51 1871.01 1145.01 C 1864.59 1152.54 1857.08 1159.09 1850.26 1166.27 C 1839.27 1176.04 1827.93 1185.52 1815.61 1193.60 C 1779.62 1218.59 1737.45 1234.64 1693.96 1239.91 C 1689.92 1239.75 1686.04 1240.95 1682.04 1241.02 C 1583.03 1240.98 1484.02 1241.01 1385.00 1241.00 C 1379.79 1240.73 1374.28 1241.90 1369.37 1239.67 C 1367.25 1238.08 1365.27 1236.13 1364.28 1233.65 C 1363.63 1230.27 1364.35 1226.77 1363.58 1223.42 C 1362.57 1219.01 1363.10 1214.46 1363.00 1210.00 C 1363.00 881.00 1363.01 552.00 1363.00 223.00 C 1363.32 213.33 1362.17 203.54 1363.92 193.97 C 1364.40 175.94 1370.37 157.88 1381.77 143.78 C 1384.70 140.70 1386.84 136.84 1390.55 134.54 C 1403.82 122.85 1420.66 114.76 1438.42 113.40 M 1565.41 285.42 C 1560.86 286.58 1556.10 285.42 1551.56 286.53 C 1546.49 287.39 1541.26 289.03 1537.29 292.34 C 1536.79 295.21 1536.07 298.05 1536.00 300.97 C 1535.99 550.31 1536.01 799.65 1535.99 1049.00 C 1535.90 1054.15 1535.49 1059.88 1538.77 1064.24 C 1544.04 1068.06 1550.86 1067.87 1557.03 1068.94 C 1591.69 1069.08 1626.36 1068.98 1661.02 1068.99 C 1666.92 1068.17 1672.88 1067.87 1678.75 1066.75 C 1693.89 1063.51 1707.93 1056.38 1720.58 1047.58 C 1734.38 1037.52 1746.71 1025.11 1755.21 1010.20 C 1761.28 999.98 1764.88 988.56 1768.21 977.22 C 1770.28 966.94 1772.48 956.53 1772.00 946.00 C 1772.00 776.66 1772.00 607.31 1772.00 437.97 C 1772.11 434.63 1773.27 431.40 1773.03 428.03 C 1772.77 421.94 1773.62 415.74 1772.26 409.74 C 1771.52 404.42 1772.62 398.97 1771.31 393.71 C 1768.67 371.53 1761.00 349.57 1747.16 331.85 C 1743.79 326.94 1739.30 323.00 1735.74 318.26 C 1730.82 314.54 1726.72 309.86 1721.58 306.42 C 1712.22 300.04 1702.61 293.59 1691.64 290.35 C 1682.76 287.44 1673.45 285.88 1664.11 285.85 C 1658.48 284.55 1652.68 285.07 1646.96 284.98 C 1643.27 284.91 1639.73 286.30 1636.04 286.03 C 1622.73 285.86 1609.42 286.21 1596.12 285.86 C 1590.17 284.45 1584.04 285.13 1578.00 285.00 C 1573.80 285.11 1569.55 284.63 1565.41 285.42 Z" />
<path fill="#fbb80f" opacity="1.00" d=" M 2178.58 335.55 C 2186.56 334.07 2194.65 335.42 2202.60 336.41 C 2215.69 338.67 2228.42 343.84 2238.86 352.14 C 2242.74 355.23 2246.84 358.11 2250.28 361.72 C 2260.36 372.54 2268.57 385.52 2271.95 400.05 C 2275.37 416.48 2273.52 433.34 2274.02 450.00 C 2274.38 454.37 2273.45 458.65 2273.01 462.97 C 2272.96 723.30 2273.05 983.64 2272.96 1243.97 C 2215.99 1244.02 2159.01 1244.02 2102.03 1243.97 C 2101.96 1202.97 2102.04 1161.96 2101.99 1120.97 C 2101.98 1118.27 2100.98 1115.71 2101.01 1113.03 C 2100.98 987.67 2101.04 862.32 2100.97 736.96 C 2100.69 733.26 2102.08 729.72 2102.02 726.04 C 2101.98 674.03 2102.01 622.01 2102.00 570.00 C 2101.88 562.98 2102.53 555.89 2101.05 548.98 C 2100.93 508.99 2101.04 468.99 2101.00 429.00 C 2101.07 423.28 2100.55 417.50 2101.83 411.88 C 2101.96 403.06 2104.38 394.44 2107.12 386.12 C 2111.12 377.07 2115.63 367.85 2123.24 361.24 C 2137.39 345.80 2157.99 337.45 2178.58 335.55 Z" />
<path fill="#fbb80f" opacity="1.00" d=" M 369.41 393.39 C 376.57 392.54 383.83 393.18 391.03 393.00 C 403.42 394.18 415.80 397.78 426.15 404.85 C 433.78 410.46 441.25 416.35 447.77 423.24 C 458.74 434.19 466.62 449.18 466.02 465.00 C 465.60 479.82 467.61 495.15 462.40 509.39 C 459.93 518.98 453.17 526.56 447.02 534.01 C 444.77 537.43 441.32 539.66 438.27 542.27 C 426.28 553.05 410.97 559.96 394.98 561.97 C 386.36 561.99 377.72 562.12 369.11 561.90 C 356.23 559.73 343.72 554.69 333.41 546.59 C 326.74 542.04 321.49 535.84 315.77 530.22 C 311.39 524.83 307.42 519.06 303.97 513.03 C 299.05 502.44 296.34 490.70 297.00 479.00 C 296.50 467.18 298.06 455.04 303.34 444.33 C 313.85 420.38 335.56 401.62 360.85 394.86 C 363.62 393.93 366.57 393.99 369.41 393.39 Z" />
<path fill="#fbb80f" opacity="1.00" d=" M 361.39 1410.37 C 380.88 1407.48 400.11 1415.88 414.89 1428.10 C 429.89 1439.32 438.45 1457.29 441.59 1475.42 C 442.82 1481.55 443.15 1487.79 443.99 1493.97 C 444.01 1758.65 443.99 2023.32 444.00 2288.00 C 444.93 2313.30 435.07 2338.49 418.34 2357.34 C 416.06 2360.02 414.19 2363.66 410.43 2364.43 C 401.16 2367.22 391.55 2368.66 381.97 2369.95 C 373.97 2370.11 365.97 2369.92 357.97 2370.03 C 344.58 2370.03 331.82 2363.85 322.11 2354.89 C 317.62 2352.05 314.82 2347.50 311.31 2343.68 C 304.57 2335.24 300.02 2325.02 298.69 2314.28 C 297.41 2309.45 298.59 2304.41 297.42 2299.59 C 296.34 2293.41 297.13 2287.15 297.99 2281.03 C 298.01 2025.01 298.01 1768.99 297.99 1512.97 C 296.84 1505.81 296.62 1498.49 297.26 1491.26 C 298.67 1485.63 297.62 1479.81 298.11 1474.11 C 299.76 1462.64 303.98 1451.39 311.30 1442.31 C 321.40 1428.59 336.32 1419.31 351.85 1412.85 C 354.93 1411.67 358.15 1410.95 361.39 1410.37 Z" />
<path fill="#fbb80f" opacity="1.00" d=" M 985.39 1410.37 C 994.21 1409.50 1003.13 1410.25 1012.00 1410.00 C 1099.67 1410.01 1187.33 1410.00 1275.00 1410.00 C 1281.64 1410.20 1288.42 1409.29 1294.94 1411.04 C 1316.86 1415.26 1334.86 1431.06 1346.49 1449.53 C 1354.28 1459.13 1354.13 1472.27 1354.00 1484.00 C 1354.39 1494.89 1353.48 1506.34 1348.02 1516.02 C 1342.68 1526.20 1334.56 1534.47 1326.15 1542.15 C 1319.44 1547.40 1312.24 1552.14 1304.28 1555.30 C 1293.57 1559.04 1282.12 1557.82 1271.00 1558.00 C 1191.00 1558.00 1111.00 1558.00 1031.00 1558.00 C 1025.94 1558.03 1020.81 1557.60 1015.86 1558.86 C 1010.61 1560.00 1005.22 1559.98 999.95 1560.98 C 991.23 1561.32 982.80 1558.43 974.84 1555.16 C 954.06 1546.74 935.25 1530.67 928.07 1508.91 C 926.59 1505.52 927.23 1501.80 926.72 1498.26 C 925.39 1492.26 926.21 1486.08 926.00 1480.00 C 925.68 1472.13 926.51 1464.22 928.61 1456.63 C 931.24 1445.80 939.61 1437.81 947.26 1430.26 C 958.16 1420.82 971.01 1412.90 985.39 1410.37 Z" />
<path fill="#fbb80f" opacity="1.00" d=" M 1498.42 1445.41 C 1510.86 1426.11 1531.87 1412.03 1554.97 1410.00 C 1621.66 1410.01 1688.34 1409.99 1755.03 1410.01 C 1761.20 1410.86 1767.45 1411.15 1773.58 1412.42 C 1786.26 1415.37 1798.77 1418.95 1811.21 1422.78 C 1819.29 1424.85 1826.99 1428.12 1834.67 1431.34 C 1843.43 1435.89 1852.56 1439.79 1860.95 1445.05 C 1875.76 1453.78 1889.57 1464.17 1902.27 1475.73 C 1910.28 1484.05 1918.99 1491.74 1926.25 1500.75 C 1935.09 1511.43 1943.36 1522.66 1950.32 1534.68 C 1954.83 1541.78 1958.10 1549.56 1962.01 1556.99 C 1966.67 1566.28 1970.24 1576.08 1972.89 1586.13 C 1976.78 1597.50 1980.30 1609.08 1981.96 1621.02 C 1982.05 1688.01 1981.96 1755.01 1982.01 1822.00 C 1981.99 1825.75 1982.26 1829.58 1981.28 1833.27 C 1972.53 1876.62 1954.10 1918.48 1925.26 1952.27 C 1919.01 1960.27 1911.31 1966.98 1904.21 1974.22 C 1899.02 1977.96 1894.81 1982.80 1890.23 1987.23 C 1887.77 1989.49 1884.96 1992.16 1885.28 1995.81 C 1886.06 1999.06 1885.87 2002.43 1886.24 2005.76 C 1888.04 2015.88 1891.28 2025.67 1893.25 2035.76 C 1895.75 2046.79 1898.94 2057.67 1901.25 2068.76 C 1924.80 2163.40 1951.86 2257.10 1975.20 2351.80 C 1976.44 2357.85 1978.84 2363.71 1979.10 2369.93 C 1929.84 2370.08 1880.58 2369.97 1831.32 2369.98 C 1804.74 2278.23 1782.74 2185.25 1758.00 2093.00 C 1753.38 2075.29 1748.22 2057.72 1743.67 2040.01 C 1707.79 2040.01 1671.91 2039.96 1636.03 2040.03 C 1635.96 2116.35 1636.02 2192.68 1636.00 2269.00 C 1635.91 2273.75 1636.41 2278.58 1635.27 2283.26 C 1634.66 2300.53 1631.89 2318.03 1624.99 2334.00 C 1618.55 2347.08 1608.36 2358.73 1595.02 2365.03 C 1589.16 2368.19 1582.45 2369.07 1575.96 2369.92 C 1571.25 2369.76 1566.71 2371.29 1562.02 2371.05 C 1544.59 2370.86 1526.62 2367.06 1512.17 2356.83 C 1508.55 2354.83 1506.27 2351.35 1503.75 2348.24 C 1496.68 2339.08 1490.43 2328.68 1489.02 2316.99 C 1488.96 2182.33 1489.04 2047.67 1488.98 1913.00 C 1488.51 1906.65 1490.57 1900.49 1490.03 1894.14 C 1495.36 1890.87 1501.79 1889.66 1508.00 1889.98 C 1578.33 1890.03 1648.66 1889.99 1719.00 1890.00 C 1730.65 1889.65 1742.43 1890.88 1753.97 1889.01 C 1758.63 1888.57 1763.61 1889.96 1768.03 1888.03 C 1801.65 1876.09 1827.84 1845.18 1834.03 1810.02 C 1835.51 1803.77 1834.89 1797.34 1835.00 1791.00 C 1834.97 1743.67 1835.07 1696.34 1834.95 1649.02 C 1830.11 1608.66 1799.43 1573.03 1760.59 1561.41 C 1754.14 1559.84 1747.68 1557.71 1740.98 1557.98 C 1737.28 1557.81 1733.65 1557.00 1729.99 1557.92 C 1707.67 1558.06 1685.34 1558.02 1663.02 1557.94 C 1656.10 1556.47 1649.01 1557.10 1642.00 1557.00 C 1632.99 1556.99 1623.98 1557.01 1614.98 1556.97 C 1609.93 1556.66 1605.06 1558.50 1600.01 1558.02 C 1589.33 1558.35 1578.53 1557.09 1567.98 1558.95 C 1562.34 1559.04 1556.70 1559.10 1551.08 1558.92 C 1538.90 1556.32 1527.33 1551.07 1517.26 1543.74 C 1511.63 1539.79 1507.11 1534.54 1502.29 1529.70 C 1496.81 1522.31 1491.85 1514.28 1489.79 1505.22 C 1488.73 1500.17 1486.65 1495.26 1486.97 1490.03 C 1487.13 1484.76 1486.69 1479.47 1487.22 1474.23 C 1489.13 1464.07 1492.73 1454.09 1498.42 1445.41 Z" />
<path fill="#fbb80f" opacity="1.00" d=" M 2363.42 1821.40 C 2369.91 1820.39 2376.51 1821.05 2382.97 1821.97 C 2388.72 1821.47 2394.28 1823.40 2400.04 1822.99 C 2405.44 1822.37 2409.89 1826.09 2414.21 1828.78 C 2419.31 1831.87 2423.71 1835.91 2428.27 1839.74 C 2432.64 1845.05 2437.49 1850.08 2440.84 1856.17 C 2444.41 1861.56 2446.24 1867.81 2448.03 1873.96 C 2450.18 1880.59 2447.98 1887.69 2449.59 1894.42 C 2450.78 1899.47 2449.39 1904.59 2448.58 1909.59 C 2446.26 1920.41 2441.00 1930.49 2434.01 1939.02 C 2425.72 1948.99 2415.44 1957.90 2402.89 1961.91 C 2395.52 1964.35 2387.83 1966.50 2380.00 1966.01 C 2374.57 1965.79 2369.04 1966.59 2363.73 1965.28 C 2344.29 1961.82 2325.51 1951.11 2314.78 1934.22 C 2308.21 1924.38 2303.67 1913.20 2301.37 1901.61 C 2298.75 1881.71 2306.70 1861.59 2319.67 1846.67 C 2324.96 1839.32 2332.23 1833.79 2339.42 1828.42 C 2346.62 1823.94 2355.08 1822.13 2363.42 1821.40 Z" />
<path fill="#fbb80f" opacity="1.00" d=" M 2826.11 1823.10 C 2834.28 1821.24 2842.69 1822.23 2851.00 1822.00 C 2924.00 1821.99 2997.00 1822.02 3070.00 1821.98 C 3082.10 1821.42 3093.92 1825.65 3104.20 1831.79 C 3120.47 1841.97 3132.54 1858.80 3136.30 1877.72 C 3137.61 1883.38 3136.76 1889.24 3137.00 1895.00 C 3138.23 1916.62 3126.57 1937.77 3109.22 1950.22 C 3098.63 1957.87 3086.14 1963.31 3073.00 1964.01 C 3069.61 1963.89 3066.39 1965.10 3063.04 1965.02 C 3020.02 1964.98 2976.99 1964.98 2933.97 1965.01 C 2929.35 1965.56 2924.75 1966.33 2920.09 1966.01 C 2917.18 1971.81 2916.24 1978.33 2915.70 1984.72 C 2914.61 1989.40 2915.04 1994.23 2915.00 1999.00 C 2914.98 2015.34 2915.02 2031.68 2914.97 2048.02 C 2914.65 2053.06 2916.50 2057.93 2916.02 2063.00 C 2915.63 2074.32 2916.87 2085.75 2915.01 2096.97 C 2914.97 2126.99 2915.02 2157.02 2914.98 2187.04 C 2914.83 2190.38 2916.13 2193.59 2916.02 2196.96 C 2916.01 2207.94 2915.95 2218.93 2916.02 2229.93 C 2921.73 2229.51 2927.27 2231.38 2932.99 2231.02 C 3003.66 2230.97 3074.33 2231.02 3145.00 2231.00 C 3148.51 2231.10 3152.13 2230.61 3155.63 2231.34 C 3163.29 2233.68 3170.24 2238.57 3174.89 2245.12 C 3183.02 2254.39 3190.10 2264.70 3194.88 2276.12 C 3198.42 2284.90 3201.63 2294.30 3200.91 2303.89 C 3197.82 2323.24 3188.74 2341.91 3174.22 2355.23 C 3164.88 2363.11 3153.35 2369.08 3141.02 2370.00 C 3021.00 2370.01 2900.97 2369.96 2780.95 2370.03 C 2777.94 2370.28 2775.12 2368.91 2772.78 2367.21 C 2771.10 2364.38 2769.04 2361.40 2768.99 2358.02 C 2769.01 2214.34 2769.01 2070.65 2768.99 1926.97 C 2768.45 1922.08 2767.31 1917.17 2768.26 1912.25 C 2769.53 1907.26 2768.74 1902.09 2769.05 1897.03 C 2770.54 1884.37 2773.13 1871.61 2779.31 1860.32 C 2788.76 1842.25 2805.42 1826.52 2826.11 1823.10 Z" />
</g>
<g id="#309fabff">
<path fill="#309fab" opacity="1.00" d=" M 2173.38 107.55 C 2217.35 99.85 2263.36 132.34 2272.32 175.76 C 2274.32 184.36 2273.51 193.23 2274.00 201.98 C 2274.54 221.11 2266.49 239.78 2253.92 253.96 C 2233.42 277.17 2200.71 290.64 2169.88 284.16 C 2138.38 276.61 2112.83 251.22 2101.93 221.11 C 2096.77 209.03 2095.88 195.36 2098.70 182.59 C 2100.28 175.20 2103.34 168.24 2106.37 161.35 C 2118.85 134.49 2143.87 112.86 2173.38 107.55 Z" />
<path fill="#309fab" opacity="1.00" d=" M 303.81 165.85 C 315.91 133.45 350.57 111.45 384.98 113.44 C 449.32 113.56 513.66 113.46 578.00 113.50 C 590.34 113.42 602.69 113.64 615.03 113.93 C 668.30 118.68 719.72 139.55 762.27 171.76 C 785.39 189.41 806.22 210.25 822.74 234.23 C 844.98 265.94 862.59 301.46 870.43 339.57 C 873.24 352.52 874.43 365.76 873.99 379.00 C 874.60 401.67 873.91 424.36 874.45 447.03 C 874.03 486.68 874.35 526.34 874.25 566.00 C 874.15 577.00 874.45 588.00 874.11 599.00 C 872.78 619.53 866.66 639.37 859.57 658.57 C 845.71 697.48 822.66 733.19 792.33 761.31 C 783.32 769.95 773.37 777.73 765.73 787.71 C 762.64 791.42 760.43 796.05 760.71 800.99 C 761.04 809.88 763.75 818.46 766.04 826.99 C 790.16 914.23 812.27 1002.00 835.52 1089.47 C 839.96 1107.32 846.11 1124.68 850.49 1142.56 C 858.73 1174.34 865.86 1206.44 875.63 1237.82 C 865.31 1240.35 854.61 1240.21 844.07 1240.89 C 818.71 1241.37 793.36 1240.56 768.00 1240.75 C 752.00 1240.85 736.00 1240.49 720.00 1241.00 C 714.08 1240.97 708.15 1241.17 702.24 1240.86 C 685.57 1184.95 673.76 1127.68 655.99 1072.08 C 653.55 1063.89 650.28 1055.94 648.29 1047.62 C 635.72 999.55 623.03 951.52 610.42 903.46 C 605.78 886.44 601.75 869.24 596.77 852.32 C 554.02 851.89 511.25 851.84 468.50 852.36 C 468.49 951.24 468.50 1050.12 468.50 1149.00 C 468.64 1157.62 468.47 1166.30 466.78 1174.79 C 463.57 1192.13 454.95 1208.87 440.92 1219.88 C 430.33 1229.49 417.25 1236.29 403.24 1239.27 C 379.71 1244.29 354.14 1240.21 333.76 1227.25 C 321.62 1219.60 311.39 1208.73 305.17 1195.74 C 300.33 1185.53 297.75 1174.27 297.50 1162.98 C 297.50 1024.32 297.50 885.66 297.50 747.00 C 297.79 728.99 296.38 710.94 297.97 692.97 C 298.33 690.37 298.14 687.23 300.42 685.42 C 305.10 680.99 311.98 681.14 318.00 680.99 C 340.67 681.11 363.34 680.75 386.00 681.26 C 445.33 681.24 504.67 681.26 564.00 681.25 C 580.77 681.60 597.67 680.23 613.91 675.89 C 633.59 670.78 652.41 661.36 667.12 647.17 C 690.51 625.64 705.04 594.74 706.45 562.97 C 706.84 541.00 706.93 519.01 706.49 497.03 C 706.51 476.34 706.48 455.65 706.50 434.96 C 707.25 406.06 706.90 375.92 694.94 349.04 C 690.52 338.29 682.60 329.59 674.97 321.03 C 659.62 304.44 640.57 290.23 618.34 284.69 C 605.50 281.27 592.13 282.45 579.00 282.26 C 522.67 281.52 466.34 282.55 410.00 282.25 C 397.09 281.94 384.02 283.25 371.27 280.64 C 347.99 276.12 326.48 262.70 312.58 243.43 C 308.17 237.64 304.78 231.07 302.86 224.03 C 299.06 210.36 299.76 195.98 301.03 182.01 C 301.60 176.57 301.71 170.97 303.81 165.85 Z" />
<path fill="#309fab" opacity="1.00" d=" M 1088.61 343.63 C 1100.14 339.15 1112.70 338.29 1124.96 338.86 C 1163.81 338.69 1199.54 371.44 1203.31 409.99 C 1203.75 419.32 1203.37 428.66 1203.50 438.00 C 1203.49 467.00 1203.60 496.00 1203.25 525.00 C 1203.36 577.00 1203.00 629.01 1203.51 681.00 C 1203.50 795.00 1203.50 909.00 1203.50 1023.00 C 1203.40 1047.33 1203.75 1071.67 1203.24 1095.99 C 1203.26 1125.66 1203.25 1155.33 1203.25 1185.00 C 1202.69 1203.64 1203.20 1222.29 1202.94 1240.94 C 1191.63 1241.07 1180.31 1241.11 1169.00 1240.75 C 1153.33 1240.72 1137.66 1240.76 1122.00 1240.74 C 1094.40 1241.34 1066.80 1240.55 1039.20 1240.67 C 1038.72 1210.46 1039.13 1180.22 1038.99 1150.00 C 1039.18 1127.99 1038.58 1106.00 1038.75 1084.00 C 1038.75 870.33 1038.75 656.67 1038.75 443.00 C 1038.82 430.00 1038.60 416.99 1038.84 403.99 C 1039.53 387.75 1049.73 373.90 1061.10 363.11 C 1069.41 355.57 1077.88 347.57 1088.61 343.63 Z" />
<path fill="#309fab" opacity="1.00" d=" M 1653.16 589.37 C 1686.40 589.26 1719.74 608.45 1734.39 638.63 C 1739.54 650.00 1739.81 662.74 1739.98 675.00 C 1739.60 683.58 1740.69 692.27 1738.79 700.75 C 1735.00 720.72 1721.58 737.83 1704.89 748.92 C 1683.05 763.45 1654.53 769.24 1629.34 760.65 C 1620.76 757.33 1612.18 753.69 1604.63 748.35 C 1582.32 732.86 1567.59 707.08 1565.30 680.04 C 1564.84 662.72 1570.71 645.59 1580.14 631.19 C 1596.11 606.97 1623.69 589.46 1653.16 589.37 Z" />
<path fill="#309fab" opacity="1.00" d=" M 3479.26 666.28 C 3485.12 662.71 3492.14 661.58 3498.91 661.09 C 3514.37 660.29 3529.57 664.26 3545.01 664.25 C 3599.68 664.25 3654.34 664.25 3709.01 664.26 C 3729.68 665.41 3750.47 657.56 3770.92 663.02 C 3775.34 664.33 3780.32 666.00 3782.67 670.34 C 3785.56 675.75 3784.88 682.10 3785.23 688.02 C 3785.39 711.02 3784.79 734.00 3785.01 757.00 C 3784.96 814.02 3785.10 871.04 3784.94 928.06 C 3782.38 953.55 3782.35 979.35 3777.51 1004.57 C 3774.80 1019.23 3769.37 1033.16 3763.98 1046.99 C 3738.29 1110.27 3692.53 1165.48 3634.18 1201.17 C 3603.35 1220.21 3568.80 1232.52 3533.63 1240.68 C 3528.77 1241.73 3523.96 1243.05 3519.04 1243.60 C 3493.75 1245.78 3468.35 1244.86 3443.03 1244.16 C 3433.56 1244.05 3424.30 1241.80 3415.06 1240.00 C 3361.20 1228.56 3309.25 1204.08 3269.57 1165.40 C 3263.15 1158.83 3256.10 1152.88 3249.91 1146.09 C 3207.46 1101.36 3180.34 1043.22 3169.56 982.76 C 3167.88 964.37 3174.23 945.80 3185.09 931.06 C 3200.78 909.79 3225.18 895.30 3251.25 891.21 C 3267.17 888.22 3283.40 893.33 3297.50 900.53 C 3312.22 908.41 3324.93 920.45 3332.49 935.44 C 3342.23 954.35 3347.80 975.04 3356.79 994.28 C 3362.48 1006.53 3369.85 1018.03 3378.84 1028.12 C 3404.37 1056.31 3443.10 1071.55 3480.97 1069.28 C 3514.90 1068.51 3546.22 1051.21 3570.82 1028.80 C 3582.00 1018.93 3590.77 1006.50 3596.95 992.97 C 3605.09 975.33 3609.00 956.00 3610.48 936.71 C 3611.31 926.49 3610.90 916.24 3611.00 906.00 C 3610.98 890.33 3611.01 874.67 3610.99 859.00 C 3610.88 851.39 3611.61 843.79 3611.11 836.19 C 3566.17 833.62 3521.07 837.72 3476.20 833.41 C 3475.20 793.94 3478.41 754.44 3476.04 714.99 C 3475.54 703.67 3473.38 692.30 3475.24 680.99 C 3476.11 676.01 3476.75 670.74 3479.26 666.28 Z" />
<path fill="#309fab" opacity="1.00" d=" M 2504.40 1072.52 C 2539.88 1067.45 2575.87 1088.38 2592.73 1119.31 C 2601.22 1134.52 2604.47 1152.53 2601.73 1169.75 C 2596.40 1205.97 2566.19 1236.72 2530.30 1243.38 C 2512.52 1246.76 2493.71 1243.58 2477.74 1235.16 C 2460.77 1226.29 2446.76 1212.02 2437.90 1195.07 C 2429.55 1178.69 2425.07 1159.27 2430.19 1141.19 C 2438.64 1106.58 2468.26 1076.57 2504.40 1072.52 Z" />
<path fill="#309fab" opacity="1.00" d=" M 2367.41 1411.41 C 2373.65 1410.70 2380.04 1410.66 2386.26 1411.69 C 2424.37 1413.14 2461.65 1424.41 2495.67 1441.32 C 2514.23 1450.77 2531.83 1462.02 2548.44 1474.57 C 2555.32 1480.30 2562.25 1486.05 2568.13 1492.87 C 2572.72 1498.63 2577.35 1504.41 2581.40 1510.59 C 2587.71 1520.93 2594.64 1530.91 2600.46 1541.56 C 2610.22 1558.06 2618.29 1575.59 2624.14 1593.87 C 2628.14 1605.21 2630.49 1617.10 2631.88 1629.03 C 2631.79 1633.70 2632.69 1638.30 2633.00 1642.96 C 2633.02 1800.31 2633.00 1957.65 2633.01 2115.00 C 2632.70 2125.34 2633.79 2135.77 2632.12 2146.03 C 2631.79 2170.03 2624.78 2193.45 2615.33 2215.33 C 2608.14 2232.28 2598.90 2248.29 2588.41 2263.41 C 2576.17 2281.11 2562.39 2297.99 2545.78 2311.77 C 2533.72 2323.04 2520.31 2332.99 2505.67 2340.66 C 2478.76 2352.01 2451.70 2365.40 2422.04 2367.02 C 2393.69 2366.97 2365.34 2367.01 2337.00 2367.00 C 2331.26 2366.95 2325.48 2367.36 2319.83 2366.21 C 2298.62 2363.80 2278.85 2355.20 2259.66 2346.35 C 2223.89 2329.55 2192.74 2303.48 2168.99 2272.01 C 2164.03 2265.25 2158.64 2258.77 2154.55 2251.44 C 2149.85 2243.35 2144.62 2235.49 2141.24 2226.73 C 2124.82 2192.17 2117.58 2153.97 2114.98 2116.04 C 2115.02 1968.01 2115.01 1819.99 2114.98 1671.96 C 2116.67 1646.55 2120.18 1621.07 2127.60 1596.62 C 2133.40 1576.42 2142.44 1557.26 2153.30 1539.31 C 2161.05 1525.84 2170.57 1513.46 2180.77 1501.76 C 2185.83 1497.14 2189.41 1491.11 2194.87 1486.88 C 2198.13 1484.51 2200.89 1481.57 2203.76 1478.76 C 2219.43 1464.98 2236.62 1452.92 2254.93 1442.91 C 2273.91 1431.62 2295.05 1424.61 2316.42 1419.43 C 2333.18 1415.44 2350.28 1413.04 2367.41 1411.41 M 2361.41 1557.39 C 2354.42 1558.17 2347.61 1559.97 2340.87 1561.88 C 2323.05 1567.37 2307.60 1578.51 2294.23 1591.23 C 2287.54 1598.97 2280.79 1606.76 2275.71 1615.69 C 2265.44 1632.66 2259.34 1652.17 2258.00 1671.95 C 2258.00 1818.98 2258.00 1966.01 2258.00 2113.04 C 2259.58 2134.95 2266.67 2156.66 2279.18 2174.81 C 2284.65 2183.14 2290.95 2190.94 2298.23 2197.77 C 2318.03 2217.19 2345.32 2226.31 2372.11 2230.87 C 2384.75 2232.20 2396.78 2227.01 2408.12 2222.13 C 2414.63 2219.17 2421.99 2218.69 2428.36 2215.36 C 2435.35 2212.04 2440.84 2206.48 2447.21 2202.22 C 2451.18 2199.60 2454.40 2196.05 2458.20 2193.21 C 2479.98 2172.30 2494.23 2142.53 2493.01 2112.00 C 2493.00 1963.32 2493.01 1814.64 2493.00 1665.96 C 2492.42 1657.65 2490.80 1649.42 2488.58 1641.41 C 2482.63 1623.06 2472.87 1605.55 2458.75 1592.25 C 2453.36 1586.57 2447.58 1581.25 2441.01 1576.99 C 2422.52 1563.86 2399.82 1555.87 2377.00 1557.00 C 2371.80 1557.10 2366.56 1556.64 2361.41 1557.39 Z" />
<path fill="#309fab" opacity="1.00" d=" M 2831.42 1617.40 C 2837.81 1616.72 2844.32 1616.79 2850.74 1617.30 C 2855.66 1618.40 2860.90 1617.33 2865.67 1619.31 C 2875.01 1622.78 2883.97 1627.83 2890.85 1635.16 C 2899.10 1642.58 2905.29 1651.94 2910.12 1661.88 C 2918.23 1677.90 2917.67 1697.39 2910.75 1713.74 C 2907.24 1723.36 2900.95 1731.64 2894.25 1739.25 C 2882.45 1749.86 2867.40 1758.91 2850.97 1757.99 C 2846.58 1757.68 2842.35 1759.16 2838.00 1759.04 C 2825.18 1758.31 2812.34 1754.69 2801.78 1747.23 C 2785.19 1736.65 2774.87 1718.16 2772.02 1698.97 C 2768.43 1680.41 2774.53 1661.23 2784.76 1645.77 C 2791.67 1636.05 2800.92 1628.13 2811.32 1622.33 C 2817.58 1619.24 2824.52 1618.06 2831.42 1617.40 Z" />
<path fill="#309fab" opacity="1.00" d=" M 520.39 1822.38 C 533.21 1821.45 546.14 1822.30 559.01 1821.97 C 568.75 1821.30 578.06 1825.59 585.74 1831.25 C 596.57 1839.14 604.47 1850.20 611.68 1861.31 C 614.95 1867.69 615.10 1875.01 615.96 1881.98 C 615.92 1889.36 616.53 1896.82 615.19 1904.13 C 614.53 1909.03 615.87 1914.20 613.92 1918.91 C 611.20 1925.67 606.77 1931.58 602.22 1937.22 C 596.05 1943.39 590.26 1950.10 582.81 1954.80 C 573.78 1960.47 563.62 1964.68 552.98 1965.95 C 544.12 1965.93 535.11 1966.71 526.43 1964.55 C 507.02 1959.50 490.18 1946.23 479.87 1929.15 C 475.76 1920.77 471.95 1912.17 469.95 1903.02 C 468.42 1897.80 469.12 1892.31 468.96 1886.97 C 468.77 1882.70 469.79 1878.46 471.64 1874.64 C 473.42 1870.88 474.34 1866.80 476.01 1863.00 C 480.64 1853.24 487.34 1844.57 495.24 1837.24 C 502.57 1830.79 510.34 1823.86 520.39 1822.38 Z" />
<path fill="#309fab" opacity="1.00" d=" M 959.18 1831.18 C 968.62 1825.15 979.73 1821.49 991.00 1821.97 C 1063.67 1822.03 1136.33 1821.98 1209.00 1822.00 C 1218.29 1822.30 1227.71 1821.13 1236.89 1823.10 C 1249.74 1825.20 1261.47 1832.24 1270.26 1841.73 C 1278.60 1849.61 1285.50 1859.50 1288.23 1870.78 C 1289.57 1876.42 1291.27 1882.10 1291.03 1887.98 C 1290.88 1894.66 1291.52 1901.43 1290.05 1908.02 C 1286.62 1929.70 1270.96 1948.18 1251.30 1957.30 C 1243.14 1960.37 1234.76 1963.10 1226.06 1964.10 C 1218.12 1965.63 1210.02 1964.81 1202.00 1965.00 C 1158.02 1965.05 1114.04 1964.91 1070.06 1965.06 C 1069.74 1974.32 1070.34 1983.61 1069.81 1992.87 C 1068.56 1999.17 1069.07 2005.61 1069.00 2012.00 C 1068.99 2077.34 1069.03 2142.69 1068.98 2208.04 C 1068.85 2211.71 1069.97 2215.28 1070.00 2218.96 C 1070.02 2222.54 1069.95 2226.14 1070.06 2229.75 C 1076.56 2231.57 1083.33 2230.91 1090.00 2230.99 C 1158.66 2230.99 1227.33 2231.00 1296.00 2230.99 C 1300.64 2231.10 1305.46 2230.38 1309.92 2232.06 C 1317.71 2234.37 1324.41 2239.24 1330.30 2244.71 C 1332.53 2246.79 1335.28 2248.35 1337.16 2250.82 C 1343.53 2261.16 1349.04 2272.19 1351.95 2284.05 C 1352.94 2288.97 1353.41 2294.00 1354.00 2299.00 C 1353.95 2311.22 1350.75 2323.33 1345.21 2334.21 C 1340.35 2343.26 1333.34 2350.93 1325.59 2357.58 C 1316.60 2364.00 1306.23 2369.28 1295.03 2369.99 C 1182.02 2370.01 1069.01 2369.99 956.00 2370.00 C 948.45 2369.87 940.77 2370.67 933.39 2368.63 C 930.61 2367.81 926.60 2367.67 925.65 2364.34 C 924.09 2359.40 923.29 2354.20 922.99 2349.04 C 923.00 2205.03 923.01 2061.01 922.99 1917.00 C 922.65 1909.18 923.89 1901.45 924.67 1893.71 C 926.72 1876.62 931.81 1859.35 942.77 1845.78 C 947.95 1840.61 952.75 1834.86 959.18 1831.18 Z" />
<path fill="#309fab" opacity="1.00" d=" M 3509.39 2039.37 C 3513.87 2038.64 3518.45 2039.08 3523.00 2038.97 C 3537.90 2038.29 3552.31 2044.29 3564.41 2052.60 C 3580.62 2063.75 3592.20 2081.77 3594.62 2101.40 C 3595.36 2106.55 3594.85 2111.79 3595.02 2117.00 C 3595.84 2136.15 3586.07 2154.49 3572.27 2167.27 C 3561.00 2177.87 3546.42 2185.20 3530.98 2186.94 C 3524.30 2187.12 3517.62 2186.94 3510.96 2187.03 C 3506.41 2187.11 3502.10 2185.52 3497.85 2184.17 C 3487.05 2180.88 3477.98 2173.71 3469.72 2166.28 C 3463.61 2159.56 3458.00 2152.30 3453.69 2144.30 C 3451.83 2140.90 3452.08 2136.96 3451.65 2133.27 C 3450.47 2126.57 3451.14 2119.75 3451.01 2113.00 C 3451.15 2106.23 3450.48 2099.41 3451.64 2092.72 C 3452.03 2089.08 3452.09 2085.26 3454.02 2082.03 C 3459.95 2071.98 3468.37 2063.74 3476.86 2055.86 C 3486.54 2048.47 3497.11 2041.31 3509.39 2039.37 Z" />
</g>
<g id="#e72e7aff">
<path fill="#e72e7a" opacity="1.00" d=" M 1112.41 109.39 C 1116.99 108.67 1121.71 108.81 1126.27 109.66 C 1150.24 111.74 1173.47 123.61 1188.45 142.55 C 1201.82 159.50 1207.97 181.55 1206.93 202.97 C 1204.98 222.23 1198.03 242.08 1183.26 255.26 C 1176.70 262.69 1168.22 268.10 1159.35 272.36 C 1149.48 277.07 1139.11 281.52 1128.04 282.02 C 1121.02 281.85 1113.90 282.59 1106.98 281.05 C 1083.22 276.55 1061.11 262.39 1048.29 241.71 C 1041.48 230.83 1037.28 217.91 1037.99 205.00 C 1038.22 191.08 1036.80 176.76 1041.33 163.34 C 1044.75 152.84 1051.88 144.19 1058.86 135.85 C 1073.05 121.44 1091.98 110.93 1112.41 109.39 Z" />
<path fill="#e72e7a" opacity="1.00" d=" M 2839.04 110.04 C 2896.35 109.97 2953.65 109.97 3010.96 110.04 C 3011.09 131.70 3010.92 153.37 3011.03 175.02 C 3012.79 185.92 3011.70 197.01 3012.00 208.00 C 3012.00 538.67 3012.00 869.33 3012.00 1200.00 C 3011.67 1211.99 3012.84 1224.08 3011.05 1235.98 C 3010.93 1237.63 3010.91 1239.29 3010.90 1240.97 C 2955.93 1241.05 2900.96 1240.97 2846.00 1241.00 C 2837.43 1241.05 2828.85 1240.79 2820.31 1241.35 C 2811.68 1240.21 2802.77 1242.31 2794.37 1239.66 C 2790.39 1239.22 2788.68 1235.24 2786.67 1232.34 C 2782.23 1223.86 2780.31 1214.35 2777.79 1205.20 C 2771.14 1177.79 2763.00 1150.78 2755.33 1123.65 C 2748.74 1101.23 2743.03 1078.57 2737.00 1056.00 C 2719.13 989.26 2700.08 922.83 2681.78 856.21 C 2674.83 831.32 2668.61 806.23 2661.66 781.35 C 2648.78 735.18 2635.63 689.08 2623.18 642.79 C 2618.99 627.28 2615.18 611.58 2613.41 595.58 C 2612.83 591.39 2613.20 587.08 2611.78 583.03 C 2609.24 582.96 2606.72 582.96 2604.22 583.01 C 2602.79 595.33 2601.29 607.64 2600.03 619.97 C 2599.86 624.74 2600.38 629.57 2599.27 634.27 C 2598.28 638.53 2600.01 642.70 2600.01 646.96 C 2599.98 741.98 2600.01 837.01 2600.00 932.03 C 2598.37 948.87 2590.77 964.94 2579.46 977.46 C 2576.66 981.66 2572.33 984.34 2568.67 987.67 C 2554.85 999.15 2537.39 1006.38 2519.42 1007.47 C 2514.63 1008.80 2509.85 1007.00 2505.05 1006.92 C 2494.93 1006.11 2485.87 1001.15 2476.65 997.35 C 2467.09 992.38 2457.66 986.67 2450.22 978.78 C 2440.66 969.78 2434.95 957.32 2432.42 944.59 C 2431.00 938.14 2430.95 931.53 2430.03 925.02 C 2430.21 915.66 2429.24 906.20 2430.94 896.95 C 2430.14 890.49 2429.33 883.91 2430.42 877.42 C 2431.38 872.67 2430.90 867.80 2431.00 863.00 C 2431.01 664.00 2430.98 465.00 2431.01 266.00 C 2431.22 261.62 2430.79 257.28 2430.08 252.97 C 2430.10 244.95 2429.37 236.82 2430.82 228.87 C 2430.78 212.78 2435.70 197.04 2442.65 182.64 C 2449.27 170.46 2457.41 159.04 2467.22 149.22 C 2488.96 128.64 2517.36 112.85 2547.97 112.90 C 2552.04 112.25 2556.19 111.50 2560.27 112.70 C 2585.15 113.24 2609.89 121.39 2630.22 135.78 C 2646.31 147.07 2658.95 162.95 2667.34 180.66 C 2677.46 200.18 2682.57 221.70 2688.23 242.80 C 2724.19 375.62 2761.81 507.98 2798.34 640.65 C 2804.40 663.95 2811.66 686.96 2816.45 710.59 C 2818.83 721.92 2821.75 733.20 2826.03 743.98 C 2829.51 751.02 2832.34 758.69 2837.91 764.42 C 2838.12 741.60 2837.94 718.78 2837.99 695.96 C 2837.93 692.61 2839.03 689.38 2839.00 686.04 C 2838.97 620.35 2839.04 554.66 2838.97 488.97 C 2837.30 479.07 2838.22 469.00 2838.00 459.00 C 2838.02 388.99 2837.96 318.98 2838.03 248.97 C 2839.72 238.74 2838.75 228.33 2839.00 218.00 C 2839.03 182.01 2838.94 146.03 2839.04 110.04 Z" />
<path fill="#e72e7a" opacity="1.00" d=" M 3243.39 661.38 C 3249.53 660.59 3255.78 661.07 3261.97 661.05 C 3274.21 662.68 3286.27 666.56 3296.70 673.28 C 3303.02 676.73 3308.13 681.84 3313.67 686.34 C 3320.51 693.99 3327.39 701.88 3331.69 711.33 C 3341.64 729.54 3343.82 751.78 3337.59 771.59 C 3334.38 782.81 3328.76 793.31 3321.21 802.20 C 3318.01 805.37 3315.71 809.40 3311.90 811.91 C 3295.66 827.31 3273.38 836.06 3251.04 835.95 C 3230.85 834.60 3211.50 825.92 3196.26 812.75 C 3178.49 796.27 3167.20 773.10 3164.97 748.98 C 3166.18 728.11 3174.39 707.82 3187.78 691.78 C 3194.71 684.65 3201.59 677.11 3210.64 672.61 C 3220.58 666.50 3232.04 663.61 3243.39 661.38 Z" />
<path fill="#e72e7a" opacity="1.00" d=" M 644.06 1414.23 C 646.76 1411.80 650.16 1409.67 653.95 1409.97 C 698.57 1410.10 743.20 1409.86 787.81 1410.09 C 791.08 1411.50 794.14 1415.16 794.01 1418.98 C 793.99 1730.32 794.00 2041.66 794.00 2353.00 C 793.90 2358.75 795.03 2365.24 791.06 2370.07 C 789.37 2373.35 785.37 2373.97 782.04 2374.02 C 748.69 2373.97 715.34 2374.01 682.00 2374.00 C 668.84 2374.45 655.70 2372.29 643.04 2368.83 C 642.94 2078.22 643.03 1787.61 643.00 1497.00 C 643.09 1492.47 642.65 1487.90 643.42 1483.42 C 644.39 1478.67 643.91 1473.80 644.00 1469.00 C 644.04 1450.74 643.91 1432.48 644.06 1414.23 Z" />
<path fill="#e72e7a" opacity="1.00" d=" M 3444.42 1422.43 C 3463.02 1417.32 3481.53 1410.83 3500.96 1409.98 C 3514.29 1410.08 3527.63 1409.86 3540.97 1410.08 C 3546.85 1411.24 3552.93 1410.62 3558.76 1412.22 C 3581.59 1417.92 3604.82 1422.84 3626.35 1432.64 C 3637.17 1436.88 3647.11 1442.98 3657.06 1448.93 C 3673.64 1458.84 3688.58 1471.22 3702.77 1484.23 C 3726.01 1507.43 3746.10 1534.12 3760.00 1564.00 C 3765.77 1574.06 3768.90 1585.47 3769.96 1596.98 C 3769.62 1602.36 3771.38 1607.68 3770.12 1613.03 C 3770.20 1622.45 3768.88 1632.38 3763.24 1640.23 C 3756.17 1651.28 3744.80 1658.51 3733.35 1664.34 C 3728.36 1666.31 3723.62 1669.51 3718.06 1669.14 C 3711.80 1670.38 3705.42 1669.77 3699.13 1670.17 C 3693.10 1671.39 3686.88 1671.32 3680.86 1670.22 C 3673.45 1669.99 3666.15 1667.84 3659.66 1664.33 C 3653.06 1660.46 3648.19 1654.47 3642.73 1649.26 C 3637.47 1644.34 3633.78 1638.10 3629.79 1632.21 C 3623.59 1622.74 3618.18 1612.74 3611.13 1603.86 C 3608.50 1600.81 3605.41 1598.18 3603.12 1594.87 C 3599.82 1590.47 3595.02 1587.64 3591.23 1583.76 C 3578.41 1572.57 3563.12 1563.31 3545.99 1561.04 C 3533.41 1560.66 3520.74 1561.68 3508.23 1560.35 C 3502.82 1561.46 3497.22 1560.42 3491.88 1561.87 C 3480.14 1564.22 3469.82 1570.54 3459.86 1576.87 C 3452.24 1582.48 3444.70 1588.30 3438.27 1595.27 C 3433.85 1600.56 3429.25 1605.73 3425.59 1611.59 C 3418.13 1622.74 3410.84 1635.12 3411.00 1648.97 C 3411.38 1654.36 3409.61 1659.59 3409.98 1664.99 C 3410.18 1671.90 3409.61 1678.84 3410.29 1685.73 C 3411.87 1692.26 3409.84 1699.21 3412.42 1705.57 C 3418.31 1719.36 3426.87 1731.96 3437.11 1742.88 C 3440.53 1747.40 3444.58 1751.46 3449.12 1754.88 C 3461.36 1766.56 3475.28 1776.31 3489.40 1785.60 C 3522.60 1808.01 3557.70 1827.40 3592.05 1847.94 C 3625.29 1867.92 3658.09 1889.05 3687.23 1914.77 C 3689.99 1917.68 3693.44 1919.84 3696.26 1922.73 C 3703.24 1929.75 3710.24 1936.75 3717.26 1943.74 C 3723.81 1949.90 3729.27 1957.10 3734.86 1964.13 C 3744.20 1975.93 3751.45 1989.17 3758.69 2002.31 C 3764.78 2015.67 3770.64 2029.21 3774.63 2043.37 C 3775.96 2048.50 3778.38 2053.53 3778.03 2058.97 C 3777.82 2064.00 3777.98 2069.05 3778.92 2074.03 C 3779.12 2091.68 3778.93 2109.34 3779.00 2127.00 C 3778.85 2137.66 3779.58 2148.38 3778.00 2158.96 C 3779.02 2170.62 3774.75 2181.71 3771.80 2192.79 C 3759.70 2231.45 3737.04 2266.11 3709.77 2295.77 C 3702.81 2303.21 3694.69 2309.40 3686.86 2315.87 C 3662.74 2334.82 3635.91 2350.42 3607.13 2361.11 C 3598.15 2364.03 3589.31 2367.64 3579.90 2368.86 C 3576.15 2369.09 3572.39 2368.87 3568.74 2369.72 C 3560.47 2370.66 3552.06 2369.08 3543.88 2370.83 C 3534.24 2371.25 3524.59 2370.86 3514.96 2371.03 C 3510.92 2371.18 3507.04 2369.81 3503.04 2369.98 C 3494.68 2370.01 3486.34 2369.98 3478.00 2370.02 C 3468.42 2370.54 3459.26 2367.19 3450.12 2364.90 C 3417.57 2355.93 3387.17 2340.03 3360.32 2319.69 C 3347.13 2309.33 3334.27 2298.35 3323.99 2285.01 C 3311.32 2269.62 3299.85 2253.24 3290.17 2235.82 C 3279.15 2216.46 3271.58 2195.33 3266.23 2173.77 C 3265.19 2168.21 3263.84 2162.66 3263.97 2156.98 C 3263.99 2153.29 3262.79 2149.72 3262.98 2146.03 C 3263.04 2135.37 3262.91 2124.70 3263.04 2114.04 C 3275.36 2113.92 3287.67 2114.04 3300.00 2114.00 C 3307.34 2113.89 3314.76 2114.50 3322.03 2113.08 C 3335.66 2112.93 3349.32 2112.94 3362.97 2113.08 C 3370.22 2114.51 3377.64 2113.88 3385.00 2114.00 C 3391.93 2114.03 3398.88 2113.91 3405.84 2114.03 C 3407.33 2117.60 3406.86 2121.55 3407.71 2125.29 C 3409.73 2138.02 3412.56 2150.86 3418.64 2162.34 C 3423.17 2171.87 3430.12 2180.04 3437.76 2187.23 C 3440.58 2189.75 3442.39 2193.25 3445.56 2195.44 C 3449.98 2198.99 3453.46 2203.61 3458.27 2206.73 C 3471.27 2217.48 3487.87 2222.47 3504.11 2225.89 C 3509.43 2227.17 3514.94 2226.69 3520.30 2227.74 C 3523.20 2228.27 3526.05 2227.02 3528.99 2227.07 C 3535.91 2227.17 3542.61 2225.15 3549.20 2223.22 C 3557.61 2221.21 3565.89 2218.47 3573.69 2214.69 C 3592.65 2204.97 3608.13 2189.35 3619.40 2171.40 C 3627.67 2158.95 3632.64 2144.51 3634.71 2129.75 C 3635.17 2122.75 3637.03 2115.71 3635.31 2108.74 C 3634.80 2097.94 3632.43 2087.30 3628.86 2077.12 C 3624.20 2065.90 3617.39 2055.67 3609.67 2046.34 C 3604.36 2040.95 3600.18 2034.45 3593.88 2030.11 C 3579.00 2016.31 3562.14 2004.88 3545.18 1993.83 C 3481.44 1953.52 3413.31 1919.44 3355.19 1870.81 C 3348.48 1865.20 3341.70 1859.66 3335.75 1853.25 C 3307.25 1826.28 3285.81 1792.12 3272.86 1755.14 C 3265.59 1734.16 3261.43 1712.15 3259.98 1690.04 C 3260.01 1677.01 3260.00 1663.99 3259.98 1650.97 C 3261.44 1628.09 3266.80 1605.48 3275.17 1584.14 C 3283.36 1562.86 3293.49 1542.24 3306.42 1523.42 C 3311.56 1516.59 3316.56 1509.64 3322.19 1503.19 C 3327.66 1496.06 3334.56 1490.23 3340.75 1483.74 C 3346.38 1477.65 3353.03 1472.67 3359.44 1467.43 C 3368.47 1459.91 3378.39 1453.52 3388.43 1447.42 C 3396.99 1441.99 3406.35 1438.02 3415.32 1433.32 C 3424.69 1428.89 3434.51 1425.47 3444.42 1422.43 Z" />
<path fill="#e72e7a" opacity="1.00" d=" M 2834.41 1413.39 C 2844.56 1412.48 2854.80 1413.25 2865.00 1413.00 C 2950.66 1413.00 3036.33 1413.00 3122.00 1413.00 C 3130.60 1412.75 3139.29 1412.89 3147.61 1415.40 C 3166.88 1421.41 3183.60 1435.40 3192.37 1453.65 C 3197.41 1463.20 3199.40 1474.04 3199.73 1484.72 C 3198.86 1491.50 3198.53 1498.46 3195.91 1504.89 C 3190.23 1523.26 3176.99 1539.03 3160.00 1547.99 C 3153.02 1550.98 3145.73 1553.88 3138.04 1554.03 C 3038.36 1553.97 2938.68 1554.00 2839.00 1554.01 C 2818.12 1555.25 2797.94 1543.79 2785.74 1527.25 C 2779.00 1518.33 2774.60 1507.66 2772.27 1496.76 C 2771.97 1491.87 2770.46 1487.05 2771.14 1482.13 C 2772.27 1476.33 2771.77 1470.31 2773.64 1464.63 C 2778.93 1444.71 2793.83 1428.07 2812.32 1419.30 C 2819.13 1415.66 2826.77 1414.04 2834.41 1413.39 Z" />
<path fill="#e72e7a" opacity="1.00" d=" M 987.40 1614.38 C 993.88 1613.61 1000.45 1614.06 1006.97 1614.05 C 1017.33 1615.35 1027.72 1618.52 1036.16 1624.84 C 1047.78 1632.69 1057.79 1643.21 1064.26 1655.73 C 1067.67 1663.34 1070.50 1671.52 1070.03 1679.99 C 1069.55 1690.04 1071.29 1700.38 1068.15 1710.15 C 1064.33 1722.00 1057.32 1732.73 1048.27 1741.27 C 1034.97 1755.40 1015.26 1762.67 996.00 1762.03 C 986.62 1762.26 976.99 1760.73 968.57 1756.43 C 959.31 1752.32 951.00 1746.29 944.23 1738.76 C 936.83 1732.32 932.36 1723.40 928.42 1714.60 C 925.73 1707.33 923.16 1699.86 922.98 1692.04 C 921.88 1669.44 932.45 1647.10 949.19 1632.19 C 959.18 1621.71 973.30 1616.37 987.40 1614.38 Z" />
<path fill="#e72e7a" opacity="1.00" d=" M 1552.39 1648.38 C 1559.69 1647.70 1567.31 1647.35 1574.42 1649.56 C 1582.45 1651.40 1589.70 1655.45 1597.14 1658.86 C 1616.95 1669.27 1629.75 1689.84 1634.85 1711.18 C 1636.57 1716.68 1636.27 1722.56 1635.21 1728.16 C 1633.36 1744.77 1626.41 1760.81 1615.37 1773.36 C 1611.88 1778.21 1606.85 1781.55 1602.30 1785.31 C 1595.64 1789.74 1588.43 1794.88 1579.99 1794.06 C 1570.40 1795.63 1560.66 1794.79 1550.99 1795.03 C 1542.78 1795.42 1534.77 1792.85 1527.32 1789.67 C 1518.77 1784.53 1510.28 1778.90 1503.86 1771.15 C 1495.36 1760.74 1489.87 1747.82 1488.52 1734.43 C 1486.66 1725.27 1489.48 1716.15 1489.01 1706.97 C 1489.81 1694.47 1496.28 1682.79 1505.23 1674.23 C 1517.53 1660.68 1534.97 1652.97 1552.39 1648.38 Z" />
</g>
</svg>
