<?xml version="1.0" encoding="iso-8859-1"?>
<!-- Generator: Adobe Illustrator 19.0.0, SVG Export Plug-In . SVG Version: 6.00 Build 0)  -->
<svg version="1.1" id="Layer_1" xmlns="http://www.w3.org/2000/svg" xmlns:xlink="http://www.w3.org/1999/xlink" x="0px" y="0px"
	 viewBox="0 0 511.99 511.99" style="enable-background:new 0 0 511.99 511.99;" xml:space="preserve">
<path style="fill:#E9573F;" d="M170.664,447.991c-4.859,0-9.249-3.328-10.39-8.25c-0.109-0.5-10.141-41.765-42.219-58.28
	c-19.296-9.938-43.296-9.125-71.326,2.406c-5.453,2.219-11.688-0.375-13.922-5.812c-2.25-5.453,0.359-11.688,5.812-13.937
	c34.14-14.031,64.218-14.562,89.373-1.531c40.905,21.155,52.593,70.279,53.077,72.342c1.312,5.75-2.281,11.469-8.016,12.781
	C172.258,447.897,171.445,447.991,170.664,447.991z"/>
<path style="fill:#434A54;" d="M426.651,511.99c-35.279,0-63.998-28.719-63.998-63.999s28.719-63.999,63.998-63.999
	c35.312,0,64,28.719,64,63.999S461.964,511.99,426.651,511.99z M426.651,405.336c-23.53,0-42.654,19.124-42.654,42.655
	c0,23.53,19.124,42.655,42.654,42.655c23.531,0,42.688-19.125,42.688-42.655C469.339,424.46,450.183,405.336,426.651,405.336z"/>
<path style="fill:#FC6E51;" d="M382.434,409.492c14.718-11.031,27.53-14.656,28.093-14.797l0.125-0.047v-34.655
	c-0.125,0-13.156,0.844-30.874,10.062c-16.344,8.531-40.219,26.188-60.969,61.968l-3.093,5.312h-167.27
	c0.594,3.5,0.891,7.062,0.891,10.656v0.531l-1.172,11.734l-0.109,0.516c-0.594,2.906-1.391,5.749-2.375,8.562h195.66l0,0
	C349.278,444.147,363.122,424.022,382.434,409.492z"/>
<path style="fill:#656D78;" d="M136.852,465.429l-30.187-17.438l30.187-17.438c5.109-2.938,6.859-9.469,3.906-14.562
	c-2.938-5.093-9.469-6.843-14.562-3.905l-30.187,17.437v-34.874c0-5.875-4.781-10.656-10.672-10.656
	c-5.891,0-10.672,4.781-10.672,10.656v34.874l-30.187-17.437c-5.094-2.938-11.625-1.188-14.562,3.905
	c-2.953,5.094-1.203,11.625,3.906,14.562l30.187,17.438l-30.187,17.438c-5.109,2.937-6.859,9.468-3.906,14.562
	c1.969,3.422,5.562,5.344,9.25,5.344c1.797,0,3.641-0.469,5.312-1.438l30.187-17.438v34.875c0,5.875,4.781,10.656,10.672,10.656
	c5.891,0,10.672-4.781,10.672-10.656v-34.875l30.187,17.438c1.672,0.969,3.5,1.438,5.312,1.438c3.688,0,7.281-1.922,9.25-5.344
	C143.712,474.896,141.962,468.365,136.852,465.429z"/>
<path style="fill:#E6E9ED;" d="M426.651,463.991c8.844,0,16-7.75,16-17.297V31.999h-31.999V446.71
	C410.652,456.241,417.839,463.991,426.651,463.991z"/>
<rect x="410.655" y="159.995" style="fill:#FC6E51;" width="31.999" height="149.34"/>
<path style="fill:#434A54;" d="M383.997,42.663c0,23.562,19.093,42.671,42.654,42.671c23.562,0,42.688-19.109,42.688-42.671
	S450.214,0,426.651,0C403.09,0,383.997,19.1,383.997,42.663z"/>
<path style="fill:#F5F7FA;" d="M419.12,50.21c4.156,4.164,10.906,4.164,15.094,0c4.156-4.164,4.156-10.922,0-15.086
	c-4.188-4.164-10.938-4.164-15.094,0C414.965,39.288,414.965,46.046,419.12,50.21z"/>
<g>
	<path style="fill:#434A54;" d="M85.338,511.99c-35.296,0-63.999-28.719-63.999-63.999s28.703-63.999,63.999-63.999
		c35.28,0,63.999,28.719,63.999,63.999S120.618,511.99,85.338,511.99z M85.338,405.336c-23.53,0-42.671,19.124-42.671,42.655
		c0,23.53,19.141,42.655,42.671,42.655c23.531,0,42.671-19.125,42.671-42.655C128.009,424.46,108.869,405.336,85.338,405.336z"/>
	<path style="fill:#434A54;" d="M442.651,298.65h-37.312c-5.906,0-10.688,4.781-10.688,10.687c0,5.875,4.781,10.656,10.688,10.656
		h37.312V298.65z"/>
</g>
<g>
</g>
<g>
</g>
<g>
</g>
<g>
</g>
<g>
</g>
<g>
</g>
<g>
</g>
<g>
</g>
<g>
</g>
<g>
</g>
<g>
</g>
<g>
</g>
<g>
</g>
<g>
</g>
<g>
</g>
</svg>
