<?xml version="1.0" encoding="UTF-8"?>
<svg enable-background="new 0 0 511.99 511.99" version="1.1" viewBox="0 0 511.99 511.99" xml:space="preserve" xmlns="http://www.w3.org/2000/svg">
<path d="m170.66 447.99c-4.859 0-9.249-3.328-10.39-8.25-0.109-0.5-10.141-41.765-42.219-58.28-19.296-9.938-43.296-9.125-71.326 2.406-5.453 2.219-11.688-0.375-13.922-5.812-2.25-5.453 0.359-11.688 5.812-13.937 34.14-14.031 64.218-14.562 89.373-1.531 40.905 21.155 52.593 70.279 53.077 72.342 1.312 5.75-2.281 11.469-8.016 12.781-0.795 0.187-1.608 0.281-2.389 0.281z" fill="#E9573F"/>
<path d="m426.65 511.99c-35.279 0-63.998-28.719-63.998-63.999s28.719-63.999 63.998-63.999c35.312 0 64 28.719 64 63.999s-28.687 63.999-64 63.999zm0-106.65c-23.53 0-42.654 19.124-42.654 42.655 0 23.53 19.124 42.655 42.654 42.655 23.531 0 42.688-19.125 42.688-42.655 0-23.531-19.156-42.655-42.688-42.655z" fill="#434A54"/>
<path d="m382.43 409.49c14.718-11.031 27.53-14.656 28.093-14.797l0.125-0.047v-34.655c-0.125 0-13.156 0.844-30.874 10.062-16.344 8.531-40.219 26.188-60.969 61.968l-3.093 5.312h-167.27c0.594 3.5 0.891 7.062 0.891 10.656v0.531l-1.172 11.734-0.109 0.516c-0.594 2.906-1.391 5.749-2.375 8.562h195.66c7.937-25.187 21.781-45.312 41.093-59.842z" fill="#FC6E51"/>
<path d="m136.85 465.43-30.187-17.438 30.187-17.438c5.109-2.938 6.859-9.469 3.906-14.562-2.938-5.093-9.469-6.843-14.562-3.905l-30.187 17.437v-34.874c0-5.875-4.781-10.656-10.672-10.656s-10.672 4.781-10.672 10.656v34.874l-30.187-17.437c-5.094-2.938-11.625-1.188-14.562 3.905-2.953 5.094-1.203 11.625 3.906 14.562l30.187 17.438-30.187 17.438c-5.109 2.937-6.859 9.468-3.906 14.562 1.969 3.422 5.562 5.344 9.25 5.344 1.797 0 3.641-0.469 5.312-1.438l30.187-17.438v34.875c0 5.875 4.781 10.656 10.672 10.656s10.672-4.781 10.672-10.656v-34.875l30.187 17.438c1.672 0.969 3.5 1.438 5.312 1.438 3.688 0 7.281-1.922 9.25-5.344 2.954-5.095 1.204-11.626-3.906-14.562z" fill="#656D78"/>
<path d="m426.65 463.99c8.844 0 16-7.75 16-17.297v-414.7h-31.999v414.71c0 9.531 7.187 17.281 15.999 17.281z" fill="#E6E9ED"/>
<rect x="410.66" y="160" width="31.999" height="149.34" fill="#FC6E51"/>
<path d="M383.997,42.663c0,23.562,19.093,42.671,42.654,42.671c23.562,0,42.688-19.109,42.688-42.671  S450.214,0,426.651,0C403.09,0,383.997,19.1,383.997,42.663z" fill="#434A54"/>
<path d="m419.12 50.21c4.156 4.164 10.906 4.164 15.094 0 4.156-4.164 4.156-10.922 0-15.086-4.188-4.164-10.938-4.164-15.094 0-4.155 4.164-4.155 10.922 0 15.086z" fill="#F5F7FA"/>
<g fill="#434A54">
	<path d="m85.338 511.99c-35.296 0-63.999-28.719-63.999-63.999s28.703-63.999 63.999-63.999c35.28 0 63.999 28.719 63.999 63.999s-28.719 63.999-63.999 63.999zm0-106.65c-23.53 0-42.671 19.124-42.671 42.655 0 23.53 19.141 42.655 42.671 42.655 23.531 0 42.671-19.125 42.671-42.655 0-23.531-19.14-42.655-42.671-42.655z"/>
	<path d="m442.65 298.65h-37.312c-5.906 0-10.688 4.781-10.688 10.687 0 5.875 4.781 10.656 10.688 10.656h37.312v-21.343z"/>
</g>

</svg>
