<?xml version="1.0" encoding="UTF-8"?>
<svg enable-background="new 0 0 512.001 512.001" version="1.1" viewBox="0 0 512 512" xml:space="preserve" xmlns="http://www.w3.org/2000/svg">
<path d="m487.89 54.343c-15.335-15.007-35.737-23.267-57.465-23.267h-0.152-1e-3c-44.983 0.08-81.514 36.743-81.435 81.726 0.032 18.318 11.489 45.175 35.025 82.108 16.377 25.699 32.502 46.623 33.18 47.501 3.252 4.21 8.271 6.674 13.588 6.674h0.072c5.344-0.023 10.373-2.531 13.604-6.787 0.675-0.888 16.716-22.068 32.993-48.024 23.382-37.283 34.732-64.3 34.7-82.595-0.042-21.8-8.603-42.162-24.109-57.336z" fill="#006C71"/>
<path d="m430.43 31.075h-0.152-1e-3c-44.983 0.08-81.514 36.743-81.435 81.726 0.032 18.318 11.489 45.175 35.025 82.108 16.377 25.699 32.502 46.623 33.18 47.501 3.252 4.21 8.271 6.674 13.588 6.674h0.072s-0.429-218.01-0.277-218.01z" fill="#00A2A9"/>
<path d="m157.4 446.58c-4.522 0-8.952 1.832-12.145 5.037-3.194 3.194-5.025 7.612-5.025 12.134s1.832 8.952 5.025 12.145c3.194 3.194 7.624 5.025 12.145 5.025 4.51 0 8.94-1.832 12.134-5.025 3.194-3.194 5.037-7.624 5.037-12.145 0-4.522-1.843-8.94-5.037-12.134-3.193-3.206-7.612-5.037-12.134-5.037z" fill="#CFCDCF"/>
<g fill="#B1B0BC">
	<path d="m332.89 259.72c9.49-0.023 17.159-7.727 17.138-17.205-0.024-9.49-7.727-17.159-17.205-17.136-9.49 0.023-17.159 7.727-17.136 17.205s7.703 17.136 17.171 17.136h0.032z"/>
	<path d="m387.44 446.17c-9.49 0.023-17.159 7.727-17.147 17.205 0.023 9.478 7.703 17.136 17.171 17.136h0.033c9.478-0.011 17.159-7.715 17.138-17.194-0.013-9.489-7.717-17.159-17.195-17.147z"/>
	<path d="m341.42 446.26c-9.477 0.011-17.159 7.715-17.136 17.194 0.011 9.478 7.692 17.148 17.171 17.148h0.023c9.49-0.023 17.159-7.727 17.148-17.205-0.025-9.491-7.728-17.16-17.206-17.137z"/>
	<path d="m347.66 307.15c-9.49 0.023-17.159 7.727-17.136 17.205 0.023 9.467 7.703 17.136 17.171 17.136h0.033c9.478-0.023 17.159-7.727 17.138-17.205-0.024-9.489-7.728-17.159-17.206-17.136z"/>
	<path d="m393.66 307.04c-9.478 0.023-17.148 7.727-17.125 17.217 0.011 9.467 7.703 17.125 17.171 17.125h0.033c9.478-0.011 17.148-7.715 17.125-17.205-0.01-9.479-7.714-17.147-17.204-17.137z"/>
	<path d="m467.34 403.32c-8.814-3.48-18.796 0.847-22.276 9.673-3.468 8.814 0.859 18.785 9.673 22.265 2.072 0.824 4.201 1.202 6.296 1.202 6.845 0 13.313-4.121 15.98-10.875 3.48-8.815-0.847-18.785-9.673-22.265z"/>
	<path d="m422.97 438.88c-8.162 4.831-10.852 15.374-6.021 23.524 3.217 5.414 8.929 8.425 14.79 8.425 2.976 0 5.998-0.778 8.746-2.404 8.15-4.842 10.852-15.374 6.01-23.524-4.832-8.162-15.363-10.851-23.525-6.021z"/>
</g>
<g fill="#CFCDCF">
	<path d="m203.38 446.5c-9.478 0.023-17.148 7.715-17.136 17.205 0.023 9.467 7.704 17.136 17.171 17.136h0.034c9.478-0.011 17.159-7.715 17.136-17.205-0.011-9.478-7.715-17.148-17.205-17.136z"/>
	<path d="m306.29 306.4c-9.146-2.484-18.579 2.93-21.052 12.088-2.484 9.146 2.932 18.579 12.089 21.051 1.5 0.412 3.011 0.607 4.499 0.607 7.555 0 14.492-5.037 16.564-12.695 2.472-9.146-2.942-18.577-12.1-21.051z"/>
	<path d="m288.52 267.55c3.491 0 7.03-1.065 10.073-3.274 7.67-5.575 9.375-16.312 3.8-23.982-5.575-7.681-16.312-9.375-23.982-3.8v-0.011c-7.67 5.575-9.374 16.312-3.799 23.993 3.354 4.625 8.596 7.074 13.908 7.074z"/>
</g>
<g fill="#B1B0BC">
	<path d="m446.59 378.99c2.186 7.486 9.033 12.351 16.461 12.351 1.603 0 3.228-0.229 4.842-0.698 9.1-2.679 14.309-12.214 11.642-21.315-2.667-9.1-12.203-14.309-21.303-11.642-9.112 2.666-14.319 12.202-11.642 21.304z"/>
	<path d="m426.91 351.24c3.032 2.186 6.548 3.24 10.016 3.24 5.333 0 10.589-2.473 13.953-7.132 5.54-7.692 3.8-18.43-3.891-23.97-7.694-5.54-18.431-3.8-23.97 3.892-5.552 7.694-3.801 18.42 3.892 23.97z"/>
</g>
<g fill="#CFCDCF">
	<path d="m249.4 446.43c-9.478 0.011-17.159 7.715-17.136 17.205 0.011 9.467 7.692 17.136 17.159 17.136h0.034c9.49-0.023 17.159-7.715 17.136-17.205-0.011-9.478-7.715-17.159-17.193-17.136z"/>
	<path d="m295.4 446.34c-9.477 0.011-17.147 7.715-17.136 17.194 0.024 9.478 7.704 17.148 17.171 17.148h0.034c9.478-0.023 17.159-7.727 17.136-17.205-0.011-9.478-7.716-17.16-17.205-17.137z"/>
	<path d="m289.17 287.79c-1.694-9.329-10.634-15.511-19.964-13.817-9.328 1.694-15.522 10.634-13.816 19.964 1.51 8.299 8.734 14.103 16.872 14.103 1.02 0 2.049-0.092 3.091-0.286 9.33-1.694 15.51-10.636 13.817-19.964z"/>
</g>
<path d="m391.22 254.59c3.194-3.194 5.026-7.624 5.026-12.145 0-4.51-1.833-8.94-5.026-12.134-3.193-3.205-7.623-5.037-12.144-5.037s-8.941 1.832-12.145 5.037c-3.194 3.194-5.025 7.612-5.025 12.134s1.832 8.952 5.025 12.145c3.205 3.194 7.624 5.025 12.145 5.025 4.521 1e-3 8.94-1.831 12.144-5.025z" fill="#B1B0BC"/>
<path d="m194.52 170.93c-21.453-20.994-49.992-32.549-80.389-32.549h-0.213-1e-3c-62.926 0.113-114.03 51.4-113.92 114.33 0.046 25.624 16.073 63.196 48.996 114.86 22.91 35.95 45.467 65.221 46.416 66.45 4.549 5.89 11.57 9.336 19.008 9.336h0.1c7.475-0.031 14.51-3.542 19.03-9.494 0.944-1.243 23.384-30.871 46.155-67.181 32.709-52.156 48.586-89.951 48.542-115.54-0.055-30.495-12.031-58.98-33.724-80.209z" fill="#D83249"/>
<path d="m114.14 138.38h-0.213-1e-3c-62.927 0.113-114.03 51.4-113.92 114.33 0.046 25.624 16.073 63.196 48.996 114.86 22.91 35.95 45.467 65.221 46.416 66.45 4.549 5.89 11.57 9.336 19.008 9.336h0.1c1e-3 1e-3 -0.6-304.98-0.385-304.98z" fill="#FF4F59"/>
<circle cx="114.14" cy="262.75" r="49.214" fill="#FAD52A"/>
<path d="m114.23 311.96c-27.18 0.048-49.252-21.945-49.301-49.125-0.048-27.18 21.945-49.252 49.125-49.301l0.176 98.426z" fill="#FFEA5E"/>
<circle cx="430.44" cy="119.98" r="35.179" fill="#FAD52A"/>
<path d="m430.5 155.16c-19.429 0.034-35.208-15.688-35.242-35.116-0.034-19.429 15.688-35.208 35.116-35.242l0.126 70.358z" fill="#FFEA5E"/>

</svg>
