<?xml version="1.0" encoding="iso-8859-1"?>
<!-- Generator: Adobe Illustrator 19.0.0, SVG Export Plug-In . SVG Version: 6.00 Build 0)  -->
<svg version="1.1" id="Layer_1" xmlns="http://www.w3.org/2000/svg" xmlns:xlink="http://www.w3.org/1999/xlink" x="0px" y="0px"
	 viewBox="0 0 512.001 512.001" style="enable-background:new 0 0 512.001 512.001;" xml:space="preserve">
<path style="fill:#006C71;" d="M487.894,54.343c-15.335-15.007-35.737-23.267-57.465-23.267c-0.05,0-0.102,0-0.152,0
	c0,0,0,0-0.001,0c-44.983,0.08-81.514,36.743-81.435,81.726c0.032,18.318,11.489,45.175,35.025,82.108
	c16.377,25.699,32.502,46.623,33.18,47.501c3.252,4.21,8.271,6.674,13.588,6.674c0.024,0,0.048,0,0.072,0
	c5.344-0.023,10.373-2.531,13.604-6.787c0.675-0.888,16.716-22.068,32.993-48.024c23.382-37.283,34.732-64.3,34.7-82.595
	C511.961,89.879,503.4,69.517,487.894,54.343z"/>
<path style="fill:#00A2A9;" d="M430.428,31.075c-0.05,0-0.102,0-0.152,0c0,0,0,0-0.001,0c-44.983,0.08-81.514,36.743-81.435,81.726
	c0.032,18.318,11.489,45.175,35.025,82.108c16.377,25.699,32.502,46.623,33.18,47.501c3.252,4.21,8.271,6.674,13.588,6.674
	c0.024,0,0.048,0,0.072,0C430.705,249.084,430.276,31.075,430.428,31.075z"/>
<path style="fill:#CFCDCF;" d="M157.405,446.585c-4.522,0-8.952,1.832-12.145,5.037c-3.194,3.194-5.025,7.612-5.025,12.134
	s1.832,8.952,5.025,12.145c3.194,3.194,7.624,5.025,12.145,5.025c4.51,0,8.94-1.832,12.134-5.025
	c3.194-3.194,5.037-7.624,5.037-12.145c0-4.522-1.843-8.94-5.037-12.134C166.346,448.416,161.927,446.585,157.405,446.585z"/>
<g>
	<path style="fill:#B1B0BC;" d="M332.889,259.723c9.49-0.023,17.159-7.727,17.138-17.205c-0.024-9.49-7.727-17.159-17.205-17.136
		c-9.49,0.023-17.159,7.727-17.136,17.205c0.023,9.478,7.703,17.136,17.171,17.136C332.867,259.723,332.879,259.723,332.889,259.723
		z"/>
	<path style="fill:#B1B0BC;" d="M387.436,446.173c-9.49,0.023-17.159,7.727-17.147,17.205c0.023,9.478,7.703,17.136,17.171,17.136
		c0.011,0,0.023,0,0.033,0c9.478-0.011,17.159-7.715,17.138-17.194C404.618,453.831,396.914,446.161,387.436,446.173z"/>
	<path style="fill:#B1B0BC;" d="M341.418,446.265c-9.477,0.011-17.159,7.715-17.136,17.194c0.011,9.478,7.692,17.148,17.171,17.148
		c0.011,0,0.011,0,0.023,0c9.49-0.023,17.159-7.727,17.148-17.205C358.599,453.911,350.896,446.242,341.418,446.265z"/>
	<path style="fill:#B1B0BC;" d="M347.657,307.147c-9.49,0.023-17.159,7.727-17.136,17.205c0.023,9.467,7.703,17.136,17.171,17.136
		c0.011,0,0.023,0,0.033,0c9.478-0.023,17.159-7.727,17.138-17.205C364.839,314.794,357.135,307.124,347.657,307.147z"/>
	<path style="fill:#B1B0BC;" d="M393.663,307.044c-9.478,0.023-17.148,7.727-17.125,17.217c0.011,9.467,7.703,17.125,17.171,17.125
		c0.011,0,0.023,0,0.033,0c9.478-0.011,17.148-7.715,17.125-17.205C410.857,314.702,403.153,307.034,393.663,307.044z"/>
	<path style="fill:#B1B0BC;" d="M467.337,403.316c-8.814-3.48-18.796,0.847-22.276,9.673c-3.468,8.814,0.859,18.785,9.673,22.265
		c2.072,0.824,4.201,1.202,6.296,1.202c6.845,0,13.313-4.121,15.98-10.875C480.49,416.766,476.163,406.796,467.337,403.316z"/>
	<path style="fill:#B1B0BC;" d="M422.968,438.881c-8.162,4.831-10.852,15.374-6.021,23.524c3.217,5.414,8.929,8.425,14.79,8.425
		c2.976,0,5.998-0.778,8.746-2.404c8.15-4.842,10.852-15.374,6.01-23.524C441.661,436.74,431.13,434.051,422.968,438.881z"/>
</g>
<g>
	<path style="fill:#CFCDCF;" d="M203.377,446.505c-9.478,0.023-17.148,7.715-17.136,17.205c0.023,9.467,7.704,17.136,17.171,17.136
		c0.011,0,0.023,0,0.034,0c9.478-0.011,17.159-7.715,17.136-17.205C220.571,454.163,212.867,446.493,203.377,446.505z"/>
	<path style="fill:#CFCDCF;" d="M306.287,306.403c-9.146-2.484-18.579,2.93-21.052,12.088c-2.484,9.146,2.932,18.579,12.089,21.051
		c1.5,0.412,3.011,0.607,4.499,0.607c7.555,0,14.492-5.037,16.564-12.695C320.859,318.308,315.445,308.877,306.287,306.403z"/>
	<path style="fill:#CFCDCF;" d="M288.521,267.551c3.491,0,7.03-1.065,10.073-3.274c7.67-5.575,9.375-16.312,3.8-23.982
		c-5.575-7.681-16.312-9.375-23.982-3.8c0-0.011,0-0.011,0-0.011c-7.67,5.575-9.374,16.312-3.799,23.993
		C277.967,265.102,283.209,267.551,288.521,267.551z"/>
</g>
<g>
	<path style="fill:#B1B0BC;" d="M446.593,378.991c2.186,7.486,9.033,12.351,16.461,12.351c1.603,0,3.228-0.229,4.842-0.698
		c9.1-2.679,14.309-12.214,11.642-21.315c-2.667-9.1-12.203-14.309-21.303-11.642C449.123,360.353,443.916,369.889,446.593,378.991z
		"/>
	<path style="fill:#B1B0BC;" d="M426.906,351.241c3.032,2.186,6.548,3.24,10.016,3.24c5.333,0,10.589-2.473,13.953-7.132
		c5.54-7.692,3.8-18.43-3.891-23.97c-7.694-5.54-18.431-3.8-23.97,3.892C417.462,334.965,419.213,345.691,426.906,351.241z"/>
</g>
<g>
	<path style="fill:#CFCDCF;" d="M249.395,446.426c-9.478,0.011-17.159,7.715-17.136,17.205c0.011,9.467,7.692,17.136,17.159,17.136
		c0.011,0,0.023,0,0.034,0c9.49-0.023,17.159-7.715,17.136-17.205C266.577,454.084,258.873,446.403,249.395,446.426z"/>
	<path style="fill:#CFCDCF;" d="M295.4,446.344c-9.477,0.011-17.147,7.715-17.136,17.194c0.024,9.478,7.704,17.148,17.171,17.148
		c0.011,0,0.024,0,0.034,0c9.478-0.023,17.159-7.727,17.136-17.205C312.594,454.003,304.889,446.321,295.4,446.344z"/>
	<path style="fill:#CFCDCF;" d="M289.173,287.791c-1.694-9.329-10.634-15.511-19.964-13.817
		c-9.328,1.694-15.522,10.634-13.816,19.964c1.51,8.299,8.734,14.103,16.872,14.103c1.02,0,2.049-0.092,3.091-0.286
		C284.686,306.061,290.866,297.119,289.173,287.791z"/>
</g>
<path style="fill:#B1B0BC;" d="M391.224,254.594c3.194-3.194,5.026-7.624,5.026-12.145c0-4.51-1.833-8.94-5.026-12.134
	c-3.193-3.205-7.623-5.037-12.144-5.037s-8.941,1.832-12.145,5.037c-3.194,3.194-5.025,7.612-5.025,12.134
	c0,4.522,1.832,8.952,5.025,12.145c3.205,3.194,7.624,5.025,12.145,5.025C383.601,259.62,388.02,257.788,391.224,254.594z"/>
<path style="fill:#D83249;" d="M194.523,170.928c-21.453-20.994-49.992-32.549-80.389-32.549c-0.07,0-0.142,0-0.213,0
	c0,0,0,0-0.001,0C50.994,138.492-0.111,189.779,0,252.707c0.046,25.624,16.073,63.196,48.996,114.862
	c22.91,35.95,45.467,65.221,46.416,66.45c4.549,5.89,11.57,9.336,19.008,9.336c0.033,0,0.068,0,0.1,0
	c7.475-0.031,14.51-3.542,19.03-9.494c0.944-1.243,23.384-30.871,46.155-67.181c32.709-52.156,48.586-89.951,48.542-115.543
	C228.192,220.642,216.216,192.157,194.523,170.928z"/>
<path style="fill:#FF4F59;" d="M114.135,138.379c-0.07,0-0.142,0-0.213,0c0,0,0,0-0.001,0C50.994,138.492-0.111,189.779,0,252.707
	c0.046,25.624,16.073,63.196,48.996,114.862c22.91,35.95,45.467,65.221,46.416,66.45c4.549,5.89,11.57,9.336,19.008,9.336
	c0.033,0,0.068,0,0.1,0C114.521,443.356,113.92,138.379,114.135,138.379z"/>
<circle style="fill:#FAD52A;" cx="114.14" cy="262.747" r="49.214"/>
<path style="fill:#FFEA5E;" d="M114.23,311.961c-27.18,0.048-49.252-21.945-49.301-49.125c-0.048-27.18,21.945-49.252,49.125-49.301
	L114.23,311.961z"/>
<circle style="fill:#FAD52A;" cx="430.436" cy="119.978" r="35.179"/>
<path style="fill:#FFEA5E;" d="M430.496,155.158c-19.429,0.034-35.208-15.688-35.242-35.116
	c-0.034-19.429,15.688-35.208,35.116-35.242L430.496,155.158z"/>
<g>
</g>
<g>
</g>
<g>
</g>
<g>
</g>
<g>
</g>
<g>
</g>
<g>
</g>
<g>
</g>
<g>
</g>
<g>
</g>
<g>
</g>
<g>
</g>
<g>
</g>
<g>
</g>
<g>
</g>
</svg>
