<?xml version="1.0" encoding="UTF-8"?>
<svg enable-background="new 0 0 504 504" version="1.1" viewBox="0 0 504 504" xml:space="preserve" xmlns="http://www.w3.org/2000/svg">

	
		<polygon points="200 265.83 224.7 141.26 264 209.83 260.55 225.83 255.79 249.83" fill="#E7001E"/>
	
	
		<path d="m408 249.83c-13.683 0-24.691 11.45-23.966 25.291 0.68 12.978 12.328 22.709 25.324 22.709h6.642c4.418 0 8-3.582 8-8v-32c0-4.418-3.582-8-8-8h-8z" fill="#8A8895"/>
	
	
		<path d="m448 353.83c-30.928 0-56 25.072-56 56s25.072 56 56 56 56-25.072 56-56-25.072-56-56-56zm0 88c-17.673 0-32-14.327-32-32s14.327-32 32-32 32 14.327 32 32-14.327 32-32 32z" fill="#5C546A"/>
	
	
		
			<path d="m448 417.83c-2.047 0-4.094-0.781-5.656-2.344l-72-72c-3.125-3.125-3.125-8.188 0-11.313s8.188-3.125 11.313 0l72 72c3.125 3.125 3.125 8.188 0 11.313-1.563 1.563-3.61 2.344-5.657 2.344z" fill="#8A8895"/>
		
	
	
		<path d="m296 409.83c-26.51 0-48-21.49-48-48v-48h-104v96h128 24z" fill="#E7001E"/>
	
	
		
			<path d="m307.42 417.83h-123.42c-4.422 0-8-3.578-8-8s3.578-8 8-8h123.42c5.25 0 10.164-2.578 13.156-6.891l52.609-75.992c6.125-8.852 7.398-20.102 3.398-30.102l-19.992-49.992c-1.219-3.047-4.141-5.023-7.43-5.023h-21.163c-4.422 0-8-3.578-8-8s3.578-8 8-8h21.164c9.875 0 18.617 5.922 22.289 15.078l19.992 50c5.992 14.992 4.086 31.867-5.102 45.148l-52.609 75.992c-5.984 8.634-15.82 13.782-26.312 13.782z" fill="#E7001E"/>
		
	
	
		<path d="m256 313.83h-152c-8.837 0-16-7.163-16-16s7.163-16 16-16h152c8.837 0 16 7.163 16 16s-7.163 16-16 16z" fill="#7E5C62"/>
	
	
		<path d="m152 281.83h-136c-8.837 0-16-7.163-16-16v-80c0-8.837 7.163-16 16-16h136c8.837 0 16 7.163 16 16v80c0 8.836-7.163 16-16 16z" fill="#FFE0B1"/>
	
	
		
			<rect y="201.83" width="168" height="16" fill="#F7AA6B"/>
		
	
	
		
			<path d="m368 417.83c-4.422 0-8-3.578-8-8 0-48.523 39.477-88 88-88 15.461 0 30.672 4.07 43.977 11.758 3.828 2.211 5.141 7.109 2.93 10.93-2.219 3.828-7.125 5.133-10.93 2.93-10.883-6.289-23.32-9.617-35.977-9.617-39.703 0-72 32.297-72 72 0 4.421-3.578 7.999-8 7.999z" fill="#FF4F19"/>
		
	
	
		
			<path d="m328 225.83h-56c-6.059 0-11.602-3.422-14.313-8.844l-32-64c-3.949-7.906-0.746-17.516 7.156-21.469 7.898-3.953 17.508-0.758 21.469 7.156l27.574 55.156h46.114c8.836 0 16 7.164 16 16s-7.164 16.001-16 16.001z" fill="#FF4F19"/>
		
	
	
		
			<path d="m203.17 249.83h110.12c10.391 0 20.172 5.07 26.156 13.57 5.988 8.492 7.473 19.406 3.977 29.195l-38.527 99.396c-2.473 6.313-8.512 10.172-14.902 10.172-1.941 0-3.914-0.359-5.832-1.109-8.227-3.227-12.285-12.508-9.063-20.734l38.359-98.943-97.465 0.453c-8.836 0-16-7.164-16-16" fill="#5C546A"/>
		
	
	
		<path d="m295.3 74.143c-1.492-2.594-4.117-4.125-7.336-3.984-59.297 3.078-59.297 7.195-59.297 14.672 0 4.172 2.367 29.117 2.844 34.078 0.188 2.016 1.141 3.883 2.664 5.227 7.32 6.469 16.727 10.031 26.492 10.031 22.055 0 40-17.945 40-40 1e-3 -7.032-1.851-13.961-5.367-20.024z" fill="#FFE0B1"/>
	
	
		
			<path d="m24 233.83c-4.418 0-8-3.582-8-8v-24h16v24c0 4.418-3.582 8-8 8z" fill="#7E5C62"/>
		
	
	
		
			<path d="m136 233.83c-4.418 0-8-3.582-8-8v-24h16v24c0 4.418-3.582 8-8 8z" fill="#7E5C62"/>
		
	
	
		<path d="m160 409.83c0 17.673-14.327 32-32 32s-32-14.326-32-32h-24c0 30.928 25.072 56 56 56s56-25.071 56-56h-24z" fill="#5C546A"/>
	
	
		<path d="m129.47 314.51c-45.692 5.925-82.676 39.423-93.868 83.254-2.566 10.049 5.226 19.812 15.597 19.812h157.23c5.809-11.671 8.644-25.084 7.201-39.318-4.227-41.699-44.592-69.137-86.156-63.748z" fill="#FF4F19"/>
	
	
		<path d="m310.2 68.136c-12.288-23.369-39.148-35.318-65.691-27.66-18.92 5.459-33.78 21.237-38.281 40.407-3.404 14.494-1.233 28.991 6.165 41.581 1.383 2.354 4.023 3.703 6.753 3.703h23.547c4.04 0 7.785-2.12 9.863-5.585l18.31-30.527c1.447-2.412 4.053-3.888 6.866-3.888h21.547c4.352 0 8.297-2.234 10.555-5.969 2.241-3.719 2.382-8.226 0.366-12.062z" fill="#E7001E"/>

</svg>
