<svg xmlns="http://www.w3.org/2000/svg" width="20" height="20" viewBox="0 0 20 20"><defs><style>.a{fill:#309fab;}.b{fill:#f3f9fc;}.c{fill:#ffda44;}.d{fill:#fff;}.e{fill:#ff5023;}.f{fill:#ff9811;}</style></defs><path class="a" d="M9.7,0A9.7,9.7,0,1,1,0,9.7,9.7,9.7,0,0,1,9.7,0Z" transform="translate(0 0.606)"/><path class="b" d="M160,10a9.7,9.7,0,1,1,0,19.394" transform="translate(-150.303 -9.394)"/><ellipse class="c" cx="7.273" cy="7.273" rx="7.273" ry="7.273" transform="translate(2.424 3.03)"/><path class="b" d="M4.848,0A4.848,4.848,0,1,1,0,4.848,4.848,4.848,0,0,1,4.848,0Z" transform="translate(4.848 5.455)"/><path class="a" d="M160,90a4.848,4.848,0,0,1,0,9.7" transform="translate(-150.303 -84.545)"/><ellipse class="c" cx="2.424" cy="2.424" rx="2.424" ry="2.424" transform="translate(7.273 7.879)"/><g transform="translate(9.02)"><path class="d" d="M154.453,67.175l-.487.487L152.232,69.4l-1.778,1.778L149.1,72.532a.909.909,0,0,0,1.286,1.286l1.357-1.357,1.778-1.778,1.734-1.735.487-.487Z" transform="translate(-148.83 -63.104)"/><path class="e" d="M238.29,4.071l-.214,1.5L240.647,3l.429-3-2.282,2.282-.29.29Z" transform="translate(-232.667)"/><path class="f" d="M238.076,45.427l1.5-.214,1.5-.214.29-.29,2.282-2.282-3,.428Z" transform="translate(-232.667 -39.856)"/></g></svg>