<?xml version="1.0" encoding="UTF-8"?>
<!DOCTYPE svg  PUBLIC '-//W3C//DTD SVG 1.1//EN'  'http://www.w3.org/Graphics/SVG/1.1/DTD/svg11.dtd'>
<svg width="4042pt" height="2463pt" version="1.1" viewBox="0 0 4042 2463" xmlns="http://www.w3.org/2000/svg">
<g fill="#fbb80f">
<path d="m3463.4 106.42c5.8-0.91 11.72-0.2 17.59-0.43 7.07-0.52 13.95 1.67 21.05 1 22.49 2 44.93 6.22 66.32 13.63 29.97 9.44 58.13 24.14 83.78 42.23 14.59 10.53 28.65 21.87 41.1 34.9 4.04 4.28 8.66 8.06 12.19 12.82 19.37 21.46 35.59 45.76 48.21 71.76 8.99 21.03 18.26 42.13 23.55 64.46 2.12 9.57 4.06 19.26 3.94 29.09 1.32 5.28 0.66 10.72 0.92 16.1 1 7.22 1.6 14.49 2.23 21.77 1.3 6.33 0.52 12.85 0.7 19.27-1.8 20.08-9.36 40.59-24.74 54.23-6.06 6.82-13.63 11.99-21.41 16.65-9.11 6.11-18.91 11.5-29.69 13.93-8.21 2.25-16.78 1.98-25.18 1.71-28.03-2.32-53.64-21.89-63.41-48.24-8.22-22.24-6.22-46.32-10.54-69.31-4.07-20.35-10.68-40.51-21.96-58.05-9.92-16.79-23.89-31.09-40.04-41.95-14.01-9.77-30.68-14.63-47.28-17.72-12.24-1.59-24.7-3.54-37-1.55-20.12 1.12-39.94 7.39-57.15 17.87-16.29 10.18-30.86 23.23-42.32 38.68-10.17 13.86-18.03 29.6-21.47 46.51-2.63 9.54-1.65 19.46-1.8 29.22-0.01 26.33 0 52.67 0 79 0.55 24.13-3.77 49.32-17.2 69.81-11 16.32-27.99 27.86-46.21 34.79-11.94 4.02-24.91 5.98-37.34 3.15-10.01-2.33-19.91-5.83-28.58-11.41-25.17-15.22-42.65-42.36-46.55-71.46-0.57-8.29 0.69-16.71-1.06-24.9-0.16-15.33-0.01-30.66-0.06-45.98 0.02-4.43-0.36-8.92 0.74-13.26 0.83-6.74-0.41-13.6 0.66-20.32 2.67-21.61 5.25-43.27 9.35-64.68 4.12-21.26 10.87-42.03 20.57-61.41 13.76-27.88 32.38-53 52.01-76.99 20.45-24.92 47.43-43.23 74.06-60.94 37.4-24.96 81.61-38.74 126.19-42.84 5.19-1.23 10.62 0.13 15.83-1.14z"/>
<path d="m1438.4 113.4c8.81-0.92 17.72-0.14 26.58-0.4 68.34 0.01 136.69-0.01 205.03 0.01 9.82 1.3 19.78 1.5 29.55 3.41 42.03 6.4 82.44 22.55 117.62 46.38 16.72 10.87 32.29 23.51 46.06 37.94 28.61 29.93 50.38 66.12 65.31 104.68 5.27 13.72 9.45 27.94 11.5 42.53 1.11 5.96 0.87 12.05 1.92 18.02 0.01 203.02 0.01 406.04 0 609.06-0.38 3.99-1.3 7.93-1.02 11.99-2.24 21.41-8.06 42.25-14.1 62.85-4.65 17.12-12.84 33.03-21.67 48.33-9.81 16.68-21.39 32.31-34.19 46.81-6.42 7.53-13.93 14.08-20.75 21.26-10.99 9.77-22.33 19.25-34.65 27.33-35.99 24.99-78.16 41.04-121.65 46.31-4.04-0.16-7.92 1.04-11.92 1.11-99.01-0.04-198.02-0.01-297.04-0.02-5.21-0.27-10.72 0.9-15.63-1.33-2.12-1.59-4.1-3.54-5.09-6.02-0.65-3.38 0.07-6.88-0.7-10.23-1.01-4.41-0.48-8.96-0.58-13.42 0-329 0.01-658 0-987 0.32-9.67-0.83-19.46 0.92-29.03 0.48-18.03 6.45-36.09 17.85-50.19 2.93-3.08 5.07-6.94 8.78-9.24 13.27-11.69 30.11-19.78 47.87-21.14m126.99 172.02c-4.55 1.16-9.31 0-13.85 1.11-5.07 0.86-10.3 2.5-14.27 5.81-0.5 2.87-1.22 5.71-1.29 8.63-0.01 249.34 0.01 498.68-0.01 748.03-0.09 5.15-0.5 10.88 2.78 15.24 5.27 3.82 12.09 3.63 18.26 4.7 34.66 0.14 69.33 0.04 103.99 0.05 5.9-0.82 11.86-1.12 17.73-2.24 15.14-3.24 29.18-10.37 41.83-19.17 13.8-10.06 26.13-22.47 34.63-37.38 6.07-10.22 9.67-21.64 13-32.98 2.07-10.28 4.27-20.69 3.79-31.22v-508.03c0.11-3.34 1.27-6.57 1.03-9.94-0.26-6.09 0.59-12.29-0.77-18.29-0.74-5.32 0.36-10.77-0.95-16.03-2.64-22.18-10.31-44.14-24.15-61.86-3.37-4.91-7.86-8.85-11.42-13.59-4.92-3.72-9.02-8.4-14.16-11.84-9.36-6.38-18.97-12.83-29.94-16.07-8.88-2.91-18.19-4.47-27.53-4.5-5.63-1.3-11.43-0.78-17.15-0.87-3.69-0.07-7.23 1.32-10.92 1.05-13.31-0.17-26.62 0.18-39.92-0.17-5.95-1.41-12.08-0.73-18.12-0.86-4.2 0.11-8.45-0.37-12.59 0.42z"/>
<path d="m2178.6 335.55c7.98-1.48 16.07-0.13 24.02 0.86 13.09 2.26 25.82 7.43 36.26 15.73 3.88 3.09 7.98 5.97 11.42 9.58 10.08 10.82 18.29 23.8 21.67 38.33 3.42 16.43 1.57 33.29 2.07 49.95 0.36 4.37-0.57 8.65-1.01 12.97-0.05 260.33 0.04 520.67-0.05 781-56.97 0.05-113.95 0.05-170.93 0-0.07-41 0.01-82.01-0.04-123-0.01-2.7-1.01-5.26-0.98-7.94-0.03-125.36 0.03-250.71-0.04-376.07-0.28-3.7 1.11-7.24 1.05-10.92-0.04-52.01-0.01-104.03-0.02-156.04-0.12-7.02 0.53-14.11-0.95-21.02-0.12-39.99-0.01-79.99-0.05-119.98 0.07-5.72-0.45-11.5 0.83-17.12 0.13-8.82 2.55-17.44 5.29-25.76 4-9.05 8.51-18.27 16.12-24.88 14.15-15.44 34.75-23.79 55.34-25.69z"/>
<path d="m369.41 393.39c7.16-0.85 14.42-0.21 21.62-0.39 12.39 1.18 24.77 4.78 35.12 11.85 7.63 5.61 15.1 11.5 21.62 18.39 10.97 10.95 18.85 25.94 18.25 41.76-0.42 14.82 1.59 30.15-3.62 44.39-2.47 9.59-9.23 17.17-15.38 24.62-2.25 3.42-5.7 5.65-8.75 8.26-11.99 10.78-27.3 17.69-43.29 19.7-8.62 0.02-17.26 0.15-25.87-0.07-12.88-2.17-25.39-7.21-35.7-15.31-6.67-4.55-11.92-10.75-17.64-16.37-4.38-5.39-8.35-11.16-11.8-17.19-4.92-10.59-7.63-22.33-6.97-34.03-0.5-11.82 1.06-23.96 6.34-34.67 10.51-23.95 32.22-42.71 57.51-49.47 2.77-0.93 5.72-0.87 8.56-1.47z"/>
<path d="m361.39 1410.4c19.49-2.89 38.72 5.51 53.5 17.73 15 11.22 23.56 29.19 26.7 47.32 1.23 6.13 1.56 12.37 2.4 18.55 0.02 264.68 0 529.35 0.01 794.03 0.93 25.3-8.93 50.49-25.66 69.34-2.28 2.68-4.15 6.32-7.91 7.09-9.27 2.79-18.88 4.23-28.46 5.52-8 0.16-16-0.03-24 0.08-13.39 0-26.15-6.18-35.86-15.14-4.49-2.84-7.29-7.39-10.8-11.21-6.74-8.44-11.29-18.66-12.62-29.4-1.28-4.83-0.1-9.87-1.27-14.69-1.08-6.18-0.29-12.44 0.57-18.56 0.02-256.02 0.02-512.04 0-768.06-1.15-7.16-1.37-14.48-0.73-21.71 1.41-5.63 0.36-11.45 0.85-17.15 1.65-11.47 5.87-22.72 13.19-31.8 10.1-13.72 25.02-23 40.55-29.46 3.08-1.18 6.3-1.9 9.54-2.48z"/>
<path d="m985.39 1410.4c8.82-0.87 17.74-0.12 26.61-0.37 87.67 0.01 175.33 0 263 0 6.64 0.2 13.42-0.71 19.94 1.04 21.92 4.22 39.92 20.02 51.55 38.49 7.79 9.6 7.64 22.74 7.51 34.47 0.39 10.89-0.52 22.34-5.98 32.02-5.34 10.18-13.46 18.45-21.87 26.13-6.71 5.25-13.91 9.99-21.87 13.15-10.71 3.74-22.16 2.52-33.28 2.7h-240c-5.06 0.03-10.19-0.4-15.14 0.86-5.25 1.14-10.64 1.12-15.91 2.12-8.72 0.34-17.15-2.55-25.11-5.82-20.78-8.42-39.59-24.49-46.77-46.25-1.48-3.39-0.84-7.11-1.35-10.65-1.33-6-0.51-12.18-0.72-18.26-0.32-7.87 0.51-15.78 2.61-23.37 2.63-10.83 11-18.82 18.65-26.37 10.9-9.44 23.75-17.36 38.13-19.89z"/>
<path d="m1498.4 1445.4c12.44-19.3 33.45-33.38 56.55-35.41 66.69 0.01 133.37-0.01 200.06 0.01 6.17 0.85 12.42 1.14 18.55 2.41 12.68 2.95 25.19 6.53 37.63 10.36 8.08 2.07 15.78 5.34 23.46 8.56 8.76 4.55 17.89 8.45 26.28 13.71 14.81 8.73 28.62 19.12 41.32 30.68 8.01 8.32 16.72 16.01 23.98 25.02 8.84 10.68 17.11 21.91 24.07 33.93 4.51 7.1 7.78 14.88 11.69 22.31 4.66 9.29 8.23 19.09 10.88 29.14 3.89 11.37 7.41 22.95 9.07 34.89 0.09 66.99 0 133.99 0.05 200.98-0.02 3.75 0.25 7.58-0.73 11.27-8.75 43.35-27.18 85.21-56.02 119-6.25 8-13.95 14.71-21.05 21.95-5.19 3.74-9.4 8.58-13.98 13.01-2.46 2.26-5.27 4.93-4.95 8.58 0.78 3.25 0.59 6.62 0.96 9.95 1.8 10.12 5.04 19.91 7.01 30 2.5 11.03 5.69 21.91 8 33 23.55 94.64 50.61 188.34 73.95 283.04 1.24 6.05 3.64 11.91 3.9 18.13-49.26 0.15-98.52 0.04-147.78 0.05-26.58-91.75-48.58-184.73-73.32-276.98-4.62-17.71-9.78-35.28-14.33-52.99-35.88 0-71.76-0.05-107.64 0.02-0.07 76.32-0.01 152.65-0.03 228.97-0.09 4.75 0.41 9.58-0.73 14.26-0.61 17.27-3.38 34.77-10.28 50.74-6.44 13.08-16.63 24.73-29.97 31.03-5.86 3.16-12.57 4.04-19.06 4.89-4.71-0.16-9.25 1.37-13.94 1.13-17.43-0.19-35.4-3.99-49.85-14.22-3.62-2-5.9-5.48-8.42-8.59-7.07-9.16-13.32-19.56-14.73-31.25-0.06-134.66 0.02-269.32-0.04-403.99-0.47-6.35 1.59-12.51 1.05-18.86 5.33-3.27 11.76-4.48 17.97-4.16 70.33 0.05 140.66 0.01 211 0.02 11.65-0.35 23.43 0.88 34.97-0.99 4.66-0.44 9.64 0.95 14.06-0.98 33.62-11.94 59.81-42.85 66-78.01 1.48-6.25 0.86-12.68 0.97-19.02-0.03-47.33 0.07-94.66-0.05-141.98-4.84-40.36-35.52-75.99-74.36-87.61-6.45-1.57-12.91-3.7-19.61-3.43-3.7-0.17-7.33-0.98-10.99-0.06-22.32 0.14-44.65 0.1-66.97 0.02-6.92-1.47-14.01-0.84-21.02-0.94-9.01-0.01-18.02 0.01-27.02-0.03-5.05-0.31-9.92 1.53-14.97 1.05-10.68 0.33-21.48-0.93-32.03 0.93-5.64 0.09-11.28 0.15-16.9-0.03-12.18-2.6-23.75-7.85-33.82-15.18-5.63-3.95-10.15-9.2-14.97-14.04-5.48-7.39-10.44-15.42-12.5-24.48-1.06-5.05-3.14-9.96-2.82-15.19 0.16-5.27-0.28-10.56 0.25-15.8 1.91-10.16 5.51-20.14 11.2-28.82z"/>
<path d="m2363.4 1821.4c6.49-1.01 13.09-0.35 19.55 0.57 5.75-0.5 11.31 1.43 17.07 1.02 5.4-0.62 9.85 3.1 14.17 5.79 5.1 3.09 9.5 7.13 14.06 10.96 4.37 5.31 9.22 10.34 12.57 16.43 3.57 5.39 5.4 11.64 7.19 17.79 2.15 6.63-0.05 13.73 1.56 20.46 1.19 5.05-0.2 10.17-1.01 15.17-2.32 10.82-7.58 20.9-14.57 29.43-8.29 9.97-18.57 18.88-31.12 22.89-7.37 2.44-15.06 4.59-22.89 4.1-5.43-0.22-10.96 0.58-16.27-0.73-19.44-3.46-38.22-14.17-48.95-31.06-6.57-9.84-11.11-21.02-13.41-32.61-2.62-19.9 5.33-40.02 18.3-54.94 5.29-7.35 12.56-12.88 19.75-18.25 7.2-4.48 15.66-6.29 24-7.02z"/>
<path d="m2826.1 1823.1c8.17-1.86 16.58-0.87 24.89-1.1 73-0.01 146 0.02 219-0.02 12.1-0.56 23.92 3.67 34.2 9.81 16.27 10.18 28.34 27.01 32.1 45.93 1.31 5.66 0.46 11.52 0.7 17.28 1.23 21.62-10.43 42.77-27.78 55.22-10.59 7.65-23.08 13.09-36.22 13.79-3.39-0.12-6.61 1.09-9.96 1.01-43.02-0.04-86.05-0.04-129.07-0.01-4.62 0.55-9.22 1.32-13.88 1-2.91 5.8-3.85 12.32-4.39 18.71-1.09 4.68-0.66 9.51-0.7 14.28-0.02 16.34 0.02 32.68-0.03 49.02-0.32 5.04 1.53 9.91 1.05 14.98-0.39 11.32 0.85 22.75-1.01 33.97-0.04 30.02 0.01 60.05-0.03 90.07-0.15 3.34 1.15 6.55 1.04 9.92-0.01 10.98-0.07 21.97 0 32.97 5.71-0.42 11.25 1.45 16.97 1.09 70.67-0.05 141.34 0 212.01-0.02 3.51 0.1 7.13-0.39 10.63 0.34 7.66 2.34 14.61 7.23 19.26 13.78 8.13 9.27 15.21 19.58 19.99 31 3.54 8.78 6.75 18.18 6.03 27.77-3.09 19.35-12.17 38.02-26.69 51.34-9.34 7.88-20.87 13.85-33.2 14.77-120.02 0.01-240.05-0.04-360.07 0.03-3.01 0.25-5.83-1.12-8.17-2.82-1.68-2.83-3.74-5.81-3.79-9.19 0.02-143.68 0.02-287.37 0-431.05-0.54-4.89-1.68-9.8-0.73-14.72 1.27-4.99 0.48-10.16 0.79-15.22 1.49-12.66 4.08-25.42 10.26-36.71 9.45-18.07 26.11-33.8 46.8-37.22z"/>
</g>
<g fill="#309fab">
<path d="m2173.4 107.55c43.97-7.7 89.98 24.79 98.94 68.21 2 8.6 1.19 17.47 1.68 26.22 0.54 19.13-7.51 37.8-20.08 51.98-20.5 23.21-53.21 36.68-84.04 30.2-31.5-7.55-57.05-32.94-67.95-63.05-5.16-12.08-6.05-25.75-3.23-38.52 1.58-7.39 4.64-14.35 7.67-21.24 12.48-26.86 37.5-48.49 67.01-53.8z"/>
<path d="m303.81 165.85c12.1-32.4 46.76-54.4 81.17-52.41 64.34 0.12 128.68 0.02 193.02 0.06 12.34-0.08 24.69 0.14 37.03 0.43 53.27 4.75 104.69 25.62 147.24 57.83 23.12 17.65 43.95 38.49 60.47 62.47 22.24 31.71 39.85 67.23 47.69 105.34 2.81 12.95 4 26.19 3.56 39.43 0.61 22.67-0.08 45.36 0.46 68.03-0.42 39.65-0.1 79.31-0.2 118.97-0.1 11 0.2 22-0.14 33-1.33 20.53-7.45 40.37-14.54 59.57-13.86 38.91-36.91 74.62-67.24 102.74-9.01 8.64-18.96 16.42-26.6 26.4-3.09 3.71-5.3 8.34-5.02 13.28 0.33 8.89 3.04 17.47 5.33 26 24.12 87.24 46.23 175.01 69.48 262.48 4.44 17.85 10.59 35.21 14.97 53.09 8.24 31.78 15.37 63.88 25.14 95.26-10.32 2.53-21.02 2.39-31.56 3.07-25.36 0.48-50.71-0.33-76.07-0.14-16 0.1-32-0.26-48 0.25-5.92-0.03-11.85 0.17-17.76-0.14-16.67-55.91-28.48-113.18-46.25-168.78-2.44-8.19-5.71-16.14-7.7-24.46-12.57-48.07-25.26-96.1-37.87-144.16-4.64-17.02-8.67-34.22-13.65-51.14-42.75-0.43-85.52-0.48-128.27 0.04-0.01 98.88 0 197.76 0 296.64 0.14 8.62-0.03 17.3-1.72 25.79-3.21 17.34-11.83 34.08-25.86 45.09-10.59 9.61-23.67 16.41-37.68 19.39-23.53 5.02-49.1 0.94-69.48-12.02-12.14-7.65-22.37-18.52-28.59-31.51-4.84-10.21-7.42-21.47-7.67-32.76v-415.98c0.29-18.01-1.12-36.06 0.47-54.03 0.36-2.6 0.17-5.74 2.45-7.55 4.68-4.43 11.56-4.28 17.58-4.43 22.67 0.12 45.34-0.24 68 0.27 59.33-0.02 118.67 0 178-0.01 16.77 0.35 33.67-1.02 49.91-5.36 19.68-5.11 38.5-14.53 53.21-28.72 23.39-21.53 37.92-52.43 39.33-84.2 0.39-21.97 0.48-43.96 0.04-65.94 0.02-20.69-0.01-41.38 0.01-62.07 0.75-28.9 0.4-59.04-11.56-85.92-4.42-10.75-12.34-19.45-19.97-28.01-15.35-16.59-34.4-30.8-56.63-36.34-12.84-3.42-26.21-2.24-39.34-2.43-56.33-0.74-112.66 0.29-169-0.01-12.91-0.31-25.98 1-38.73-1.61-23.28-4.52-44.79-17.94-58.69-37.21-4.41-5.79-7.8-12.36-9.72-19.4-3.8-13.67-3.1-28.05-1.83-42.02 0.57-5.44 0.68-11.04 2.78-16.16z"/>
<path d="m1088.6 343.63c11.53-4.48 24.09-5.34 36.35-4.77 38.85-0.17 74.58 32.58 78.35 71.13 0.44 9.33 0.06 18.67 0.19 28.01-0.01 29 0.1 58-0.25 87 0.11 52-0.25 104.01 0.26 156-0.01 114-0.01 228-0.01 342-0.1 24.33 0.25 48.67-0.26 72.99 0.02 29.67 0.01 59.34 0.01 89.01-0.56 18.64-0.05 37.29-0.31 55.94-11.31 0.13-22.63 0.17-33.94-0.19-15.67-0.03-31.34 0.01-47-0.01-27.6 0.6-55.2-0.19-82.8-0.07-0.48-30.21-0.07-60.45-0.21-90.67 0.19-22.01-0.41-44-0.24-66v-641c0.07-13-0.15-26.01 0.09-39.01 0.69-16.24 10.89-30.09 22.26-40.88 8.31-7.54 16.78-15.54 27.51-19.48z"/>
<path d="m1653.2 589.37c33.24-0.11 66.58 19.08 81.23 49.26 5.15 11.37 5.42 24.11 5.59 36.37-0.38 8.58 0.71 17.27-1.19 25.75-3.79 19.97-17.21 37.08-33.9 48.17-21.84 14.53-50.36 20.32-75.55 11.73-8.58-3.32-17.16-6.96-24.71-12.3-22.31-15.49-37.04-41.27-39.33-68.31-0.46-17.32 5.41-34.45 14.84-48.85 15.97-24.22 43.55-41.73 73.02-41.82z"/>
<path d="m3479.3 666.28c5.86-3.57 12.88-4.7 19.65-5.19 15.46-0.8 30.66 3.17 46.1 3.16 54.67 0 109.33 0 164 0.01 20.67 1.15 41.46-6.7 61.91-1.24 4.42 1.31 9.4 2.98 11.75 7.32 2.89 5.41 2.21 11.76 2.56 17.68 0.16 23-0.44 45.98-0.22 68.98-0.05 57.02 0.09 114.04-0.07 171.06-2.56 25.49-2.59 51.29-7.43 76.51-2.71 14.66-8.14 28.59-13.53 42.42-25.69 63.28-71.45 118.49-129.8 154.18-30.83 19.04-65.38 31.35-100.55 39.51-4.86 1.05-9.67 2.37-14.59 2.92-25.29 2.18-50.69 1.26-76.01 0.56-9.47-0.11-18.73-2.36-27.97-4.16-53.86-11.44-105.81-35.92-145.49-74.6-6.42-6.57-13.47-12.52-19.66-19.31-42.45-44.73-69.57-102.87-80.35-163.33-1.68-18.39 4.67-36.96 15.53-51.7 15.69-21.27 40.09-35.76 66.16-39.85 15.92-2.99 32.15 2.12 46.25 9.32 14.72 7.88 27.43 19.92 34.99 34.91 9.74 18.91 15.31 39.6 24.3 58.84 5.69 12.25 13.06 23.75 22.05 33.84 25.53 28.19 64.26 43.43 102.13 41.16 33.93-0.77 65.25-18.07 89.85-40.48 11.18-9.87 19.95-22.3 26.13-35.83 8.14-17.64 12.05-36.97 13.53-56.26 0.83-10.22 0.42-20.47 0.52-30.71-0.02-15.67 0.01-31.33-0.01-47-0.11-7.61 0.62-15.21 0.12-22.81-44.94-2.57-90.04 1.53-134.91-2.78-1-39.47 2.21-78.97-0.16-118.42-0.5-11.32-2.66-22.69-0.8-34 0.87-4.98 1.51-10.25 4.02-14.71z"/>
<path d="m2504.4 1072.5c35.48-5.07 71.47 15.86 88.33 46.79 8.49 15.21 11.74 33.22 9 50.44-5.33 36.22-35.54 66.97-71.43 73.63-17.78 3.38-36.59 0.2-52.56-8.22-16.97-8.87-30.98-23.14-39.84-40.09-8.35-16.38-12.83-35.8-7.71-53.88 8.45-34.61 38.07-64.62 74.21-68.67z"/>
<path d="m2367.4 1411.4c6.24-0.71 12.63-0.75 18.85 0.28 38.11 1.45 75.39 12.72 109.41 29.63 18.56 9.45 36.16 20.7 52.77 33.25 6.88 5.73 13.81 11.48 19.69 18.3 4.59 5.76 9.22 11.54 13.27 17.72 6.31 10.34 13.24 20.32 19.06 30.97 9.76 16.5 17.83 34.03 23.68 52.31 4 11.34 6.35 23.23 7.74 35.16-0.09 4.67 0.81 9.27 1.12 13.93 0.02 157.35 0 314.69 0.01 472.04-0.31 10.34 0.78 20.77-0.89 31.03-0.33 24-7.34 47.42-16.79 69.3-7.19 16.95-16.43 32.96-26.92 48.08-12.24 17.7-26.02 34.58-42.63 48.36-12.06 11.27-25.47 21.22-40.11 28.89-26.91 11.35-53.97 24.74-83.63 26.36-28.35-0.05-56.7-0.01-85.04-0.02-5.74-0.05-11.52 0.36-17.17-0.79-21.21-2.41-40.98-11.01-60.17-19.86-35.77-16.8-66.92-42.87-90.67-74.34-4.96-6.76-10.35-13.24-14.44-20.57-4.7-8.09-9.93-15.95-13.31-24.71-16.42-34.56-23.66-72.76-26.26-110.69 0.04-148.03 0.03-296.05 0-444.08 1.69-25.41 5.2-50.89 12.62-75.34 5.8-20.2 14.84-39.36 25.7-57.31 7.75-13.47 17.27-25.85 27.47-37.55 5.06-4.62 8.64-10.65 14.1-14.88 3.26-2.37 6.02-5.31 8.89-8.12 15.67-13.78 32.86-25.84 51.17-35.85 18.98-11.29 40.12-18.3 61.49-23.48 16.76-3.99 33.86-6.39 50.99-8.02m-6 145.98c-6.99 0.78-13.8 2.58-20.54 4.49-17.82 5.49-33.27 16.63-46.64 29.35-6.69 7.74-13.44 15.53-18.52 24.46-10.27 16.97-16.37 36.48-17.71 56.26v441.09c1.58 21.91 8.67 43.62 21.18 61.77 5.47 8.33 11.77 16.13 19.05 22.96 19.8 19.42 47.09 28.54 73.88 33.1 12.64 1.33 24.67-3.86 36.01-8.74 6.51-2.96 13.87-3.44 20.24-6.77 6.99-3.32 12.48-8.88 18.85-13.14 3.97-2.62 7.19-6.17 10.99-9.01 21.78-20.91 36.03-50.68 34.81-81.21-0.01-148.68 0-297.36-0.01-446.04-0.58-8.31-2.2-16.54-4.42-24.55-5.95-18.35-15.71-35.86-29.83-49.16-5.39-5.68-11.17-11-17.74-15.26-18.49-13.13-41.19-21.12-64.01-19.99-5.2 0.1-10.44-0.36-15.59 0.39z"/>
<path d="m2831.4 1617.4c6.39-0.68 12.9-0.61 19.32-0.1 4.92 1.1 10.16 0.03 14.93 2.01 9.34 3.47 18.3 8.52 25.18 15.85 8.25 7.42 14.44 16.78 19.27 26.72 8.11 16.02 7.55 35.51 0.63 51.86-3.51 9.62-9.8 17.9-16.5 25.51-11.8 10.61-26.85 19.66-43.28 18.74-4.39-0.31-8.62 1.17-12.97 1.05-12.82-0.73-25.66-4.35-36.22-11.81-16.59-10.58-26.91-29.07-29.76-48.26-3.59-18.56 2.51-37.74 12.74-53.2 6.91-9.72 16.16-17.64 26.56-23.44 6.26-3.09 13.2-4.27 20.1-4.93z"/>
<path d="m520.39 1822.4c12.82-0.93 25.75-0.08 38.62-0.41 9.74-0.67 19.05 3.62 26.73 9.28 10.83 7.89 18.73 18.95 25.94 30.06 3.27 6.38 3.42 13.7 4.28 20.67-0.04 7.38 0.57 14.84-0.77 22.15-0.66 4.9 0.68 10.07-1.27 14.78-2.72 6.76-7.15 12.67-11.7 18.31-6.17 6.17-11.96 12.88-19.41 17.58-9.03 5.67-19.19 9.88-29.83 11.15-8.86-0.02-17.87 0.76-26.55-1.4-19.41-5.05-36.25-18.32-46.56-35.4-4.11-8.38-7.92-16.98-9.92-26.13-1.53-5.22-0.83-10.71-0.99-16.05-0.19-4.27 0.83-8.51 2.68-12.33 1.78-3.76 2.7-7.84 4.37-11.64 4.63-9.76 11.33-18.43 19.23-25.76 7.33-6.45 15.1-13.38 25.15-14.86z"/>
<path d="m959.18 1831.2c9.44-6.03 20.55-9.69 31.82-9.21 72.67 0.06 145.33 0.01 218 0.03 9.29 0.3 18.71-0.87 27.89 1.1 12.85 2.1 24.58 9.14 33.37 18.63 8.34 7.88 15.24 17.77 17.97 29.05 1.34 5.64 3.04 11.32 2.8 17.2-0.15 6.68 0.49 13.45-0.98 20.04-3.43 21.68-19.09 40.16-38.75 49.28-8.16 3.07-16.54 5.8-25.24 6.8-7.94 1.53-16.04 0.71-24.06 0.9-43.98 0.05-87.96-0.09-131.94 0.06-0.32 9.26 0.28 18.55-0.25 27.81-1.25 6.3-0.74 12.74-0.81 19.13-0.01 65.34 0.03 130.69-0.02 196.04-0.13 3.67 0.99 7.24 1.02 10.92 0.02 3.58-0.05 7.18 0.06 10.79 6.5 1.82 13.27 1.16 19.94 1.24 68.66 0 137.33 0.01 206 0 4.64 0.11 9.46-0.61 13.92 1.07 7.79 2.31 14.49 7.18 20.38 12.65 2.23 2.08 4.98 3.64 6.86 6.11 6.37 10.34 11.88 21.37 14.79 33.23 0.99 4.92 1.46 9.95 2.05 14.95-0.05 12.22-3.25 24.33-8.79 35.21-4.86 9.05-11.87 16.72-19.62 23.37-8.99 6.42-19.36 11.7-30.56 12.41-113.01 0.02-226.02 0-339.03 0.01-7.55-0.13-15.23 0.67-22.61-1.37-2.78-0.82-6.79-0.96-7.74-4.29-1.56-4.94-2.36-10.14-2.66-15.3 0.01-144.01 0.02-288.03 0-432.04-0.34-7.82 0.9-15.55 1.68-23.29 2.05-17.09 7.14-34.36 18.1-47.93 5.18-5.17 9.98-10.92 16.41-14.6z"/>
<path d="m3509.4 2039.4c4.48-0.73 9.06-0.29 13.61-0.4 14.9-0.68 29.31 5.32 41.41 13.63 16.21 11.15 27.79 29.17 30.21 48.8 0.74 5.15 0.23 10.39 0.4 15.6 0.82 19.15-8.95 37.49-22.75 50.27-11.27 10.6-25.85 17.93-41.29 19.67-6.68 0.18-13.36 0-20.02 0.09-4.55 0.08-8.86-1.51-13.11-2.86-10.8-3.29-19.87-10.46-28.13-17.89-6.11-6.72-11.72-13.98-16.03-21.98-1.86-3.4-1.61-7.34-2.04-11.03-1.18-6.7-0.51-13.52-0.64-20.27 0.14-6.77-0.53-13.59 0.63-20.28 0.39-3.64 0.45-7.46 2.38-10.69 5.93-10.05 14.35-18.29 22.84-26.17 9.68-7.39 20.25-14.55 32.53-16.49z"/>
</g>
<g fill="#e72e7a">
<path d="m1112.4 109.39c4.58-0.72 9.3-0.58 13.86 0.27 23.97 2.08 47.2 13.95 62.18 32.89 13.37 16.95 19.52 39 18.48 60.42-1.95 19.26-8.9 39.11-23.67 52.29-6.56 7.43-15.04 12.84-23.91 17.1-9.87 4.71-20.24 9.16-31.31 9.66-7.02-0.17-14.14 0.57-21.06-0.97-23.76-4.5-45.87-18.66-58.69-39.34-6.81-10.88-11.01-23.8-10.3-36.71 0.23-13.92-1.19-28.24 3.34-41.66 3.42-10.5 10.55-19.15 17.53-27.49 14.19-14.41 33.12-24.92 53.55-26.46z"/>
<path d="m2839 110.04c57.31-0.07 114.61-0.07 171.92 0 0.13 21.66-0.04 43.33 0.07 64.98 1.76 10.9 0.67 21.99 0.97 32.98v992c-0.33 11.99 0.84 24.08-0.95 35.98-0.12 1.65-0.14 3.31-0.15 4.99-54.97 0.08-109.94 0-164.9 0.03-8.57 0.05-17.15-0.21-25.69 0.35-8.63-1.14-17.54 0.96-25.94-1.69-3.98-0.44-5.69-4.42-7.7-7.32-4.44-8.48-6.36-17.99-8.88-27.14-6.65-27.41-14.79-54.42-22.46-81.55-6.59-22.42-12.3-45.08-18.33-67.65-17.87-66.74-36.92-133.17-55.22-199.79-6.95-24.89-13.17-49.98-20.12-74.86-12.88-46.17-26.03-92.27-38.48-138.56-4.19-15.51-8-31.21-9.77-47.21-0.58-4.19-0.21-8.5-1.63-12.55-2.54-0.07-5.06-0.07-7.56-0.02-1.43 12.32-2.93 24.63-4.19 36.96-0.17 4.77 0.35 9.6-0.76 14.3-0.99 4.26 0.74 8.43 0.74 12.69-0.03 95.02 0 190.05-0.01 285.07-1.63 16.84-9.23 32.91-20.54 45.43-2.8 4.2-7.13 6.88-10.79 10.21-13.82 11.48-31.28 18.71-49.25 19.8-4.79 1.33-9.57-0.47-14.37-0.55-10.12-0.81-19.18-5.77-28.4-9.57-9.56-4.97-18.99-10.68-26.43-18.57-9.56-9-15.27-21.46-17.8-34.19-1.42-6.45-1.47-13.06-2.39-19.57 0.18-9.36-0.79-18.82 0.91-28.07-0.8-6.46-1.61-13.04-0.52-19.53 0.96-4.75 0.48-9.62 0.58-14.42 0.01-199-0.02-398 0.01-597 0.21-4.38-0.22-8.72-0.93-13.03 0.02-8.02-0.71-16.15 0.74-24.1-0.04-16.09 4.88-31.83 11.83-46.23 6.62-12.18 14.76-23.6 24.57-33.42 21.74-20.58 50.14-36.37 80.75-36.32 4.07-0.65 8.22-1.4 12.3-0.2 24.88 0.54 49.62 8.69 69.95 23.08 16.09 11.29 28.73 27.17 37.12 44.88 10.12 19.52 15.23 41.04 20.89 62.14 35.96 132.82 73.58 265.18 110.11 397.85 6.06 23.3 13.32 46.31 18.11 69.94 2.38 11.33 5.3 22.61 9.58 33.39 3.48 7.04 6.31 14.71 11.88 20.44 0.21-22.82 0.03-45.64 0.08-68.46-0.06-3.35 1.04-6.58 1.01-9.92-0.03-65.69 0.04-131.38-0.03-197.07-1.67-9.9-0.75-19.97-0.97-29.97 0.02-70.01-0.04-140.02 0.03-210.03 1.69-10.23 0.72-20.64 0.97-30.97 0.03-35.99-0.06-71.97 0.04-107.96z"/>
<path d="m3243.4 661.38c6.14-0.79 12.39-0.31 18.58-0.33 12.24 1.63 24.3 5.51 34.73 12.23 6.32 3.45 11.43 8.56 16.97 13.06 6.84 7.65 13.72 15.54 18.02 24.99 9.95 18.21 12.13 40.45 5.9 60.26-3.21 11.22-8.83 21.72-16.38 30.61-3.2 3.17-5.5 7.2-9.31 9.71-16.24 15.4-38.52 24.15-60.86 24.04-20.19-1.35-39.54-10.03-54.78-23.2-17.77-16.48-29.06-39.65-31.29-63.77 1.21-20.87 9.42-41.16 22.81-57.2 6.93-7.13 13.81-14.67 22.86-19.17 9.94-6.11 21.4-9 32.75-11.23z"/>
<path d="m644.06 1414.2c2.7-2.43 6.1-4.56 9.89-4.26 44.62 0.13 89.25-0.11 133.86 0.12 3.27 1.41 6.33 5.07 6.2 8.89-0.02 311.34-0.01 622.68-0.01 934.02-0.1 5.75 1.03 12.24-2.94 17.07-1.69 3.28-5.69 3.9-9.02 3.95-33.35-0.05-66.7-0.01-100.04-0.02-13.16 0.45-26.3-1.71-38.96-5.17-0.1-290.61-0.01-581.22-0.04-871.83 0.09-4.53-0.35-9.1 0.42-13.58 0.97-4.75 0.49-9.62 0.58-14.42 0.04-18.26-0.09-36.52 0.06-54.77z"/>
<path d="m3444.4 1422.4c18.6-5.11 37.11-11.6 56.54-12.45 13.33 0.1 26.67-0.12 40.01 0.1 5.88 1.16 11.96 0.54 17.79 2.14 22.83 5.7 46.06 10.62 67.59 20.42 10.82 4.24 20.76 10.34 30.71 16.29 16.58 9.91 31.52 22.29 45.71 35.3 23.24 23.2 43.33 49.89 57.23 79.77 5.77 10.06 8.9 21.47 9.96 32.98-0.34 5.38 1.42 10.7 0.16 16.05 0.08 9.42-1.24 19.35-6.88 27.2-7.07 11.05-18.44 18.28-29.89 24.11-4.99 1.97-9.73 5.17-15.29 4.8-6.26 1.24-12.64 0.63-18.93 1.03-6.03 1.22-12.25 1.15-18.27 0.05-7.41-0.23-14.71-2.38-21.2-5.89-6.6-3.87-11.47-9.86-16.93-15.07-5.26-4.92-8.95-11.16-12.94-17.05-6.2-9.47-11.61-19.47-18.66-28.35-2.63-3.05-5.72-5.68-8.01-8.99-3.3-4.4-8.1-7.23-11.89-11.11-12.82-11.19-28.11-20.45-45.24-22.72-12.58-0.38-25.25 0.64-37.76-0.69-5.41 1.11-11.01 0.07-16.35 1.52-11.74 2.35-22.06 8.67-32.02 15-7.62 5.61-15.16 11.43-21.59 18.4-4.42 5.29-9.02 10.46-12.68 16.32-7.46 11.15-14.75 23.53-14.59 37.38 0.38 5.39-1.39 10.62-1.02 16.02 0.2 6.91-0.37 13.85 0.31 20.74 1.58 6.53-0.45 13.48 2.13 19.84 5.89 13.79 14.45 26.39 24.69 37.31 3.42 4.52 7.47 8.58 12.01 12 12.24 11.68 26.16 21.43 40.28 30.72 33.2 22.41 68.3 41.8 102.65 62.34 33.24 19.98 66.04 41.11 95.18 66.83 2.76 2.91 6.21 5.07 9.03 7.96 6.98 7.02 13.98 14.02 21 21.01 6.55 6.16 12.01 13.36 17.6 20.39 9.34 11.8 16.59 25.04 23.83 38.18 6.09 13.36 11.95 26.9 15.94 41.06 1.33 5.13 3.75 10.16 3.4 15.6-0.21 5.03-0.05 10.08 0.89 15.06 0.2 17.65 0.01 35.31 0.08 52.97-0.15 10.66 0.58 21.38-1 31.96 1.02 11.66-3.25 22.75-6.2 33.83-12.1 38.66-34.76 73.32-62.03 102.98-6.96 7.44-15.08 13.63-22.91 20.1-24.12 18.95-50.95 34.55-79.73 45.24-8.98 2.92-17.82 6.53-27.23 7.75-3.75 0.23-7.51 0.01-11.16 0.86-8.27 0.94-16.68-0.64-24.86 1.11-9.64 0.42-19.29 0.03-28.92 0.2-4.04 0.15-7.92-1.22-11.92-1.05-8.36 0.03-16.7 0-25.04 0.04-9.58 0.52-18.74-2.83-27.88-5.12-32.55-8.97-62.95-24.87-89.8-45.21-13.19-10.36-26.05-21.34-36.33-34.68-12.67-15.39-24.14-31.77-33.82-49.19-11.02-19.36-18.59-40.49-23.94-62.05-1.04-5.56-2.39-11.11-2.26-16.79 0.02-3.69-1.18-7.26-0.99-10.95 0.06-10.66-0.07-21.33 0.06-31.99 12.32-0.12 24.63 0 36.96-0.04 7.34-0.11 14.76 0.5 22.03-0.92 13.63-0.15 27.29-0.14 40.94 0 7.25 1.43 14.67 0.8 22.03 0.92 6.93 0.03 13.88-0.09 20.84 0.03 1.49 3.57 1.02 7.52 1.87 11.26 2.02 12.73 4.85 25.57 10.93 37.05 4.53 9.53 11.48 17.7 19.12 24.89 2.82 2.52 4.63 6.02 7.8 8.21 4.42 3.55 7.9 8.17 12.71 11.29 13 10.75 29.6 15.74 45.84 19.16 5.32 1.28 10.83 0.8 16.19 1.85 2.9 0.53 5.75-0.72 8.69-0.67 6.92 0.1 13.62-1.92 20.21-3.85 8.41-2.01 16.69-4.75 24.49-8.53 18.96-9.72 34.44-25.34 45.71-43.29 8.27-12.45 13.24-26.89 15.31-41.65 0.46-7 2.32-14.04 0.6-21.01-0.51-10.8-2.88-21.44-6.45-31.62-4.66-11.22-11.47-21.45-19.19-30.78-5.31-5.39-9.49-11.89-15.79-16.23-14.88-13.8-31.74-25.23-48.7-36.28-63.74-40.31-131.87-74.39-189.99-123.02-6.71-5.61-13.49-11.15-19.44-17.56-28.5-26.97-49.94-61.13-62.89-98.11-7.27-20.98-11.43-42.99-12.88-65.1 0.03-13.03 0.02-26.05 0-39.07 1.46-22.88 6.82-45.49 15.19-66.83 8.19-21.28 18.32-41.9 31.25-60.72 5.14-6.83 10.14-13.78 15.77-20.23 5.47-7.13 12.37-12.96 18.56-19.45 5.63-6.09 12.28-11.07 18.69-16.31 9.03-7.52 18.95-13.91 28.99-20.01 8.56-5.43 17.92-9.4 26.89-14.1 9.37-4.43 19.19-7.85 29.1-10.89z"/>
<path d="m2834.4 1413.4c10.15-0.91 20.39-0.14 30.59-0.39h257c8.6-0.25 17.29-0.11 25.61 2.4 19.27 6.01 35.99 20 44.76 38.25 5.04 9.55 7.03 20.39 7.36 31.07-0.87 6.78-1.2 13.74-3.82 20.17-5.68 18.37-18.92 34.14-35.91 43.1-6.98 2.99-14.27 5.89-21.96 6.04-99.68-0.06-199.36-0.03-299.04-0.02-20.88 1.24-41.06-10.22-53.26-26.76-6.74-8.92-11.14-19.59-13.47-30.49-0.3-4.89-1.81-9.71-1.13-14.63 1.13-5.8 0.63-11.82 2.5-17.5 5.29-19.92 20.19-36.56 38.68-45.33 6.81-3.64 14.45-5.26 22.09-5.91z"/>
<path d="m987.4 1614.4c6.48-0.77 13.05-0.32 19.57-0.33 10.36 1.3 20.75 4.47 29.19 10.79 11.62 7.85 21.63 18.37 28.1 30.89 3.41 7.61 6.24 15.79 5.77 24.26-0.48 10.05 1.26 20.39-1.88 30.16-3.82 11.85-10.83 22.58-19.88 31.12-13.3 14.13-33.01 21.4-52.27 20.76-9.38 0.23-19.01-1.3-27.43-5.6-9.26-4.11-17.57-10.14-24.34-17.67-7.4-6.44-11.87-15.36-15.81-24.16-2.69-7.27-5.26-14.74-5.44-22.56-1.1-22.6 9.47-44.94 26.21-59.85 9.99-10.48 24.11-15.82 38.21-17.81z"/>
<path d="m1552.4 1648.4c7.3-0.68 14.92-1.03 22.03 1.18 8.03 1.84 15.28 5.89 22.72 9.3 19.81 10.41 32.61 30.98 37.71 52.32 1.72 5.5 1.42 11.38 0.36 16.98-1.85 16.61-8.8 32.65-19.84 45.2-3.49 4.85-8.52 8.19-13.07 11.95-6.66 4.43-13.87 9.57-22.31 8.75-9.59 1.57-19.33 0.73-29 0.97-8.21 0.39-16.22-2.18-23.67-5.36-8.55-5.14-17.04-10.77-23.46-18.52-8.5-10.41-13.99-23.33-15.34-36.72-1.86-9.16 0.96-18.28 0.49-27.46 0.8-12.5 7.27-24.18 16.22-32.74 12.3-13.55 29.74-21.26 47.16-25.85z"/>
</g>
</svg>
