<?xml version="1.0" encoding="UTF-8"?>
<svg enable-background="new 0 0 495 495" version="1.1" viewBox="0 0 495 495" xml:space="preserve" xmlns="http://www.w3.org/2000/svg">

	<path d="m85 455h330v-45h-375c0 24.81 20.19 45 45 45z" fill="#FF9811"/>
	<path d="M85,365c-24.81,0-45,20.19-45,45h375v-45H85z" fill="#FFB655"/>
	<rect x="247.5" width="247.5" height="90.25" fill="#FF5023"/>
	<path d="M85,325h162.5V0H85C38.13,0,0,38.13,0,85v325C0,363.13,38.13,325,85,325z" fill="#FF6243"/>
	<path d="M247.5,325H85c-46.87,0-85,38.13-85,85s38.13,85,85,85h370V365h40v-90.25H247.5V325z M415,455H85   c-24.81,0-45-20.19-45-45s20.19-45,45-45h330V455z" fill="#FF5023"/>
	<path d="m247.5 274.75h247.5v-184.5h-247.5v184.5zm92.25-122.25c16.542 0 30 13.458 30 30s-13.458 30-30 30-30-13.458-30-30 13.458-30 30-30z" fill="#FF7956"/>
	<path d="m339.75 212.5c16.542 0 30-13.458 30-30s-13.458-30-30-30-30 13.458-30 30 13.458 30 30 30z" fill="#fff"/>
</svg>
