<svg xmlns="http://www.w3.org/2000/svg" xmlns:xlink="http://www.w3.org/1999/xlink" width="1920" height="1080" viewBox="0 0 1920 1080"><defs><style>.a,.c{fill:none;}.b{clip-path:url(#a);}.c{stroke:#fff;stroke-linecap:round;stroke-linejoin:round;stroke-width:8.333px;}.d{fill:#fff;}.e{isolation:isolate;clip-path:url(#b);}</style><clipPath id="a"><rect class="a" width="1920" height="1080"/></clipPath><clipPath id="b"><rect class="a" x="4" width="74.007" height="74.071"/></clipPath></defs><g class="b"><g transform="translate(-7.544 -8.701)"><g transform="translate(12.112 13)"><path class="c" d="M68.75,39.167,31.25,17.542" transform="translate(-12.5 -8.342)"/><path class="c" d="M87.5,66.667V33.333a8.333,8.333,0,0,0-4.167-7.208L54.167,9.458a8.333,8.333,0,0,0-8.333,0L16.667,26.125A8.333,8.333,0,0,0,12.5,33.333V66.667a8.333,8.333,0,0,0,4.167,7.208L45.833,90.542a8.333,8.333,0,0,0,8.333,0L83.333,73.875A8.333,8.333,0,0,0,87.5,66.667Z" transform="translate(-12.5 -8.342)"/><path class="c" d="M13.625,29,50,50.042,86.375,29" transform="translate(-12.5 -8.342)"/><path class="c" d="M50,92V50" transform="translate(-12.5 -8.342)"/></g><path class="d" d="M97.788,30.308,89.918,92H63.336L55.5,30H87.95L94.364,7.846,98,8.942l-6.154,21.32ZM51.74,66s.994-8-12.79-8H17c-13.764,0-12.79,8-12.79,8ZM4.208,84S3.234,92,17,92H38.952c13.784,0,12.79-8,12.79-8Zm45.47-4c2.256,0,4.078-2.228,4.078-5,0-2.786-1.822-5-4.078-5H6.08C3.834,70,2,72.216,2,75c0,2.77,1.834,5,4.08,5Z" transform="translate(137.263 4.906)"/><g class="e" transform="translate(288.326 22.835)"><path class="d" d="M25.448.022a5.286,5.286,0,0,0-5.659,3.49l-2.372,8.141c30.052.794,50.381,18.9,51.653,45.862l9.12-2.283a4.8,4.8,0,0,0,3.783-5.194C78.629,23.883,54.585,2.506,25.448.022Zm-9.365,16.2L.089,71.128a2.2,2.2,0,0,0,.686,2.266,2.793,2.793,0,0,0,2.517.592L64,58.78c-.684-25.3-19.714-42.265-47.916-42.549ZM20.5,60.185a4.654,4.654,0,1,1,0-9.259,4.654,4.654,0,1,1,0,9.259Zm7.688-21.991a4.9,4.9,0,0,1-5.126-4.63,4.9,4.9,0,0,1,5.126-4.63,4.9,4.9,0,0,1,5.126,4.63A4.9,4.9,0,0,1,28.191,38.194ZM44.85,53.24a4.9,4.9,0,0,1-5.126-4.63,4.9,4.9,0,0,1,5.126-4.63,4.9,4.9,0,0,1,5.126,4.63A4.9,4.9,0,0,1,44.85,53.24Z" transform="translate(-0.003 0.001)"/></g></g><g transform="translate(371.456 -8.701)"><g transform="translate(12.112 13)"><path class="c" d="M68.75,39.167,31.25,17.542" transform="translate(-12.5 -8.342)"/><path class="c" d="M87.5,66.667V33.333a8.333,8.333,0,0,0-4.167-7.208L54.167,9.458a8.333,8.333,0,0,0-8.333,0L16.667,26.125A8.333,8.333,0,0,0,12.5,33.333V66.667a8.333,8.333,0,0,0,4.167,7.208L45.833,90.542a8.333,8.333,0,0,0,8.333,0L83.333,73.875A8.333,8.333,0,0,0,87.5,66.667Z" transform="translate(-12.5 -8.342)"/><path class="c" d="M13.625,29,50,50.042,86.375,29" transform="translate(-12.5 -8.342)"/><path class="c" d="M50,92V50" transform="translate(-12.5 -8.342)"/></g><path class="d" d="M97.788,30.308,89.918,92H63.336L55.5,30H87.95L94.364,7.846,98,8.942l-6.154,21.32ZM51.74,66s.994-8-12.79-8H17c-13.764,0-12.79,8-12.79,8ZM4.208,84S3.234,92,17,92H38.952c13.784,0,12.79-8,12.79-8Zm45.47-4c2.256,0,4.078-2.228,4.078-5,0-2.786-1.822-5-4.078-5H6.08C3.834,70,2,72.216,2,75c0,2.77,1.834,5,4.08,5Z" transform="translate(137.263 4.906)"/><g class="e" transform="translate(288.326 22.835)"><path class="d" d="M25.448.022a5.286,5.286,0,0,0-5.659,3.49l-2.372,8.141c30.052.794,50.381,18.9,51.653,45.862l9.12-2.283a4.8,4.8,0,0,0,3.783-5.194C78.629,23.883,54.585,2.506,25.448.022Zm-9.365,16.2L.089,71.128a2.2,2.2,0,0,0,.686,2.266,2.793,2.793,0,0,0,2.517.592L64,58.78c-.684-25.3-19.714-42.265-47.916-42.549ZM20.5,60.185a4.654,4.654,0,1,1,0-9.259,4.654,4.654,0,1,1,0,9.259Zm7.688-21.991a4.9,4.9,0,0,1-5.126-4.63,4.9,4.9,0,0,1,5.126-4.63,4.9,4.9,0,0,1,5.126,4.63A4.9,4.9,0,0,1,28.191,38.194ZM44.85,53.24a4.9,4.9,0,0,1-5.126-4.63,4.9,4.9,0,0,1,5.126-4.63,4.9,4.9,0,0,1,5.126,4.63A4.9,4.9,0,0,1,44.85,53.24Z" transform="translate(-0.003 0.001)"/></g></g><g transform="translate(750.456 -8.701)"><g transform="translate(12.112 13)"><path class="c" d="M68.75,39.167,31.25,17.542" transform="translate(-12.5 -8.342)"/><path class="c" d="M87.5,66.667V33.333a8.333,8.333,0,0,0-4.167-7.208L54.167,9.458a8.333,8.333,0,0,0-8.333,0L16.667,26.125A8.333,8.333,0,0,0,12.5,33.333V66.667a8.333,8.333,0,0,0,4.167,7.208L45.833,90.542a8.333,8.333,0,0,0,8.333,0L83.333,73.875A8.333,8.333,0,0,0,87.5,66.667Z" transform="translate(-12.5 -8.342)"/><path class="c" d="M13.625,29,50,50.042,86.375,29" transform="translate(-12.5 -8.342)"/><path class="c" d="M50,92V50" transform="translate(-12.5 -8.342)"/></g><path class="d" d="M97.788,30.308,89.918,92H63.336L55.5,30H87.95L94.364,7.846,98,8.942l-6.154,21.32ZM51.74,66s.994-8-12.79-8H17c-13.764,0-12.79,8-12.79,8ZM4.208,84S3.234,92,17,92H38.952c13.784,0,12.79-8,12.79-8Zm45.47-4c2.256,0,4.078-2.228,4.078-5,0-2.786-1.822-5-4.078-5H6.08C3.834,70,2,72.216,2,75c0,2.77,1.834,5,4.08,5Z" transform="translate(137.263 4.906)"/><g class="e" transform="translate(288.326 22.835)"><path class="d" d="M25.448.022a5.286,5.286,0,0,0-5.659,3.49l-2.372,8.141c30.052.794,50.381,18.9,51.653,45.862l9.12-2.283a4.8,4.8,0,0,0,3.783-5.194C78.629,23.883,54.585,2.506,25.448.022Zm-9.365,16.2L.089,71.128a2.2,2.2,0,0,0,.686,2.266,2.793,2.793,0,0,0,2.517.592L64,58.78c-.684-25.3-19.714-42.265-47.916-42.549ZM20.5,60.185a4.654,4.654,0,1,1,0-9.259,4.654,4.654,0,1,1,0,9.259Zm7.688-21.991a4.9,4.9,0,0,1-5.126-4.63,4.9,4.9,0,0,1,5.126-4.63,4.9,4.9,0,0,1,5.126,4.63A4.9,4.9,0,0,1,28.191,38.194ZM44.85,53.24a4.9,4.9,0,0,1-5.126-4.63,4.9,4.9,0,0,1,5.126-4.63,4.9,4.9,0,0,1,5.126,4.63A4.9,4.9,0,0,1,44.85,53.24Z" transform="translate(-0.003 0.001)"/></g></g><g transform="translate(1129.456 -8.701)"><g transform="translate(12.112 13)"><path class="c" d="M68.75,39.167,31.25,17.542" transform="translate(-12.5 -8.342)"/><path class="c" d="M87.5,66.667V33.333a8.333,8.333,0,0,0-4.167-7.208L54.167,9.458a8.333,8.333,0,0,0-8.333,0L16.667,26.125A8.333,8.333,0,0,0,12.5,33.333V66.667a8.333,8.333,0,0,0,4.167,7.208L45.833,90.542a8.333,8.333,0,0,0,8.333,0L83.333,73.875A8.333,8.333,0,0,0,87.5,66.667Z" transform="translate(-12.5 -8.342)"/><path class="c" d="M13.625,29,50,50.042,86.375,29" transform="translate(-12.5 -8.342)"/><path class="c" d="M50,92V50" transform="translate(-12.5 -8.342)"/></g><path class="d" d="M97.788,30.308,89.918,92H63.336L55.5,30H87.95L94.364,7.846,98,8.942l-6.154,21.32ZM51.74,66s.994-8-12.79-8H17c-13.764,0-12.79,8-12.79,8ZM4.208,84S3.234,92,17,92H38.952c13.784,0,12.79-8,12.79-8Zm45.47-4c2.256,0,4.078-2.228,4.078-5,0-2.786-1.822-5-4.078-5H6.08C3.834,70,2,72.216,2,75c0,2.77,1.834,5,4.08,5Z" transform="translate(137.263 4.906)"/><g class="e" transform="translate(288.326 22.835)"><path class="d" d="M25.448.022a5.286,5.286,0,0,0-5.659,3.49l-2.372,8.141c30.052.794,50.381,18.9,51.653,45.862l9.12-2.283a4.8,4.8,0,0,0,3.783-5.194C78.629,23.883,54.585,2.506,25.448.022Zm-9.365,16.2L.089,71.128a2.2,2.2,0,0,0,.686,2.266,2.793,2.793,0,0,0,2.517.592L64,58.78c-.684-25.3-19.714-42.265-47.916-42.549ZM20.5,60.185a4.654,4.654,0,1,1,0-9.259,4.654,4.654,0,1,1,0,9.259Zm7.688-21.991a4.9,4.9,0,0,1-5.126-4.63,4.9,4.9,0,0,1,5.126-4.63,4.9,4.9,0,0,1,5.126,4.63A4.9,4.9,0,0,1,28.191,38.194ZM44.85,53.24a4.9,4.9,0,0,1-5.126-4.63,4.9,4.9,0,0,1,5.126-4.63,4.9,4.9,0,0,1,5.126,4.63A4.9,4.9,0,0,1,44.85,53.24Z" transform="translate(-0.003 0.001)"/></g></g><g transform="translate(1508.456 -8.701)"><g transform="translate(12.112 13)"><path class="c" d="M68.75,39.167,31.25,17.542" transform="translate(-12.5 -8.342)"/><path class="c" d="M87.5,66.667V33.333a8.333,8.333,0,0,0-4.167-7.208L54.167,9.458a8.333,8.333,0,0,0-8.333,0L16.667,26.125A8.333,8.333,0,0,0,12.5,33.333V66.667a8.333,8.333,0,0,0,4.167,7.208L45.833,90.542a8.333,8.333,0,0,0,8.333,0L83.333,73.875A8.333,8.333,0,0,0,87.5,66.667Z" transform="translate(-12.5 -8.342)"/><path class="c" d="M13.625,29,50,50.042,86.375,29" transform="translate(-12.5 -8.342)"/><path class="c" d="M50,92V50" transform="translate(-12.5 -8.342)"/></g><path class="d" d="M97.788,30.308,89.918,92H63.336L55.5,30H87.95L94.364,7.846,98,8.942l-6.154,21.32ZM51.74,66s.994-8-12.79-8H17c-13.764,0-12.79,8-12.79,8ZM4.208,84S3.234,92,17,92H38.952c13.784,0,12.79-8,12.79-8Zm45.47-4c2.256,0,4.078-2.228,4.078-5,0-2.786-1.822-5-4.078-5H6.08C3.834,70,2,72.216,2,75c0,2.77,1.834,5,4.08,5Z" transform="translate(137.263 4.906)"/><g class="e" transform="translate(288.326 22.835)"><path class="d" d="M25.448.022a5.286,5.286,0,0,0-5.659,3.49l-2.372,8.141c30.052.794,50.381,18.9,51.653,45.862l9.12-2.283a4.8,4.8,0,0,0,3.783-5.194C78.629,23.883,54.585,2.506,25.448.022Zm-9.365,16.2L.089,71.128a2.2,2.2,0,0,0,.686,2.266,2.793,2.793,0,0,0,2.517.592L64,58.78c-.684-25.3-19.714-42.265-47.916-42.549ZM20.5,60.185a4.654,4.654,0,1,1,0-9.259,4.654,4.654,0,1,1,0,9.259Zm7.688-21.991a4.9,4.9,0,0,1-5.126-4.63,4.9,4.9,0,0,1,5.126-4.63,4.9,4.9,0,0,1,5.126,4.63A4.9,4.9,0,0,1,28.191,38.194ZM44.85,53.24a4.9,4.9,0,0,1-5.126-4.63,4.9,4.9,0,0,1,5.126-4.63,4.9,4.9,0,0,1,5.126,4.63A4.9,4.9,0,0,1,44.85,53.24Z" transform="translate(-0.003 0.001)"/></g></g><g transform="translate(1887.456 -8.701)"><g transform="translate(12.112 13)"><path class="c" d="M68.75,39.167,31.25,17.542" transform="translate(-12.5 -8.342)"/><path class="c" d="M87.5,66.667V33.333a8.333,8.333,0,0,0-4.167-7.208L54.167,9.458a8.333,8.333,0,0,0-8.333,0L16.667,26.125A8.333,8.333,0,0,0,12.5,33.333V66.667a8.333,8.333,0,0,0,4.167,7.208L45.833,90.542a8.333,8.333,0,0,0,8.333,0L83.333,73.875A8.333,8.333,0,0,0,87.5,66.667Z" transform="translate(-12.5 -8.342)"/><path class="c" d="M13.625,29,50,50.042,86.375,29" transform="translate(-12.5 -8.342)"/><path class="c" d="M50,92V50" transform="translate(-12.5 -8.342)"/></g><path class="d" d="M97.788,30.308,89.918,92H63.336L55.5,30H87.95L94.364,7.846,98,8.942l-6.154,21.32ZM51.74,66s.994-8-12.79-8H17c-13.764,0-12.79,8-12.79,8ZM4.208,84S3.234,92,17,92H38.952c13.784,0,12.79-8,12.79-8Zm45.47-4c2.256,0,4.078-2.228,4.078-5,0-2.786-1.822-5-4.078-5H6.08C3.834,70,2,72.216,2,75c0,2.77,1.834,5,4.08,5Z" transform="translate(137.263 4.906)"/><g class="e" transform="translate(288.326 22.835)"><path class="d" d="M25.448.022a5.286,5.286,0,0,0-5.659,3.49l-2.372,8.141c30.052.794,50.381,18.9,51.653,45.862l9.12-2.283a4.8,4.8,0,0,0,3.783-5.194C78.629,23.883,54.585,2.506,25.448.022Zm-9.365,16.2L.089,71.128a2.2,2.2,0,0,0,.686,2.266,2.793,2.793,0,0,0,2.517.592L64,58.78c-.684-25.3-19.714-42.265-47.916-42.549ZM20.5,60.185a4.654,4.654,0,1,1,0-9.259,4.654,4.654,0,1,1,0,9.259Zm7.688-21.991a4.9,4.9,0,0,1-5.126-4.63,4.9,4.9,0,0,1,5.126-4.63,4.9,4.9,0,0,1,5.126,4.63A4.9,4.9,0,0,1,28.191,38.194ZM44.85,53.24a4.9,4.9,0,0,1-5.126-4.63,4.9,4.9,0,0,1,5.126-4.63,4.9,4.9,0,0,1,5.126,4.63A4.9,4.9,0,0,1,44.85,53.24Z" transform="translate(-0.003 0.001)"/></g></g><g transform="translate(-7.544 179.299)"><g transform="translate(12.112 13)"><path class="c" d="M68.75,39.167,31.25,17.542" transform="translate(-12.5 -8.342)"/><path class="c" d="M87.5,66.667V33.333a8.333,8.333,0,0,0-4.167-7.208L54.167,9.458a8.333,8.333,0,0,0-8.333,0L16.667,26.125A8.333,8.333,0,0,0,12.5,33.333V66.667a8.333,8.333,0,0,0,4.167,7.208L45.833,90.542a8.333,8.333,0,0,0,8.333,0L83.333,73.875A8.333,8.333,0,0,0,87.5,66.667Z" transform="translate(-12.5 -8.342)"/><path class="c" d="M13.625,29,50,50.042,86.375,29" transform="translate(-12.5 -8.342)"/><path class="c" d="M50,92V50" transform="translate(-12.5 -8.342)"/></g><path class="d" d="M97.788,30.308,89.918,92H63.336L55.5,30H87.95L94.364,7.846,98,8.942l-6.154,21.32ZM51.74,66s.994-8-12.79-8H17c-13.764,0-12.79,8-12.79,8ZM4.208,84S3.234,92,17,92H38.952c13.784,0,12.79-8,12.79-8Zm45.47-4c2.256,0,4.078-2.228,4.078-5,0-2.786-1.822-5-4.078-5H6.08C3.834,70,2,72.216,2,75c0,2.77,1.834,5,4.08,5Z" transform="translate(137.263 4.906)"/><g class="e" transform="translate(288.326 22.835)"><path class="d" d="M25.448.022a5.286,5.286,0,0,0-5.659,3.49l-2.372,8.141c30.052.794,50.381,18.9,51.653,45.862l9.12-2.283a4.8,4.8,0,0,0,3.783-5.194C78.629,23.883,54.585,2.506,25.448.022Zm-9.365,16.2L.089,71.128a2.2,2.2,0,0,0,.686,2.266,2.793,2.793,0,0,0,2.517.592L64,58.78c-.684-25.3-19.714-42.265-47.916-42.549ZM20.5,60.185a4.654,4.654,0,1,1,0-9.259,4.654,4.654,0,1,1,0,9.259Zm7.688-21.991a4.9,4.9,0,0,1-5.126-4.63,4.9,4.9,0,0,1,5.126-4.63,4.9,4.9,0,0,1,5.126,4.63A4.9,4.9,0,0,1,28.191,38.194ZM44.85,53.24a4.9,4.9,0,0,1-5.126-4.63,4.9,4.9,0,0,1,5.126-4.63,4.9,4.9,0,0,1,5.126,4.63A4.9,4.9,0,0,1,44.85,53.24Z" transform="translate(-0.003 0.001)"/></g></g><g transform="translate(371.456 179.299)"><g transform="translate(12.112 13)"><path class="c" d="M68.75,39.167,31.25,17.542" transform="translate(-12.5 -8.342)"/><path class="c" d="M87.5,66.667V33.333a8.333,8.333,0,0,0-4.167-7.208L54.167,9.458a8.333,8.333,0,0,0-8.333,0L16.667,26.125A8.333,8.333,0,0,0,12.5,33.333V66.667a8.333,8.333,0,0,0,4.167,7.208L45.833,90.542a8.333,8.333,0,0,0,8.333,0L83.333,73.875A8.333,8.333,0,0,0,87.5,66.667Z" transform="translate(-12.5 -8.342)"/><path class="c" d="M13.625,29,50,50.042,86.375,29" transform="translate(-12.5 -8.342)"/><path class="c" d="M50,92V50" transform="translate(-12.5 -8.342)"/></g><path class="d" d="M97.788,30.308,89.918,92H63.336L55.5,30H87.95L94.364,7.846,98,8.942l-6.154,21.32ZM51.74,66s.994-8-12.79-8H17c-13.764,0-12.79,8-12.79,8ZM4.208,84S3.234,92,17,92H38.952c13.784,0,12.79-8,12.79-8Zm45.47-4c2.256,0,4.078-2.228,4.078-5,0-2.786-1.822-5-4.078-5H6.08C3.834,70,2,72.216,2,75c0,2.77,1.834,5,4.08,5Z" transform="translate(137.263 4.906)"/><g class="e" transform="translate(288.326 22.835)"><path class="d" d="M25.448.022a5.286,5.286,0,0,0-5.659,3.49l-2.372,8.141c30.052.794,50.381,18.9,51.653,45.862l9.12-2.283a4.8,4.8,0,0,0,3.783-5.194C78.629,23.883,54.585,2.506,25.448.022Zm-9.365,16.2L.089,71.128a2.2,2.2,0,0,0,.686,2.266,2.793,2.793,0,0,0,2.517.592L64,58.78c-.684-25.3-19.714-42.265-47.916-42.549ZM20.5,60.185a4.654,4.654,0,1,1,0-9.259,4.654,4.654,0,1,1,0,9.259Zm7.688-21.991a4.9,4.9,0,0,1-5.126-4.63,4.9,4.9,0,0,1,5.126-4.63,4.9,4.9,0,0,1,5.126,4.63A4.9,4.9,0,0,1,28.191,38.194ZM44.85,53.24a4.9,4.9,0,0,1-5.126-4.63,4.9,4.9,0,0,1,5.126-4.63,4.9,4.9,0,0,1,5.126,4.63A4.9,4.9,0,0,1,44.85,53.24Z" transform="translate(-0.003 0.001)"/></g></g><g transform="translate(750.456 179.299)"><g transform="translate(12.112 13)"><path class="c" d="M68.75,39.167,31.25,17.542" transform="translate(-12.5 -8.342)"/><path class="c" d="M87.5,66.667V33.333a8.333,8.333,0,0,0-4.167-7.208L54.167,9.458a8.333,8.333,0,0,0-8.333,0L16.667,26.125A8.333,8.333,0,0,0,12.5,33.333V66.667a8.333,8.333,0,0,0,4.167,7.208L45.833,90.542a8.333,8.333,0,0,0,8.333,0L83.333,73.875A8.333,8.333,0,0,0,87.5,66.667Z" transform="translate(-12.5 -8.342)"/><path class="c" d="M13.625,29,50,50.042,86.375,29" transform="translate(-12.5 -8.342)"/><path class="c" d="M50,92V50" transform="translate(-12.5 -8.342)"/></g><path class="d" d="M97.788,30.308,89.918,92H63.336L55.5,30H87.95L94.364,7.846,98,8.942l-6.154,21.32ZM51.74,66s.994-8-12.79-8H17c-13.764,0-12.79,8-12.79,8ZM4.208,84S3.234,92,17,92H38.952c13.784,0,12.79-8,12.79-8Zm45.47-4c2.256,0,4.078-2.228,4.078-5,0-2.786-1.822-5-4.078-5H6.08C3.834,70,2,72.216,2,75c0,2.77,1.834,5,4.08,5Z" transform="translate(137.263 4.906)"/><g class="e" transform="translate(288.326 22.835)"><path class="d" d="M25.448.022a5.286,5.286,0,0,0-5.659,3.49l-2.372,8.141c30.052.794,50.381,18.9,51.653,45.862l9.12-2.283a4.8,4.8,0,0,0,3.783-5.194C78.629,23.883,54.585,2.506,25.448.022Zm-9.365,16.2L.089,71.128a2.2,2.2,0,0,0,.686,2.266,2.793,2.793,0,0,0,2.517.592L64,58.78c-.684-25.3-19.714-42.265-47.916-42.549ZM20.5,60.185a4.654,4.654,0,1,1,0-9.259,4.654,4.654,0,1,1,0,9.259Zm7.688-21.991a4.9,4.9,0,0,1-5.126-4.63,4.9,4.9,0,0,1,5.126-4.63,4.9,4.9,0,0,1,5.126,4.63A4.9,4.9,0,0,1,28.191,38.194ZM44.85,53.24a4.9,4.9,0,0,1-5.126-4.63,4.9,4.9,0,0,1,5.126-4.63,4.9,4.9,0,0,1,5.126,4.63A4.9,4.9,0,0,1,44.85,53.24Z" transform="translate(-0.003 0.001)"/></g></g><g transform="translate(1129.456 179.299)"><g transform="translate(12.112 13)"><path class="c" d="M68.75,39.167,31.25,17.542" transform="translate(-12.5 -8.342)"/><path class="c" d="M87.5,66.667V33.333a8.333,8.333,0,0,0-4.167-7.208L54.167,9.458a8.333,8.333,0,0,0-8.333,0L16.667,26.125A8.333,8.333,0,0,0,12.5,33.333V66.667a8.333,8.333,0,0,0,4.167,7.208L45.833,90.542a8.333,8.333,0,0,0,8.333,0L83.333,73.875A8.333,8.333,0,0,0,87.5,66.667Z" transform="translate(-12.5 -8.342)"/><path class="c" d="M13.625,29,50,50.042,86.375,29" transform="translate(-12.5 -8.342)"/><path class="c" d="M50,92V50" transform="translate(-12.5 -8.342)"/></g><path class="d" d="M97.788,30.308,89.918,92H63.336L55.5,30H87.95L94.364,7.846,98,8.942l-6.154,21.32ZM51.74,66s.994-8-12.79-8H17c-13.764,0-12.79,8-12.79,8ZM4.208,84S3.234,92,17,92H38.952c13.784,0,12.79-8,12.79-8Zm45.47-4c2.256,0,4.078-2.228,4.078-5,0-2.786-1.822-5-4.078-5H6.08C3.834,70,2,72.216,2,75c0,2.77,1.834,5,4.08,5Z" transform="translate(137.263 4.906)"/><g class="e" transform="translate(288.326 22.835)"><path class="d" d="M25.448.022a5.286,5.286,0,0,0-5.659,3.49l-2.372,8.141c30.052.794,50.381,18.9,51.653,45.862l9.12-2.283a4.8,4.8,0,0,0,3.783-5.194C78.629,23.883,54.585,2.506,25.448.022Zm-9.365,16.2L.089,71.128a2.2,2.2,0,0,0,.686,2.266,2.793,2.793,0,0,0,2.517.592L64,58.78c-.684-25.3-19.714-42.265-47.916-42.549ZM20.5,60.185a4.654,4.654,0,1,1,0-9.259,4.654,4.654,0,1,1,0,9.259Zm7.688-21.991a4.9,4.9,0,0,1-5.126-4.63,4.9,4.9,0,0,1,5.126-4.63,4.9,4.9,0,0,1,5.126,4.63A4.9,4.9,0,0,1,28.191,38.194ZM44.85,53.24a4.9,4.9,0,0,1-5.126-4.63,4.9,4.9,0,0,1,5.126-4.63,4.9,4.9,0,0,1,5.126,4.63A4.9,4.9,0,0,1,44.85,53.24Z" transform="translate(-0.003 0.001)"/></g></g><g transform="translate(1508.456 179.299)"><g transform="translate(12.112 13)"><path class="c" d="M68.75,39.167,31.25,17.542" transform="translate(-12.5 -8.342)"/><path class="c" d="M87.5,66.667V33.333a8.333,8.333,0,0,0-4.167-7.208L54.167,9.458a8.333,8.333,0,0,0-8.333,0L16.667,26.125A8.333,8.333,0,0,0,12.5,33.333V66.667a8.333,8.333,0,0,0,4.167,7.208L45.833,90.542a8.333,8.333,0,0,0,8.333,0L83.333,73.875A8.333,8.333,0,0,0,87.5,66.667Z" transform="translate(-12.5 -8.342)"/><path class="c" d="M13.625,29,50,50.042,86.375,29" transform="translate(-12.5 -8.342)"/><path class="c" d="M50,92V50" transform="translate(-12.5 -8.342)"/></g><path class="d" d="M97.788,30.308,89.918,92H63.336L55.5,30H87.95L94.364,7.846,98,8.942l-6.154,21.32ZM51.74,66s.994-8-12.79-8H17c-13.764,0-12.79,8-12.79,8ZM4.208,84S3.234,92,17,92H38.952c13.784,0,12.79-8,12.79-8Zm45.47-4c2.256,0,4.078-2.228,4.078-5,0-2.786-1.822-5-4.078-5H6.08C3.834,70,2,72.216,2,75c0,2.77,1.834,5,4.08,5Z" transform="translate(137.263 4.906)"/><g class="e" transform="translate(288.326 22.835)"><path class="d" d="M25.448.022a5.286,5.286,0,0,0-5.659,3.49l-2.372,8.141c30.052.794,50.381,18.9,51.653,45.862l9.12-2.283a4.8,4.8,0,0,0,3.783-5.194C78.629,23.883,54.585,2.506,25.448.022Zm-9.365,16.2L.089,71.128a2.2,2.2,0,0,0,.686,2.266,2.793,2.793,0,0,0,2.517.592L64,58.78c-.684-25.3-19.714-42.265-47.916-42.549ZM20.5,60.185a4.654,4.654,0,1,1,0-9.259,4.654,4.654,0,1,1,0,9.259Zm7.688-21.991a4.9,4.9,0,0,1-5.126-4.63,4.9,4.9,0,0,1,5.126-4.63,4.9,4.9,0,0,1,5.126,4.63A4.9,4.9,0,0,1,28.191,38.194ZM44.85,53.24a4.9,4.9,0,0,1-5.126-4.63,4.9,4.9,0,0,1,5.126-4.63,4.9,4.9,0,0,1,5.126,4.63A4.9,4.9,0,0,1,44.85,53.24Z" transform="translate(-0.003 0.001)"/></g></g><g transform="translate(1887.456 179.299)"><g transform="translate(12.112 13)"><path class="c" d="M68.75,39.167,31.25,17.542" transform="translate(-12.5 -8.342)"/><path class="c" d="M87.5,66.667V33.333a8.333,8.333,0,0,0-4.167-7.208L54.167,9.458a8.333,8.333,0,0,0-8.333,0L16.667,26.125A8.333,8.333,0,0,0,12.5,33.333V66.667a8.333,8.333,0,0,0,4.167,7.208L45.833,90.542a8.333,8.333,0,0,0,8.333,0L83.333,73.875A8.333,8.333,0,0,0,87.5,66.667Z" transform="translate(-12.5 -8.342)"/><path class="c" d="M13.625,29,50,50.042,86.375,29" transform="translate(-12.5 -8.342)"/><path class="c" d="M50,92V50" transform="translate(-12.5 -8.342)"/></g><path class="d" d="M97.788,30.308,89.918,92H63.336L55.5,30H87.95L94.364,7.846,98,8.942l-6.154,21.32ZM51.74,66s.994-8-12.79-8H17c-13.764,0-12.79,8-12.79,8ZM4.208,84S3.234,92,17,92H38.952c13.784,0,12.79-8,12.79-8Zm45.47-4c2.256,0,4.078-2.228,4.078-5,0-2.786-1.822-5-4.078-5H6.08C3.834,70,2,72.216,2,75c0,2.77,1.834,5,4.08,5Z" transform="translate(137.263 4.906)"/><g class="e" transform="translate(288.326 22.835)"><path class="d" d="M25.448.022a5.286,5.286,0,0,0-5.659,3.49l-2.372,8.141c30.052.794,50.381,18.9,51.653,45.862l9.12-2.283a4.8,4.8,0,0,0,3.783-5.194C78.629,23.883,54.585,2.506,25.448.022Zm-9.365,16.2L.089,71.128a2.2,2.2,0,0,0,.686,2.266,2.793,2.793,0,0,0,2.517.592L64,58.78c-.684-25.3-19.714-42.265-47.916-42.549ZM20.5,60.185a4.654,4.654,0,1,1,0-9.259,4.654,4.654,0,1,1,0,9.259Zm7.688-21.991a4.9,4.9,0,0,1-5.126-4.63,4.9,4.9,0,0,1,5.126-4.63,4.9,4.9,0,0,1,5.126,4.63A4.9,4.9,0,0,1,28.191,38.194ZM44.85,53.24a4.9,4.9,0,0,1-5.126-4.63,4.9,4.9,0,0,1,5.126-4.63,4.9,4.9,0,0,1,5.126,4.63A4.9,4.9,0,0,1,44.85,53.24Z" transform="translate(-0.003 0.001)"/></g></g><g transform="translate(-7.544 367.299)"><g transform="translate(12.112 13)"><path class="c" d="M68.75,39.167,31.25,17.542" transform="translate(-12.5 -8.342)"/><path class="c" d="M87.5,66.667V33.333a8.333,8.333,0,0,0-4.167-7.208L54.167,9.458a8.333,8.333,0,0,0-8.333,0L16.667,26.125A8.333,8.333,0,0,0,12.5,33.333V66.667a8.333,8.333,0,0,0,4.167,7.208L45.833,90.542a8.333,8.333,0,0,0,8.333,0L83.333,73.875A8.333,8.333,0,0,0,87.5,66.667Z" transform="translate(-12.5 -8.342)"/><path class="c" d="M13.625,29,50,50.042,86.375,29" transform="translate(-12.5 -8.342)"/><path class="c" d="M50,92V50" transform="translate(-12.5 -8.342)"/></g><path class="d" d="M97.788,30.308,89.918,92H63.336L55.5,30H87.95L94.364,7.846,98,8.942l-6.154,21.32ZM51.74,66s.994-8-12.79-8H17c-13.764,0-12.79,8-12.79,8ZM4.208,84S3.234,92,17,92H38.952c13.784,0,12.79-8,12.79-8Zm45.47-4c2.256,0,4.078-2.228,4.078-5,0-2.786-1.822-5-4.078-5H6.08C3.834,70,2,72.216,2,75c0,2.77,1.834,5,4.08,5Z" transform="translate(137.263 4.906)"/><g class="e" transform="translate(288.326 22.835)"><path class="d" d="M25.448.022a5.286,5.286,0,0,0-5.659,3.49l-2.372,8.141c30.052.794,50.381,18.9,51.653,45.862l9.12-2.283a4.8,4.8,0,0,0,3.783-5.194C78.629,23.883,54.585,2.506,25.448.022Zm-9.365,16.2L.089,71.128a2.2,2.2,0,0,0,.686,2.266,2.793,2.793,0,0,0,2.517.592L64,58.78c-.684-25.3-19.714-42.265-47.916-42.549ZM20.5,60.185a4.654,4.654,0,1,1,0-9.259,4.654,4.654,0,1,1,0,9.259Zm7.688-21.991a4.9,4.9,0,0,1-5.126-4.63,4.9,4.9,0,0,1,5.126-4.63,4.9,4.9,0,0,1,5.126,4.63A4.9,4.9,0,0,1,28.191,38.194ZM44.85,53.24a4.9,4.9,0,0,1-5.126-4.63,4.9,4.9,0,0,1,5.126-4.63,4.9,4.9,0,0,1,5.126,4.63A4.9,4.9,0,0,1,44.85,53.24Z" transform="translate(-0.003 0.001)"/></g></g><g transform="translate(371.456 367.299)"><g transform="translate(12.112 13)"><path class="c" d="M68.75,39.167,31.25,17.542" transform="translate(-12.5 -8.342)"/><path class="c" d="M87.5,66.667V33.333a8.333,8.333,0,0,0-4.167-7.208L54.167,9.458a8.333,8.333,0,0,0-8.333,0L16.667,26.125A8.333,8.333,0,0,0,12.5,33.333V66.667a8.333,8.333,0,0,0,4.167,7.208L45.833,90.542a8.333,8.333,0,0,0,8.333,0L83.333,73.875A8.333,8.333,0,0,0,87.5,66.667Z" transform="translate(-12.5 -8.342)"/><path class="c" d="M13.625,29,50,50.042,86.375,29" transform="translate(-12.5 -8.342)"/><path class="c" d="M50,92V50" transform="translate(-12.5 -8.342)"/></g><path class="d" d="M97.788,30.308,89.918,92H63.336L55.5,30H87.95L94.364,7.846,98,8.942l-6.154,21.32ZM51.74,66s.994-8-12.79-8H17c-13.764,0-12.79,8-12.79,8ZM4.208,84S3.234,92,17,92H38.952c13.784,0,12.79-8,12.79-8Zm45.47-4c2.256,0,4.078-2.228,4.078-5,0-2.786-1.822-5-4.078-5H6.08C3.834,70,2,72.216,2,75c0,2.77,1.834,5,4.08,5Z" transform="translate(137.263 4.906)"/><g class="e" transform="translate(288.326 22.835)"><path class="d" d="M25.448.022a5.286,5.286,0,0,0-5.659,3.49l-2.372,8.141c30.052.794,50.381,18.9,51.653,45.862l9.12-2.283a4.8,4.8,0,0,0,3.783-5.194C78.629,23.883,54.585,2.506,25.448.022Zm-9.365,16.2L.089,71.128a2.2,2.2,0,0,0,.686,2.266,2.793,2.793,0,0,0,2.517.592L64,58.78c-.684-25.3-19.714-42.265-47.916-42.549ZM20.5,60.185a4.654,4.654,0,1,1,0-9.259,4.654,4.654,0,1,1,0,9.259Zm7.688-21.991a4.9,4.9,0,0,1-5.126-4.63,4.9,4.9,0,0,1,5.126-4.63,4.9,4.9,0,0,1,5.126,4.63A4.9,4.9,0,0,1,28.191,38.194ZM44.85,53.24a4.9,4.9,0,0,1-5.126-4.63,4.9,4.9,0,0,1,5.126-4.63,4.9,4.9,0,0,1,5.126,4.63A4.9,4.9,0,0,1,44.85,53.24Z" transform="translate(-0.003 0.001)"/></g></g><g transform="translate(750.456 367.299)"><g transform="translate(12.112 13)"><path class="c" d="M68.75,39.167,31.25,17.542" transform="translate(-12.5 -8.342)"/><path class="c" d="M87.5,66.667V33.333a8.333,8.333,0,0,0-4.167-7.208L54.167,9.458a8.333,8.333,0,0,0-8.333,0L16.667,26.125A8.333,8.333,0,0,0,12.5,33.333V66.667a8.333,8.333,0,0,0,4.167,7.208L45.833,90.542a8.333,8.333,0,0,0,8.333,0L83.333,73.875A8.333,8.333,0,0,0,87.5,66.667Z" transform="translate(-12.5 -8.342)"/><path class="c" d="M13.625,29,50,50.042,86.375,29" transform="translate(-12.5 -8.342)"/><path class="c" d="M50,92V50" transform="translate(-12.5 -8.342)"/></g><path class="d" d="M97.788,30.308,89.918,92H63.336L55.5,30H87.95L94.364,7.846,98,8.942l-6.154,21.32ZM51.74,66s.994-8-12.79-8H17c-13.764,0-12.79,8-12.79,8ZM4.208,84S3.234,92,17,92H38.952c13.784,0,12.79-8,12.79-8Zm45.47-4c2.256,0,4.078-2.228,4.078-5,0-2.786-1.822-5-4.078-5H6.08C3.834,70,2,72.216,2,75c0,2.77,1.834,5,4.08,5Z" transform="translate(137.263 4.906)"/><g class="e" transform="translate(288.326 22.835)"><path class="d" d="M25.448.022a5.286,5.286,0,0,0-5.659,3.49l-2.372,8.141c30.052.794,50.381,18.9,51.653,45.862l9.12-2.283a4.8,4.8,0,0,0,3.783-5.194C78.629,23.883,54.585,2.506,25.448.022Zm-9.365,16.2L.089,71.128a2.2,2.2,0,0,0,.686,2.266,2.793,2.793,0,0,0,2.517.592L64,58.78c-.684-25.3-19.714-42.265-47.916-42.549ZM20.5,60.185a4.654,4.654,0,1,1,0-9.259,4.654,4.654,0,1,1,0,9.259Zm7.688-21.991a4.9,4.9,0,0,1-5.126-4.63,4.9,4.9,0,0,1,5.126-4.63,4.9,4.9,0,0,1,5.126,4.63A4.9,4.9,0,0,1,28.191,38.194ZM44.85,53.24a4.9,4.9,0,0,1-5.126-4.63,4.9,4.9,0,0,1,5.126-4.63,4.9,4.9,0,0,1,5.126,4.63A4.9,4.9,0,0,1,44.85,53.24Z" transform="translate(-0.003 0.001)"/></g></g><g transform="translate(1129.456 367.299)"><g transform="translate(12.112 13)"><path class="c" d="M68.75,39.167,31.25,17.542" transform="translate(-12.5 -8.342)"/><path class="c" d="M87.5,66.667V33.333a8.333,8.333,0,0,0-4.167-7.208L54.167,9.458a8.333,8.333,0,0,0-8.333,0L16.667,26.125A8.333,8.333,0,0,0,12.5,33.333V66.667a8.333,8.333,0,0,0,4.167,7.208L45.833,90.542a8.333,8.333,0,0,0,8.333,0L83.333,73.875A8.333,8.333,0,0,0,87.5,66.667Z" transform="translate(-12.5 -8.342)"/><path class="c" d="M13.625,29,50,50.042,86.375,29" transform="translate(-12.5 -8.342)"/><path class="c" d="M50,92V50" transform="translate(-12.5 -8.342)"/></g><path class="d" d="M97.788,30.308,89.918,92H63.336L55.5,30H87.95L94.364,7.846,98,8.942l-6.154,21.32ZM51.74,66s.994-8-12.79-8H17c-13.764,0-12.79,8-12.79,8ZM4.208,84S3.234,92,17,92H38.952c13.784,0,12.79-8,12.79-8Zm45.47-4c2.256,0,4.078-2.228,4.078-5,0-2.786-1.822-5-4.078-5H6.08C3.834,70,2,72.216,2,75c0,2.77,1.834,5,4.08,5Z" transform="translate(137.263 4.906)"/><g class="e" transform="translate(288.326 22.835)"><path class="d" d="M25.448.022a5.286,5.286,0,0,0-5.659,3.49l-2.372,8.141c30.052.794,50.381,18.9,51.653,45.862l9.12-2.283a4.8,4.8,0,0,0,3.783-5.194C78.629,23.883,54.585,2.506,25.448.022Zm-9.365,16.2L.089,71.128a2.2,2.2,0,0,0,.686,2.266,2.793,2.793,0,0,0,2.517.592L64,58.78c-.684-25.3-19.714-42.265-47.916-42.549ZM20.5,60.185a4.654,4.654,0,1,1,0-9.259,4.654,4.654,0,1,1,0,9.259Zm7.688-21.991a4.9,4.9,0,0,1-5.126-4.63,4.9,4.9,0,0,1,5.126-4.63,4.9,4.9,0,0,1,5.126,4.63A4.9,4.9,0,0,1,28.191,38.194ZM44.85,53.24a4.9,4.9,0,0,1-5.126-4.63,4.9,4.9,0,0,1,5.126-4.63,4.9,4.9,0,0,1,5.126,4.63A4.9,4.9,0,0,1,44.85,53.24Z" transform="translate(-0.003 0.001)"/></g></g><g transform="translate(1508.456 367.299)"><g transform="translate(12.112 13)"><path class="c" d="M68.75,39.167,31.25,17.542" transform="translate(-12.5 -8.342)"/><path class="c" d="M87.5,66.667V33.333a8.333,8.333,0,0,0-4.167-7.208L54.167,9.458a8.333,8.333,0,0,0-8.333,0L16.667,26.125A8.333,8.333,0,0,0,12.5,33.333V66.667a8.333,8.333,0,0,0,4.167,7.208L45.833,90.542a8.333,8.333,0,0,0,8.333,0L83.333,73.875A8.333,8.333,0,0,0,87.5,66.667Z" transform="translate(-12.5 -8.342)"/><path class="c" d="M13.625,29,50,50.042,86.375,29" transform="translate(-12.5 -8.342)"/><path class="c" d="M50,92V50" transform="translate(-12.5 -8.342)"/></g><path class="d" d="M97.788,30.308,89.918,92H63.336L55.5,30H87.95L94.364,7.846,98,8.942l-6.154,21.32ZM51.74,66s.994-8-12.79-8H17c-13.764,0-12.79,8-12.79,8ZM4.208,84S3.234,92,17,92H38.952c13.784,0,12.79-8,12.79-8Zm45.47-4c2.256,0,4.078-2.228,4.078-5,0-2.786-1.822-5-4.078-5H6.08C3.834,70,2,72.216,2,75c0,2.77,1.834,5,4.08,5Z" transform="translate(137.263 4.906)"/><g class="e" transform="translate(288.326 22.835)"><path class="d" d="M25.448.022a5.286,5.286,0,0,0-5.659,3.49l-2.372,8.141c30.052.794,50.381,18.9,51.653,45.862l9.12-2.283a4.8,4.8,0,0,0,3.783-5.194C78.629,23.883,54.585,2.506,25.448.022Zm-9.365,16.2L.089,71.128a2.2,2.2,0,0,0,.686,2.266,2.793,2.793,0,0,0,2.517.592L64,58.78c-.684-25.3-19.714-42.265-47.916-42.549ZM20.5,60.185a4.654,4.654,0,1,1,0-9.259,4.654,4.654,0,1,1,0,9.259Zm7.688-21.991a4.9,4.9,0,0,1-5.126-4.63,4.9,4.9,0,0,1,5.126-4.63,4.9,4.9,0,0,1,5.126,4.63A4.9,4.9,0,0,1,28.191,38.194ZM44.85,53.24a4.9,4.9,0,0,1-5.126-4.63,4.9,4.9,0,0,1,5.126-4.63,4.9,4.9,0,0,1,5.126,4.63A4.9,4.9,0,0,1,44.85,53.24Z" transform="translate(-0.003 0.001)"/></g></g><g transform="translate(1887.456 367.299)"><g transform="translate(12.112 13)"><path class="c" d="M68.75,39.167,31.25,17.542" transform="translate(-12.5 -8.342)"/><path class="c" d="M87.5,66.667V33.333a8.333,8.333,0,0,0-4.167-7.208L54.167,9.458a8.333,8.333,0,0,0-8.333,0L16.667,26.125A8.333,8.333,0,0,0,12.5,33.333V66.667a8.333,8.333,0,0,0,4.167,7.208L45.833,90.542a8.333,8.333,0,0,0,8.333,0L83.333,73.875A8.333,8.333,0,0,0,87.5,66.667Z" transform="translate(-12.5 -8.342)"/><path class="c" d="M13.625,29,50,50.042,86.375,29" transform="translate(-12.5 -8.342)"/><path class="c" d="M50,92V50" transform="translate(-12.5 -8.342)"/></g><path class="d" d="M97.788,30.308,89.918,92H63.336L55.5,30H87.95L94.364,7.846,98,8.942l-6.154,21.32ZM51.74,66s.994-8-12.79-8H17c-13.764,0-12.79,8-12.79,8ZM4.208,84S3.234,92,17,92H38.952c13.784,0,12.79-8,12.79-8Zm45.47-4c2.256,0,4.078-2.228,4.078-5,0-2.786-1.822-5-4.078-5H6.08C3.834,70,2,72.216,2,75c0,2.77,1.834,5,4.08,5Z" transform="translate(137.263 4.906)"/><g class="e" transform="translate(288.326 22.835)"><path class="d" d="M25.448.022a5.286,5.286,0,0,0-5.659,3.49l-2.372,8.141c30.052.794,50.381,18.9,51.653,45.862l9.12-2.283a4.8,4.8,0,0,0,3.783-5.194C78.629,23.883,54.585,2.506,25.448.022Zm-9.365,16.2L.089,71.128a2.2,2.2,0,0,0,.686,2.266,2.793,2.793,0,0,0,2.517.592L64,58.78c-.684-25.3-19.714-42.265-47.916-42.549ZM20.5,60.185a4.654,4.654,0,1,1,0-9.259,4.654,4.654,0,1,1,0,9.259Zm7.688-21.991a4.9,4.9,0,0,1-5.126-4.63,4.9,4.9,0,0,1,5.126-4.63,4.9,4.9,0,0,1,5.126,4.63A4.9,4.9,0,0,1,28.191,38.194ZM44.85,53.24a4.9,4.9,0,0,1-5.126-4.63,4.9,4.9,0,0,1,5.126-4.63,4.9,4.9,0,0,1,5.126,4.63A4.9,4.9,0,0,1,44.85,53.24Z" transform="translate(-0.003 0.001)"/></g></g><g transform="translate(-7.544 555.299)"><g transform="translate(12.112 13)"><path class="c" d="M68.75,39.167,31.25,17.542" transform="translate(-12.5 -8.342)"/><path class="c" d="M87.5,66.667V33.333a8.333,8.333,0,0,0-4.167-7.208L54.167,9.458a8.333,8.333,0,0,0-8.333,0L16.667,26.125A8.333,8.333,0,0,0,12.5,33.333V66.667a8.333,8.333,0,0,0,4.167,7.208L45.833,90.542a8.333,8.333,0,0,0,8.333,0L83.333,73.875A8.333,8.333,0,0,0,87.5,66.667Z" transform="translate(-12.5 -8.342)"/><path class="c" d="M13.625,29,50,50.042,86.375,29" transform="translate(-12.5 -8.342)"/><path class="c" d="M50,92V50" transform="translate(-12.5 -8.342)"/></g><path class="d" d="M97.788,30.308,89.918,92H63.336L55.5,30H87.95L94.364,7.846,98,8.942l-6.154,21.32ZM51.74,66s.994-8-12.79-8H17c-13.764,0-12.79,8-12.79,8ZM4.208,84S3.234,92,17,92H38.952c13.784,0,12.79-8,12.79-8Zm45.47-4c2.256,0,4.078-2.228,4.078-5,0-2.786-1.822-5-4.078-5H6.08C3.834,70,2,72.216,2,75c0,2.77,1.834,5,4.08,5Z" transform="translate(137.263 4.906)"/><g class="e" transform="translate(288.326 22.835)"><path class="d" d="M25.448.022a5.286,5.286,0,0,0-5.659,3.49l-2.372,8.141c30.052.794,50.381,18.9,51.653,45.862l9.12-2.283a4.8,4.8,0,0,0,3.783-5.194C78.629,23.883,54.585,2.506,25.448.022Zm-9.365,16.2L.089,71.128a2.2,2.2,0,0,0,.686,2.266,2.793,2.793,0,0,0,2.517.592L64,58.78c-.684-25.3-19.714-42.265-47.916-42.549ZM20.5,60.185a4.654,4.654,0,1,1,0-9.259,4.654,4.654,0,1,1,0,9.259Zm7.688-21.991a4.9,4.9,0,0,1-5.126-4.63,4.9,4.9,0,0,1,5.126-4.63,4.9,4.9,0,0,1,5.126,4.63A4.9,4.9,0,0,1,28.191,38.194ZM44.85,53.24a4.9,4.9,0,0,1-5.126-4.63,4.9,4.9,0,0,1,5.126-4.63,4.9,4.9,0,0,1,5.126,4.63A4.9,4.9,0,0,1,44.85,53.24Z" transform="translate(-0.003 0.001)"/></g></g><g transform="translate(371.456 555.299)"><g transform="translate(12.112 13)"><path class="c" d="M68.75,39.167,31.25,17.542" transform="translate(-12.5 -8.342)"/><path class="c" d="M87.5,66.667V33.333a8.333,8.333,0,0,0-4.167-7.208L54.167,9.458a8.333,8.333,0,0,0-8.333,0L16.667,26.125A8.333,8.333,0,0,0,12.5,33.333V66.667a8.333,8.333,0,0,0,4.167,7.208L45.833,90.542a8.333,8.333,0,0,0,8.333,0L83.333,73.875A8.333,8.333,0,0,0,87.5,66.667Z" transform="translate(-12.5 -8.342)"/><path class="c" d="M13.625,29,50,50.042,86.375,29" transform="translate(-12.5 -8.342)"/><path class="c" d="M50,92V50" transform="translate(-12.5 -8.342)"/></g><path class="d" d="M97.788,30.308,89.918,92H63.336L55.5,30H87.95L94.364,7.846,98,8.942l-6.154,21.32ZM51.74,66s.994-8-12.79-8H17c-13.764,0-12.79,8-12.79,8ZM4.208,84S3.234,92,17,92H38.952c13.784,0,12.79-8,12.79-8Zm45.47-4c2.256,0,4.078-2.228,4.078-5,0-2.786-1.822-5-4.078-5H6.08C3.834,70,2,72.216,2,75c0,2.77,1.834,5,4.08,5Z" transform="translate(137.263 4.906)"/><g class="e" transform="translate(288.326 22.835)"><path class="d" d="M25.448.022a5.286,5.286,0,0,0-5.659,3.49l-2.372,8.141c30.052.794,50.381,18.9,51.653,45.862l9.12-2.283a4.8,4.8,0,0,0,3.783-5.194C78.629,23.883,54.585,2.506,25.448.022Zm-9.365,16.2L.089,71.128a2.2,2.2,0,0,0,.686,2.266,2.793,2.793,0,0,0,2.517.592L64,58.78c-.684-25.3-19.714-42.265-47.916-42.549ZM20.5,60.185a4.654,4.654,0,1,1,0-9.259,4.654,4.654,0,1,1,0,9.259Zm7.688-21.991a4.9,4.9,0,0,1-5.126-4.63,4.9,4.9,0,0,1,5.126-4.63,4.9,4.9,0,0,1,5.126,4.63A4.9,4.9,0,0,1,28.191,38.194ZM44.85,53.24a4.9,4.9,0,0,1-5.126-4.63,4.9,4.9,0,0,1,5.126-4.63,4.9,4.9,0,0,1,5.126,4.63A4.9,4.9,0,0,1,44.85,53.24Z" transform="translate(-0.003 0.001)"/></g></g><g transform="translate(750.456 555.299)"><g transform="translate(12.112 13)"><path class="c" d="M68.75,39.167,31.25,17.542" transform="translate(-12.5 -8.342)"/><path class="c" d="M87.5,66.667V33.333a8.333,8.333,0,0,0-4.167-7.208L54.167,9.458a8.333,8.333,0,0,0-8.333,0L16.667,26.125A8.333,8.333,0,0,0,12.5,33.333V66.667a8.333,8.333,0,0,0,4.167,7.208L45.833,90.542a8.333,8.333,0,0,0,8.333,0L83.333,73.875A8.333,8.333,0,0,0,87.5,66.667Z" transform="translate(-12.5 -8.342)"/><path class="c" d="M13.625,29,50,50.042,86.375,29" transform="translate(-12.5 -8.342)"/><path class="c" d="M50,92V50" transform="translate(-12.5 -8.342)"/></g><path class="d" d="M97.788,30.308,89.918,92H63.336L55.5,30H87.95L94.364,7.846,98,8.942l-6.154,21.32ZM51.74,66s.994-8-12.79-8H17c-13.764,0-12.79,8-12.79,8ZM4.208,84S3.234,92,17,92H38.952c13.784,0,12.79-8,12.79-8Zm45.47-4c2.256,0,4.078-2.228,4.078-5,0-2.786-1.822-5-4.078-5H6.08C3.834,70,2,72.216,2,75c0,2.77,1.834,5,4.08,5Z" transform="translate(137.263 4.906)"/><g class="e" transform="translate(288.326 22.835)"><path class="d" d="M25.448.022a5.286,5.286,0,0,0-5.659,3.49l-2.372,8.141c30.052.794,50.381,18.9,51.653,45.862l9.12-2.283a4.8,4.8,0,0,0,3.783-5.194C78.629,23.883,54.585,2.506,25.448.022Zm-9.365,16.2L.089,71.128a2.2,2.2,0,0,0,.686,2.266,2.793,2.793,0,0,0,2.517.592L64,58.78c-.684-25.3-19.714-42.265-47.916-42.549ZM20.5,60.185a4.654,4.654,0,1,1,0-9.259,4.654,4.654,0,1,1,0,9.259Zm7.688-21.991a4.9,4.9,0,0,1-5.126-4.63,4.9,4.9,0,0,1,5.126-4.63,4.9,4.9,0,0,1,5.126,4.63A4.9,4.9,0,0,1,28.191,38.194ZM44.85,53.24a4.9,4.9,0,0,1-5.126-4.63,4.9,4.9,0,0,1,5.126-4.63,4.9,4.9,0,0,1,5.126,4.63A4.9,4.9,0,0,1,44.85,53.24Z" transform="translate(-0.003 0.001)"/></g></g><g transform="translate(1129.456 555.299)"><g transform="translate(12.112 13)"><path class="c" d="M68.75,39.167,31.25,17.542" transform="translate(-12.5 -8.342)"/><path class="c" d="M87.5,66.667V33.333a8.333,8.333,0,0,0-4.167-7.208L54.167,9.458a8.333,8.333,0,0,0-8.333,0L16.667,26.125A8.333,8.333,0,0,0,12.5,33.333V66.667a8.333,8.333,0,0,0,4.167,7.208L45.833,90.542a8.333,8.333,0,0,0,8.333,0L83.333,73.875A8.333,8.333,0,0,0,87.5,66.667Z" transform="translate(-12.5 -8.342)"/><path class="c" d="M13.625,29,50,50.042,86.375,29" transform="translate(-12.5 -8.342)"/><path class="c" d="M50,92V50" transform="translate(-12.5 -8.342)"/></g><path class="d" d="M97.788,30.308,89.918,92H63.336L55.5,30H87.95L94.364,7.846,98,8.942l-6.154,21.32ZM51.74,66s.994-8-12.79-8H17c-13.764,0-12.79,8-12.79,8ZM4.208,84S3.234,92,17,92H38.952c13.784,0,12.79-8,12.79-8Zm45.47-4c2.256,0,4.078-2.228,4.078-5,0-2.786-1.822-5-4.078-5H6.08C3.834,70,2,72.216,2,75c0,2.77,1.834,5,4.08,5Z" transform="translate(137.263 4.906)"/><g class="e" transform="translate(288.326 22.835)"><path class="d" d="M25.448.022a5.286,5.286,0,0,0-5.659,3.49l-2.372,8.141c30.052.794,50.381,18.9,51.653,45.862l9.12-2.283a4.8,4.8,0,0,0,3.783-5.194C78.629,23.883,54.585,2.506,25.448.022Zm-9.365,16.2L.089,71.128a2.2,2.2,0,0,0,.686,2.266,2.793,2.793,0,0,0,2.517.592L64,58.78c-.684-25.3-19.714-42.265-47.916-42.549ZM20.5,60.185a4.654,4.654,0,1,1,0-9.259,4.654,4.654,0,1,1,0,9.259Zm7.688-21.991a4.9,4.9,0,0,1-5.126-4.63,4.9,4.9,0,0,1,5.126-4.63,4.9,4.9,0,0,1,5.126,4.63A4.9,4.9,0,0,1,28.191,38.194ZM44.85,53.24a4.9,4.9,0,0,1-5.126-4.63,4.9,4.9,0,0,1,5.126-4.63,4.9,4.9,0,0,1,5.126,4.63A4.9,4.9,0,0,1,44.85,53.24Z" transform="translate(-0.003 0.001)"/></g></g><g transform="translate(1508.456 555.299)"><g transform="translate(12.112 13)"><path class="c" d="M68.75,39.167,31.25,17.542" transform="translate(-12.5 -8.342)"/><path class="c" d="M87.5,66.667V33.333a8.333,8.333,0,0,0-4.167-7.208L54.167,9.458a8.333,8.333,0,0,0-8.333,0L16.667,26.125A8.333,8.333,0,0,0,12.5,33.333V66.667a8.333,8.333,0,0,0,4.167,7.208L45.833,90.542a8.333,8.333,0,0,0,8.333,0L83.333,73.875A8.333,8.333,0,0,0,87.5,66.667Z" transform="translate(-12.5 -8.342)"/><path class="c" d="M13.625,29,50,50.042,86.375,29" transform="translate(-12.5 -8.342)"/><path class="c" d="M50,92V50" transform="translate(-12.5 -8.342)"/></g><path class="d" d="M97.788,30.308,89.918,92H63.336L55.5,30H87.95L94.364,7.846,98,8.942l-6.154,21.32ZM51.74,66s.994-8-12.79-8H17c-13.764,0-12.79,8-12.79,8ZM4.208,84S3.234,92,17,92H38.952c13.784,0,12.79-8,12.79-8Zm45.47-4c2.256,0,4.078-2.228,4.078-5,0-2.786-1.822-5-4.078-5H6.08C3.834,70,2,72.216,2,75c0,2.77,1.834,5,4.08,5Z" transform="translate(137.263 4.906)"/><g class="e" transform="translate(288.326 22.835)"><path class="d" d="M25.448.022a5.286,5.286,0,0,0-5.659,3.49l-2.372,8.141c30.052.794,50.381,18.9,51.653,45.862l9.12-2.283a4.8,4.8,0,0,0,3.783-5.194C78.629,23.883,54.585,2.506,25.448.022Zm-9.365,16.2L.089,71.128a2.2,2.2,0,0,0,.686,2.266,2.793,2.793,0,0,0,2.517.592L64,58.78c-.684-25.3-19.714-42.265-47.916-42.549ZM20.5,60.185a4.654,4.654,0,1,1,0-9.259,4.654,4.654,0,1,1,0,9.259Zm7.688-21.991a4.9,4.9,0,0,1-5.126-4.63,4.9,4.9,0,0,1,5.126-4.63,4.9,4.9,0,0,1,5.126,4.63A4.9,4.9,0,0,1,28.191,38.194ZM44.85,53.24a4.9,4.9,0,0,1-5.126-4.63,4.9,4.9,0,0,1,5.126-4.63,4.9,4.9,0,0,1,5.126,4.63A4.9,4.9,0,0,1,44.85,53.24Z" transform="translate(-0.003 0.001)"/></g></g><g transform="translate(1887.456 555.299)"><g transform="translate(12.112 13)"><path class="c" d="M68.75,39.167,31.25,17.542" transform="translate(-12.5 -8.342)"/><path class="c" d="M87.5,66.667V33.333a8.333,8.333,0,0,0-4.167-7.208L54.167,9.458a8.333,8.333,0,0,0-8.333,0L16.667,26.125A8.333,8.333,0,0,0,12.5,33.333V66.667a8.333,8.333,0,0,0,4.167,7.208L45.833,90.542a8.333,8.333,0,0,0,8.333,0L83.333,73.875A8.333,8.333,0,0,0,87.5,66.667Z" transform="translate(-12.5 -8.342)"/><path class="c" d="M13.625,29,50,50.042,86.375,29" transform="translate(-12.5 -8.342)"/><path class="c" d="M50,92V50" transform="translate(-12.5 -8.342)"/></g><path class="d" d="M97.788,30.308,89.918,92H63.336L55.5,30H87.95L94.364,7.846,98,8.942l-6.154,21.32ZM51.74,66s.994-8-12.79-8H17c-13.764,0-12.79,8-12.79,8ZM4.208,84S3.234,92,17,92H38.952c13.784,0,12.79-8,12.79-8Zm45.47-4c2.256,0,4.078-2.228,4.078-5,0-2.786-1.822-5-4.078-5H6.08C3.834,70,2,72.216,2,75c0,2.77,1.834,5,4.08,5Z" transform="translate(137.263 4.906)"/><g class="e" transform="translate(288.326 22.835)"><path class="d" d="M25.448.022a5.286,5.286,0,0,0-5.659,3.49l-2.372,8.141c30.052.794,50.381,18.9,51.653,45.862l9.12-2.283a4.8,4.8,0,0,0,3.783-5.194C78.629,23.883,54.585,2.506,25.448.022Zm-9.365,16.2L.089,71.128a2.2,2.2,0,0,0,.686,2.266,2.793,2.793,0,0,0,2.517.592L64,58.78c-.684-25.3-19.714-42.265-47.916-42.549ZM20.5,60.185a4.654,4.654,0,1,1,0-9.259,4.654,4.654,0,1,1,0,9.259Zm7.688-21.991a4.9,4.9,0,0,1-5.126-4.63,4.9,4.9,0,0,1,5.126-4.63,4.9,4.9,0,0,1,5.126,4.63A4.9,4.9,0,0,1,28.191,38.194ZM44.85,53.24a4.9,4.9,0,0,1-5.126-4.63,4.9,4.9,0,0,1,5.126-4.63,4.9,4.9,0,0,1,5.126,4.63A4.9,4.9,0,0,1,44.85,53.24Z" transform="translate(-0.003 0.001)"/></g></g><g transform="translate(-7.544 743.299)"><g transform="translate(12.112 13)"><path class="c" d="M68.75,39.167,31.25,17.542" transform="translate(-12.5 -8.342)"/><path class="c" d="M87.5,66.667V33.333a8.333,8.333,0,0,0-4.167-7.208L54.167,9.458a8.333,8.333,0,0,0-8.333,0L16.667,26.125A8.333,8.333,0,0,0,12.5,33.333V66.667a8.333,8.333,0,0,0,4.167,7.208L45.833,90.542a8.333,8.333,0,0,0,8.333,0L83.333,73.875A8.333,8.333,0,0,0,87.5,66.667Z" transform="translate(-12.5 -8.342)"/><path class="c" d="M13.625,29,50,50.042,86.375,29" transform="translate(-12.5 -8.342)"/><path class="c" d="M50,92V50" transform="translate(-12.5 -8.342)"/></g><path class="d" d="M97.788,30.308,89.918,92H63.336L55.5,30H87.95L94.364,7.846,98,8.942l-6.154,21.32ZM51.74,66s.994-8-12.79-8H17c-13.764,0-12.79,8-12.79,8ZM4.208,84S3.234,92,17,92H38.952c13.784,0,12.79-8,12.79-8Zm45.47-4c2.256,0,4.078-2.228,4.078-5,0-2.786-1.822-5-4.078-5H6.08C3.834,70,2,72.216,2,75c0,2.77,1.834,5,4.08,5Z" transform="translate(137.263 4.906)"/><g class="e" transform="translate(288.326 22.835)"><path class="d" d="M25.448.022a5.286,5.286,0,0,0-5.659,3.49l-2.372,8.141c30.052.794,50.381,18.9,51.653,45.862l9.12-2.283a4.8,4.8,0,0,0,3.783-5.194C78.629,23.883,54.585,2.506,25.448.022Zm-9.365,16.2L.089,71.128a2.2,2.2,0,0,0,.686,2.266,2.793,2.793,0,0,0,2.517.592L64,58.78c-.684-25.3-19.714-42.265-47.916-42.549ZM20.5,60.185a4.654,4.654,0,1,1,0-9.259,4.654,4.654,0,1,1,0,9.259Zm7.688-21.991a4.9,4.9,0,0,1-5.126-4.63,4.9,4.9,0,0,1,5.126-4.63,4.9,4.9,0,0,1,5.126,4.63A4.9,4.9,0,0,1,28.191,38.194ZM44.85,53.24a4.9,4.9,0,0,1-5.126-4.63,4.9,4.9,0,0,1,5.126-4.63,4.9,4.9,0,0,1,5.126,4.63A4.9,4.9,0,0,1,44.85,53.24Z" transform="translate(-0.003 0.001)"/></g></g><g transform="translate(371.456 743.299)"><g transform="translate(12.112 13)"><path class="c" d="M68.75,39.167,31.25,17.542" transform="translate(-12.5 -8.342)"/><path class="c" d="M87.5,66.667V33.333a8.333,8.333,0,0,0-4.167-7.208L54.167,9.458a8.333,8.333,0,0,0-8.333,0L16.667,26.125A8.333,8.333,0,0,0,12.5,33.333V66.667a8.333,8.333,0,0,0,4.167,7.208L45.833,90.542a8.333,8.333,0,0,0,8.333,0L83.333,73.875A8.333,8.333,0,0,0,87.5,66.667Z" transform="translate(-12.5 -8.342)"/><path class="c" d="M13.625,29,50,50.042,86.375,29" transform="translate(-12.5 -8.342)"/><path class="c" d="M50,92V50" transform="translate(-12.5 -8.342)"/></g><path class="d" d="M97.788,30.308,89.918,92H63.336L55.5,30H87.95L94.364,7.846,98,8.942l-6.154,21.32ZM51.74,66s.994-8-12.79-8H17c-13.764,0-12.79,8-12.79,8ZM4.208,84S3.234,92,17,92H38.952c13.784,0,12.79-8,12.79-8Zm45.47-4c2.256,0,4.078-2.228,4.078-5,0-2.786-1.822-5-4.078-5H6.08C3.834,70,2,72.216,2,75c0,2.77,1.834,5,4.08,5Z" transform="translate(137.263 4.906)"/><g class="e" transform="translate(288.326 22.835)"><path class="d" d="M25.448.022a5.286,5.286,0,0,0-5.659,3.49l-2.372,8.141c30.052.794,50.381,18.9,51.653,45.862l9.12-2.283a4.8,4.8,0,0,0,3.783-5.194C78.629,23.883,54.585,2.506,25.448.022Zm-9.365,16.2L.089,71.128a2.2,2.2,0,0,0,.686,2.266,2.793,2.793,0,0,0,2.517.592L64,58.78c-.684-25.3-19.714-42.265-47.916-42.549ZM20.5,60.185a4.654,4.654,0,1,1,0-9.259,4.654,4.654,0,1,1,0,9.259Zm7.688-21.991a4.9,4.9,0,0,1-5.126-4.63,4.9,4.9,0,0,1,5.126-4.63,4.9,4.9,0,0,1,5.126,4.63A4.9,4.9,0,0,1,28.191,38.194ZM44.85,53.24a4.9,4.9,0,0,1-5.126-4.63,4.9,4.9,0,0,1,5.126-4.63,4.9,4.9,0,0,1,5.126,4.63A4.9,4.9,0,0,1,44.85,53.24Z" transform="translate(-0.003 0.001)"/></g></g><g transform="translate(750.456 743.299)"><g transform="translate(12.112 13)"><path class="c" d="M68.75,39.167,31.25,17.542" transform="translate(-12.5 -8.342)"/><path class="c" d="M87.5,66.667V33.333a8.333,8.333,0,0,0-4.167-7.208L54.167,9.458a8.333,8.333,0,0,0-8.333,0L16.667,26.125A8.333,8.333,0,0,0,12.5,33.333V66.667a8.333,8.333,0,0,0,4.167,7.208L45.833,90.542a8.333,8.333,0,0,0,8.333,0L83.333,73.875A8.333,8.333,0,0,0,87.5,66.667Z" transform="translate(-12.5 -8.342)"/><path class="c" d="M13.625,29,50,50.042,86.375,29" transform="translate(-12.5 -8.342)"/><path class="c" d="M50,92V50" transform="translate(-12.5 -8.342)"/></g><path class="d" d="M97.788,30.308,89.918,92H63.336L55.5,30H87.95L94.364,7.846,98,8.942l-6.154,21.32ZM51.74,66s.994-8-12.79-8H17c-13.764,0-12.79,8-12.79,8ZM4.208,84S3.234,92,17,92H38.952c13.784,0,12.79-8,12.79-8Zm45.47-4c2.256,0,4.078-2.228,4.078-5,0-2.786-1.822-5-4.078-5H6.08C3.834,70,2,72.216,2,75c0,2.77,1.834,5,4.08,5Z" transform="translate(137.263 4.906)"/><g class="e" transform="translate(288.326 22.835)"><path class="d" d="M25.448.022a5.286,5.286,0,0,0-5.659,3.49l-2.372,8.141c30.052.794,50.381,18.9,51.653,45.862l9.12-2.283a4.8,4.8,0,0,0,3.783-5.194C78.629,23.883,54.585,2.506,25.448.022Zm-9.365,16.2L.089,71.128a2.2,2.2,0,0,0,.686,2.266,2.793,2.793,0,0,0,2.517.592L64,58.78c-.684-25.3-19.714-42.265-47.916-42.549ZM20.5,60.185a4.654,4.654,0,1,1,0-9.259,4.654,4.654,0,1,1,0,9.259Zm7.688-21.991a4.9,4.9,0,0,1-5.126-4.63,4.9,4.9,0,0,1,5.126-4.63,4.9,4.9,0,0,1,5.126,4.63A4.9,4.9,0,0,1,28.191,38.194ZM44.85,53.24a4.9,4.9,0,0,1-5.126-4.63,4.9,4.9,0,0,1,5.126-4.63,4.9,4.9,0,0,1,5.126,4.63A4.9,4.9,0,0,1,44.85,53.24Z" transform="translate(-0.003 0.001)"/></g></g><g transform="translate(1129.456 743.299)"><g transform="translate(12.112 13)"><path class="c" d="M68.75,39.167,31.25,17.542" transform="translate(-12.5 -8.342)"/><path class="c" d="M87.5,66.667V33.333a8.333,8.333,0,0,0-4.167-7.208L54.167,9.458a8.333,8.333,0,0,0-8.333,0L16.667,26.125A8.333,8.333,0,0,0,12.5,33.333V66.667a8.333,8.333,0,0,0,4.167,7.208L45.833,90.542a8.333,8.333,0,0,0,8.333,0L83.333,73.875A8.333,8.333,0,0,0,87.5,66.667Z" transform="translate(-12.5 -8.342)"/><path class="c" d="M13.625,29,50,50.042,86.375,29" transform="translate(-12.5 -8.342)"/><path class="c" d="M50,92V50" transform="translate(-12.5 -8.342)"/></g><path class="d" d="M97.788,30.308,89.918,92H63.336L55.5,30H87.95L94.364,7.846,98,8.942l-6.154,21.32ZM51.74,66s.994-8-12.79-8H17c-13.764,0-12.79,8-12.79,8ZM4.208,84S3.234,92,17,92H38.952c13.784,0,12.79-8,12.79-8Zm45.47-4c2.256,0,4.078-2.228,4.078-5,0-2.786-1.822-5-4.078-5H6.08C3.834,70,2,72.216,2,75c0,2.77,1.834,5,4.08,5Z" transform="translate(137.263 4.906)"/><g class="e" transform="translate(288.326 22.835)"><path class="d" d="M25.448.022a5.286,5.286,0,0,0-5.659,3.49l-2.372,8.141c30.052.794,50.381,18.9,51.653,45.862l9.12-2.283a4.8,4.8,0,0,0,3.783-5.194C78.629,23.883,54.585,2.506,25.448.022Zm-9.365,16.2L.089,71.128a2.2,2.2,0,0,0,.686,2.266,2.793,2.793,0,0,0,2.517.592L64,58.78c-.684-25.3-19.714-42.265-47.916-42.549ZM20.5,60.185a4.654,4.654,0,1,1,0-9.259,4.654,4.654,0,1,1,0,9.259Zm7.688-21.991a4.9,4.9,0,0,1-5.126-4.63,4.9,4.9,0,0,1,5.126-4.63,4.9,4.9,0,0,1,5.126,4.63A4.9,4.9,0,0,1,28.191,38.194ZM44.85,53.24a4.9,4.9,0,0,1-5.126-4.63,4.9,4.9,0,0,1,5.126-4.63,4.9,4.9,0,0,1,5.126,4.63A4.9,4.9,0,0,1,44.85,53.24Z" transform="translate(-0.003 0.001)"/></g></g><g transform="translate(1508.456 743.299)"><g transform="translate(12.112 13)"><path class="c" d="M68.75,39.167,31.25,17.542" transform="translate(-12.5 -8.342)"/><path class="c" d="M87.5,66.667V33.333a8.333,8.333,0,0,0-4.167-7.208L54.167,9.458a8.333,8.333,0,0,0-8.333,0L16.667,26.125A8.333,8.333,0,0,0,12.5,33.333V66.667a8.333,8.333,0,0,0,4.167,7.208L45.833,90.542a8.333,8.333,0,0,0,8.333,0L83.333,73.875A8.333,8.333,0,0,0,87.5,66.667Z" transform="translate(-12.5 -8.342)"/><path class="c" d="M13.625,29,50,50.042,86.375,29" transform="translate(-12.5 -8.342)"/><path class="c" d="M50,92V50" transform="translate(-12.5 -8.342)"/></g><path class="d" d="M97.788,30.308,89.918,92H63.336L55.5,30H87.95L94.364,7.846,98,8.942l-6.154,21.32ZM51.74,66s.994-8-12.79-8H17c-13.764,0-12.79,8-12.79,8ZM4.208,84S3.234,92,17,92H38.952c13.784,0,12.79-8,12.79-8Zm45.47-4c2.256,0,4.078-2.228,4.078-5,0-2.786-1.822-5-4.078-5H6.08C3.834,70,2,72.216,2,75c0,2.77,1.834,5,4.08,5Z" transform="translate(137.263 4.906)"/><g class="e" transform="translate(288.326 22.835)"><path class="d" d="M25.448.022a5.286,5.286,0,0,0-5.659,3.49l-2.372,8.141c30.052.794,50.381,18.9,51.653,45.862l9.12-2.283a4.8,4.8,0,0,0,3.783-5.194C78.629,23.883,54.585,2.506,25.448.022Zm-9.365,16.2L.089,71.128a2.2,2.2,0,0,0,.686,2.266,2.793,2.793,0,0,0,2.517.592L64,58.78c-.684-25.3-19.714-42.265-47.916-42.549ZM20.5,60.185a4.654,4.654,0,1,1,0-9.259,4.654,4.654,0,1,1,0,9.259Zm7.688-21.991a4.9,4.9,0,0,1-5.126-4.63,4.9,4.9,0,0,1,5.126-4.63,4.9,4.9,0,0,1,5.126,4.63A4.9,4.9,0,0,1,28.191,38.194ZM44.85,53.24a4.9,4.9,0,0,1-5.126-4.63,4.9,4.9,0,0,1,5.126-4.63,4.9,4.9,0,0,1,5.126,4.63A4.9,4.9,0,0,1,44.85,53.24Z" transform="translate(-0.003 0.001)"/></g></g><g transform="translate(1887.456 743.299)"><g transform="translate(12.112 13)"><path class="c" d="M68.75,39.167,31.25,17.542" transform="translate(-12.5 -8.342)"/><path class="c" d="M87.5,66.667V33.333a8.333,8.333,0,0,0-4.167-7.208L54.167,9.458a8.333,8.333,0,0,0-8.333,0L16.667,26.125A8.333,8.333,0,0,0,12.5,33.333V66.667a8.333,8.333,0,0,0,4.167,7.208L45.833,90.542a8.333,8.333,0,0,0,8.333,0L83.333,73.875A8.333,8.333,0,0,0,87.5,66.667Z" transform="translate(-12.5 -8.342)"/><path class="c" d="M13.625,29,50,50.042,86.375,29" transform="translate(-12.5 -8.342)"/><path class="c" d="M50,92V50" transform="translate(-12.5 -8.342)"/></g><path class="d" d="M97.788,30.308,89.918,92H63.336L55.5,30H87.95L94.364,7.846,98,8.942l-6.154,21.32ZM51.74,66s.994-8-12.79-8H17c-13.764,0-12.79,8-12.79,8ZM4.208,84S3.234,92,17,92H38.952c13.784,0,12.79-8,12.79-8Zm45.47-4c2.256,0,4.078-2.228,4.078-5,0-2.786-1.822-5-4.078-5H6.08C3.834,70,2,72.216,2,75c0,2.77,1.834,5,4.08,5Z" transform="translate(137.263 4.906)"/><g class="e" transform="translate(288.326 22.835)"><path class="d" d="M25.448.022a5.286,5.286,0,0,0-5.659,3.49l-2.372,8.141c30.052.794,50.381,18.9,51.653,45.862l9.12-2.283a4.8,4.8,0,0,0,3.783-5.194C78.629,23.883,54.585,2.506,25.448.022Zm-9.365,16.2L.089,71.128a2.2,2.2,0,0,0,.686,2.266,2.793,2.793,0,0,0,2.517.592L64,58.78c-.684-25.3-19.714-42.265-47.916-42.549ZM20.5,60.185a4.654,4.654,0,1,1,0-9.259,4.654,4.654,0,1,1,0,9.259Zm7.688-21.991a4.9,4.9,0,0,1-5.126-4.63,4.9,4.9,0,0,1,5.126-4.63,4.9,4.9,0,0,1,5.126,4.63A4.9,4.9,0,0,1,28.191,38.194ZM44.85,53.24a4.9,4.9,0,0,1-5.126-4.63,4.9,4.9,0,0,1,5.126-4.63,4.9,4.9,0,0,1,5.126,4.63A4.9,4.9,0,0,1,44.85,53.24Z" transform="translate(-0.003 0.001)"/></g></g><g transform="translate(-7.544 931.299)"><g transform="translate(12.112 13)"><path class="c" d="M68.75,39.167,31.25,17.542" transform="translate(-12.5 -8.342)"/><path class="c" d="M87.5,66.667V33.333a8.333,8.333,0,0,0-4.167-7.208L54.167,9.458a8.333,8.333,0,0,0-8.333,0L16.667,26.125A8.333,8.333,0,0,0,12.5,33.333V66.667a8.333,8.333,0,0,0,4.167,7.208L45.833,90.542a8.333,8.333,0,0,0,8.333,0L83.333,73.875A8.333,8.333,0,0,0,87.5,66.667Z" transform="translate(-12.5 -8.342)"/><path class="c" d="M13.625,29,50,50.042,86.375,29" transform="translate(-12.5 -8.342)"/><path class="c" d="M50,92V50" transform="translate(-12.5 -8.342)"/></g><path class="d" d="M97.788,30.308,89.918,92H63.336L55.5,30H87.95L94.364,7.846,98,8.942l-6.154,21.32ZM51.74,66s.994-8-12.79-8H17c-13.764,0-12.79,8-12.79,8ZM4.208,84S3.234,92,17,92H38.952c13.784,0,12.79-8,12.79-8Zm45.47-4c2.256,0,4.078-2.228,4.078-5,0-2.786-1.822-5-4.078-5H6.08C3.834,70,2,72.216,2,75c0,2.77,1.834,5,4.08,5Z" transform="translate(137.263 4.906)"/><g class="e" transform="translate(288.326 22.835)"><path class="d" d="M25.448.022a5.286,5.286,0,0,0-5.659,3.49l-2.372,8.141c30.052.794,50.381,18.9,51.653,45.862l9.12-2.283a4.8,4.8,0,0,0,3.783-5.194C78.629,23.883,54.585,2.506,25.448.022Zm-9.365,16.2L.089,71.128a2.2,2.2,0,0,0,.686,2.266,2.793,2.793,0,0,0,2.517.592L64,58.78c-.684-25.3-19.714-42.265-47.916-42.549ZM20.5,60.185a4.654,4.654,0,1,1,0-9.259,4.654,4.654,0,1,1,0,9.259Zm7.688-21.991a4.9,4.9,0,0,1-5.126-4.63,4.9,4.9,0,0,1,5.126-4.63,4.9,4.9,0,0,1,5.126,4.63A4.9,4.9,0,0,1,28.191,38.194ZM44.85,53.24a4.9,4.9,0,0,1-5.126-4.63,4.9,4.9,0,0,1,5.126-4.63,4.9,4.9,0,0,1,5.126,4.63A4.9,4.9,0,0,1,44.85,53.24Z" transform="translate(-0.003 0.001)"/></g></g><g transform="translate(371.456 931.299)"><g transform="translate(12.112 13)"><path class="c" d="M68.75,39.167,31.25,17.542" transform="translate(-12.5 -8.342)"/><path class="c" d="M87.5,66.667V33.333a8.333,8.333,0,0,0-4.167-7.208L54.167,9.458a8.333,8.333,0,0,0-8.333,0L16.667,26.125A8.333,8.333,0,0,0,12.5,33.333V66.667a8.333,8.333,0,0,0,4.167,7.208L45.833,90.542a8.333,8.333,0,0,0,8.333,0L83.333,73.875A8.333,8.333,0,0,0,87.5,66.667Z" transform="translate(-12.5 -8.342)"/><path class="c" d="M13.625,29,50,50.042,86.375,29" transform="translate(-12.5 -8.342)"/><path class="c" d="M50,92V50" transform="translate(-12.5 -8.342)"/></g><path class="d" d="M97.788,30.308,89.918,92H63.336L55.5,30H87.95L94.364,7.846,98,8.942l-6.154,21.32ZM51.74,66s.994-8-12.79-8H17c-13.764,0-12.79,8-12.79,8ZM4.208,84S3.234,92,17,92H38.952c13.784,0,12.79-8,12.79-8Zm45.47-4c2.256,0,4.078-2.228,4.078-5,0-2.786-1.822-5-4.078-5H6.08C3.834,70,2,72.216,2,75c0,2.77,1.834,5,4.08,5Z" transform="translate(137.263 4.906)"/><g class="e" transform="translate(288.326 22.835)"><path class="d" d="M25.448.022a5.286,5.286,0,0,0-5.659,3.49l-2.372,8.141c30.052.794,50.381,18.9,51.653,45.862l9.12-2.283a4.8,4.8,0,0,0,3.783-5.194C78.629,23.883,54.585,2.506,25.448.022Zm-9.365,16.2L.089,71.128a2.2,2.2,0,0,0,.686,2.266,2.793,2.793,0,0,0,2.517.592L64,58.78c-.684-25.3-19.714-42.265-47.916-42.549ZM20.5,60.185a4.654,4.654,0,1,1,0-9.259,4.654,4.654,0,1,1,0,9.259Zm7.688-21.991a4.9,4.9,0,0,1-5.126-4.63,4.9,4.9,0,0,1,5.126-4.63,4.9,4.9,0,0,1,5.126,4.63A4.9,4.9,0,0,1,28.191,38.194ZM44.85,53.24a4.9,4.9,0,0,1-5.126-4.63,4.9,4.9,0,0,1,5.126-4.63,4.9,4.9,0,0,1,5.126,4.63A4.9,4.9,0,0,1,44.85,53.24Z" transform="translate(-0.003 0.001)"/></g></g><g transform="translate(750.456 931.299)"><g transform="translate(12.112 13)"><path class="c" d="M68.75,39.167,31.25,17.542" transform="translate(-12.5 -8.342)"/><path class="c" d="M87.5,66.667V33.333a8.333,8.333,0,0,0-4.167-7.208L54.167,9.458a8.333,8.333,0,0,0-8.333,0L16.667,26.125A8.333,8.333,0,0,0,12.5,33.333V66.667a8.333,8.333,0,0,0,4.167,7.208L45.833,90.542a8.333,8.333,0,0,0,8.333,0L83.333,73.875A8.333,8.333,0,0,0,87.5,66.667Z" transform="translate(-12.5 -8.342)"/><path class="c" d="M13.625,29,50,50.042,86.375,29" transform="translate(-12.5 -8.342)"/><path class="c" d="M50,92V50" transform="translate(-12.5 -8.342)"/></g><path class="d" d="M97.788,30.308,89.918,92H63.336L55.5,30H87.95L94.364,7.846,98,8.942l-6.154,21.32ZM51.74,66s.994-8-12.79-8H17c-13.764,0-12.79,8-12.79,8ZM4.208,84S3.234,92,17,92H38.952c13.784,0,12.79-8,12.79-8Zm45.47-4c2.256,0,4.078-2.228,4.078-5,0-2.786-1.822-5-4.078-5H6.08C3.834,70,2,72.216,2,75c0,2.77,1.834,5,4.08,5Z" transform="translate(137.263 4.906)"/><g class="e" transform="translate(288.326 22.835)"><path class="d" d="M25.448.022a5.286,5.286,0,0,0-5.659,3.49l-2.372,8.141c30.052.794,50.381,18.9,51.653,45.862l9.12-2.283a4.8,4.8,0,0,0,3.783-5.194C78.629,23.883,54.585,2.506,25.448.022Zm-9.365,16.2L.089,71.128a2.2,2.2,0,0,0,.686,2.266,2.793,2.793,0,0,0,2.517.592L64,58.78c-.684-25.3-19.714-42.265-47.916-42.549ZM20.5,60.185a4.654,4.654,0,1,1,0-9.259,4.654,4.654,0,1,1,0,9.259Zm7.688-21.991a4.9,4.9,0,0,1-5.126-4.63,4.9,4.9,0,0,1,5.126-4.63,4.9,4.9,0,0,1,5.126,4.63A4.9,4.9,0,0,1,28.191,38.194ZM44.85,53.24a4.9,4.9,0,0,1-5.126-4.63,4.9,4.9,0,0,1,5.126-4.63,4.9,4.9,0,0,1,5.126,4.63A4.9,4.9,0,0,1,44.85,53.24Z" transform="translate(-0.003 0.001)"/></g></g><g transform="translate(1129.456 931.299)"><g transform="translate(12.112 13)"><path class="c" d="M68.75,39.167,31.25,17.542" transform="translate(-12.5 -8.342)"/><path class="c" d="M87.5,66.667V33.333a8.333,8.333,0,0,0-4.167-7.208L54.167,9.458a8.333,8.333,0,0,0-8.333,0L16.667,26.125A8.333,8.333,0,0,0,12.5,33.333V66.667a8.333,8.333,0,0,0,4.167,7.208L45.833,90.542a8.333,8.333,0,0,0,8.333,0L83.333,73.875A8.333,8.333,0,0,0,87.5,66.667Z" transform="translate(-12.5 -8.342)"/><path class="c" d="M13.625,29,50,50.042,86.375,29" transform="translate(-12.5 -8.342)"/><path class="c" d="M50,92V50" transform="translate(-12.5 -8.342)"/></g><path class="d" d="M97.788,30.308,89.918,92H63.336L55.5,30H87.95L94.364,7.846,98,8.942l-6.154,21.32ZM51.74,66s.994-8-12.79-8H17c-13.764,0-12.79,8-12.79,8ZM4.208,84S3.234,92,17,92H38.952c13.784,0,12.79-8,12.79-8Zm45.47-4c2.256,0,4.078-2.228,4.078-5,0-2.786-1.822-5-4.078-5H6.08C3.834,70,2,72.216,2,75c0,2.77,1.834,5,4.08,5Z" transform="translate(137.263 4.906)"/><g class="e" transform="translate(288.326 22.835)"><path class="d" d="M25.448.022a5.286,5.286,0,0,0-5.659,3.49l-2.372,8.141c30.052.794,50.381,18.9,51.653,45.862l9.12-2.283a4.8,4.8,0,0,0,3.783-5.194C78.629,23.883,54.585,2.506,25.448.022Zm-9.365,16.2L.089,71.128a2.2,2.2,0,0,0,.686,2.266,2.793,2.793,0,0,0,2.517.592L64,58.78c-.684-25.3-19.714-42.265-47.916-42.549ZM20.5,60.185a4.654,4.654,0,1,1,0-9.259,4.654,4.654,0,1,1,0,9.259Zm7.688-21.991a4.9,4.9,0,0,1-5.126-4.63,4.9,4.9,0,0,1,5.126-4.63,4.9,4.9,0,0,1,5.126,4.63A4.9,4.9,0,0,1,28.191,38.194ZM44.85,53.24a4.9,4.9,0,0,1-5.126-4.63,4.9,4.9,0,0,1,5.126-4.63,4.9,4.9,0,0,1,5.126,4.63A4.9,4.9,0,0,1,44.85,53.24Z" transform="translate(-0.003 0.001)"/></g></g><g transform="translate(1508.456 931.299)"><g transform="translate(12.112 13)"><path class="c" d="M68.75,39.167,31.25,17.542" transform="translate(-12.5 -8.342)"/><path class="c" d="M87.5,66.667V33.333a8.333,8.333,0,0,0-4.167-7.208L54.167,9.458a8.333,8.333,0,0,0-8.333,0L16.667,26.125A8.333,8.333,0,0,0,12.5,33.333V66.667a8.333,8.333,0,0,0,4.167,7.208L45.833,90.542a8.333,8.333,0,0,0,8.333,0L83.333,73.875A8.333,8.333,0,0,0,87.5,66.667Z" transform="translate(-12.5 -8.342)"/><path class="c" d="M13.625,29,50,50.042,86.375,29" transform="translate(-12.5 -8.342)"/><path class="c" d="M50,92V50" transform="translate(-12.5 -8.342)"/></g><path class="d" d="M97.788,30.308,89.918,92H63.336L55.5,30H87.95L94.364,7.846,98,8.942l-6.154,21.32ZM51.74,66s.994-8-12.79-8H17c-13.764,0-12.79,8-12.79,8ZM4.208,84S3.234,92,17,92H38.952c13.784,0,12.79-8,12.79-8Zm45.47-4c2.256,0,4.078-2.228,4.078-5,0-2.786-1.822-5-4.078-5H6.08C3.834,70,2,72.216,2,75c0,2.77,1.834,5,4.08,5Z" transform="translate(137.263 4.906)"/><g class="e" transform="translate(288.326 22.835)"><path class="d" d="M25.448.022a5.286,5.286,0,0,0-5.659,3.49l-2.372,8.141c30.052.794,50.381,18.9,51.653,45.862l9.12-2.283a4.8,4.8,0,0,0,3.783-5.194C78.629,23.883,54.585,2.506,25.448.022Zm-9.365,16.2L.089,71.128a2.2,2.2,0,0,0,.686,2.266,2.793,2.793,0,0,0,2.517.592L64,58.78c-.684-25.3-19.714-42.265-47.916-42.549ZM20.5,60.185a4.654,4.654,0,1,1,0-9.259,4.654,4.654,0,1,1,0,9.259Zm7.688-21.991a4.9,4.9,0,0,1-5.126-4.63,4.9,4.9,0,0,1,5.126-4.63,4.9,4.9,0,0,1,5.126,4.63A4.9,4.9,0,0,1,28.191,38.194ZM44.85,53.24a4.9,4.9,0,0,1-5.126-4.63,4.9,4.9,0,0,1,5.126-4.63,4.9,4.9,0,0,1,5.126,4.63A4.9,4.9,0,0,1,44.85,53.24Z" transform="translate(-0.003 0.001)"/></g></g><g transform="translate(1887.456 931.299)"><g transform="translate(12.112 13)"><path class="c" d="M68.75,39.167,31.25,17.542" transform="translate(-12.5 -8.342)"/><path class="c" d="M87.5,66.667V33.333a8.333,8.333,0,0,0-4.167-7.208L54.167,9.458a8.333,8.333,0,0,0-8.333,0L16.667,26.125A8.333,8.333,0,0,0,12.5,33.333V66.667a8.333,8.333,0,0,0,4.167,7.208L45.833,90.542a8.333,8.333,0,0,0,8.333,0L83.333,73.875A8.333,8.333,0,0,0,87.5,66.667Z" transform="translate(-12.5 -8.342)"/><path class="c" d="M13.625,29,50,50.042,86.375,29" transform="translate(-12.5 -8.342)"/><path class="c" d="M50,92V50" transform="translate(-12.5 -8.342)"/></g><path class="d" d="M97.788,30.308,89.918,92H63.336L55.5,30H87.95L94.364,7.846,98,8.942l-6.154,21.32ZM51.74,66s.994-8-12.79-8H17c-13.764,0-12.79,8-12.79,8ZM4.208,84S3.234,92,17,92H38.952c13.784,0,12.79-8,12.79-8Zm45.47-4c2.256,0,4.078-2.228,4.078-5,0-2.786-1.822-5-4.078-5H6.08C3.834,70,2,72.216,2,75c0,2.77,1.834,5,4.08,5Z" transform="translate(137.263 4.906)"/><g class="e" transform="translate(288.326 22.835)"><path class="d" d="M25.448.022a5.286,5.286,0,0,0-5.659,3.49l-2.372,8.141c30.052.794,50.381,18.9,51.653,45.862l9.12-2.283a4.8,4.8,0,0,0,3.783-5.194C78.629,23.883,54.585,2.506,25.448.022Zm-9.365,16.2L.089,71.128a2.2,2.2,0,0,0,.686,2.266,2.793,2.793,0,0,0,2.517.592L64,58.78c-.684-25.3-19.714-42.265-47.916-42.549ZM20.5,60.185a4.654,4.654,0,1,1,0-9.259,4.654,4.654,0,1,1,0,9.259Zm7.688-21.991a4.9,4.9,0,0,1-5.126-4.63,4.9,4.9,0,0,1,5.126-4.63,4.9,4.9,0,0,1,5.126,4.63A4.9,4.9,0,0,1,28.191,38.194ZM44.85,53.24a4.9,4.9,0,0,1-5.126-4.63,4.9,4.9,0,0,1,5.126-4.63,4.9,4.9,0,0,1,5.126,4.63A4.9,4.9,0,0,1,44.85,53.24Z" transform="translate(-0.003 0.001)"/></g></g></g></svg>